<?xml version="1.0" encoding="utf-8"?>
<!-- Generator: Adobe Illustrator 19.2.1, SVG Export Plug-In . SVG Version: 6.00 Build 0)  -->
<svg version="1.1" id="Layer_1" xmlns="http://www.w3.org/2000/svg" xmlns:xlink="http://www.w3.org/1999/xlink" x="0px" y="0px"
	 viewBox="0 0 156 156" style="enable-background:new 0 0 156 156;" xml:space="preserve">
<style type="text/css">
	.st0{fill:#FFFFFF;}
	.st1{fill:#FFA000;}
	.st2{fill:#474747;}
</style>
<g id="Layer_2">
	<circle class="st0" cx="77.4" cy="78.6" r="76.4"/>
</g>
<g>
	<g id="XMLID_273_">
		<g id="XMLID_274_">
			<path id="XMLID_275_" class="st1" d="M69.2,61.6v17.8h15.4V61.6c9.1,3.1,14.1,9.7,14.9,17.8h17.1c-1.2-18.1-17.6-35.5-38.4-36.5
				v-0.6c0-1.1-0.3-2-1.4-2s-1.4,0.9-1.4,2v0.6c-19.9,1-36.5,18.4-37.7,36.5H55C55.8,71.3,61.1,64.7,69.2,61.6z"/>
		</g>
		<g id="XMLID_276_">
			<path id="XMLID_277_" class="st1" d="M121.5,81.2H32.9c-1.2,0-2.1,1.1-2.1,2.3c0,1.2,0.9,2.3,2.1,2.3h4.8l2.6,4.5h73.8l2.6-4.5
				h4.7c1.2,0,2.1-1.1,2.1-2.3C123.5,82.3,122.6,81.2,121.5,81.2z"/>
		</g>
	</g>
	<g>
		<path class="st2" d="M29.8,112.8c-0.3,0-0.5-0.1-0.7-0.3c-0.2-0.2-0.3-0.5-0.3-0.7V100c0-0.2,0.1-0.5,0.2-0.7
			c0.1-0.2,0.3-0.3,0.6-0.4c0.2-0.1,0.5,0,0.7,0.1c0.2,0.1,0.4,0.3,0.5,0.5c0.3,0.6,0.6,1.2,0.8,1.8c0.2,0.6,0.5,1,0.7,1.7
			c0.3,0.6,0.6,1.1,0.7,1.6c0.2-0.5,0.5-1,0.7-1.6c0.3-0.6,0.6-1.1,0.7-1.7c0.3-0.6,0.6-1.2,0.8-1.8c0.1-0.2,0.3-0.4,0.5-0.5
			s0.4-0.1,0.7-0.1c0.2,0.1,0.4,0.2,0.6,0.4c0.1,0.2,0.2,0.4,0.2,0.7v11.8c0,0.3-0.1,0.5-0.3,0.7c-0.2,0.2-0.4,0.3-0.7,0.3
			c-0.3,0-0.5-0.1-0.7-0.3s-0.3-0.5-0.3-0.7v-7.5c-0.2,0.4-0.4,0.7-0.5,1.1c-0.2,0.4-0.3,0.7-0.5,0.9c-0.2,0.4-0.3,0.7-0.5,0.9
			c-0.1,0.2-0.2,0.3-0.4,0.5c-0.2,0.1-0.3,0.2-0.5,0.2c-0.4,0-0.7-0.2-0.8-0.6c-0.2-0.3-0.3-0.7-0.5-0.9c-0.1-0.3-0.3-0.6-0.5-0.9
			s-0.3-0.7-0.5-1.1v7.5c0,0.3-0.1,0.5-0.3,0.7C30.2,112.7,30,112.8,29.8,112.8z"/>
		<path class="st2" d="M40,101.7c-0.3,0-0.6-0.1-0.7-0.4c-0.2-0.2-0.3-0.5-0.3-0.8c0-0.3,0.1-0.6,0.3-0.8c0.2-0.2,0.5-0.4,0.7-0.4
			s0.6,0.1,0.7,0.4c0.2,0.2,0.3,0.5,0.3,0.8c0,0.3-0.1,0.6-0.3,0.8C40.5,101.6,40.3,101.7,40,101.7z M40.9,111.8
			c0,0.3-0.1,0.5-0.3,0.7c-0.2,0.2-0.4,0.3-0.7,0.3s-0.5-0.1-0.7-0.3s-0.3-0.4-0.3-0.7v-8.2c0-0.3,0.1-0.5,0.3-0.7
			c0.2-0.2,0.4-0.3,0.7-0.3s0.5,0.1,0.7,0.3c0.2,0.2,0.3,0.4,0.3,0.7V111.8z"/>
		<path class="st2" d="M42.1,116.8c-0.3,0-0.5-0.1-0.7-0.3c-0.2-0.2-0.3-0.4-0.3-0.7c0-0.3,0.1-0.5,0.3-0.7c0.2-0.2,0.4-0.3,0.7-0.3
			s0.6-0.1,0.7-0.4c0.2-0.2,0.3-0.5,0.3-0.8v-10.3c0-0.3,0.1-0.5,0.3-0.7c0.2-0.2,0.4-0.3,0.7-0.3s0.5,0.1,0.7,0.3
			c0.2,0.2,0.3,0.4,0.3,0.7v10.3c0,0.4-0.1,0.8-0.2,1.1c-0.2,0.4-0.4,0.7-0.7,0.9c-0.3,0.3-0.6,0.5-0.9,0.7
			C42.8,116.7,42.5,116.8,42.1,116.8z M44.1,101.7c-0.3,0-0.6-0.1-0.7-0.4c-0.2-0.2-0.3-0.5-0.3-0.8c0-0.3,0.1-0.6,0.3-0.8
			c0.2-0.2,0.5-0.4,0.7-0.4s0.6,0.1,0.7,0.4c0.2,0.2,0.3,0.5,0.3,0.8c0,0.3-0.1,0.6-0.3,0.8C44.6,101.6,44.3,101.7,44.1,101.7z"/>
		<path class="st2" d="M48,112.7c-0.3,0-0.5-0.1-0.7-0.3s-0.3-0.4-0.3-0.7v-8.1c0-0.3,0.1-0.5,0.3-0.7c0.2-0.2,0.4-0.3,0.7-0.3h2
			c0.4,0,0.7,0.1,1.1,0.3c0.4,0.2,0.7,0.4,0.9,0.7c0.3,0.3,0.5,0.6,0.7,0.9c0.2,0.4,0.2,0.7,0.2,1.1v6.1c0,0.3-0.1,0.5-0.3,0.7
			c-0.2,0.2-0.4,0.3-0.7,0.3s-0.5-0.1-0.7-0.3s-0.3-0.4-0.3-0.7v-6.1c0-0.3-0.1-0.6-0.3-0.8c-0.2-0.3-0.5-0.4-0.7-0.4h-1.1v7.2
			c0,0.3-0.1,0.5-0.3,0.7C48.5,112.6,48.3,112.7,48,112.7z"/>
		<path class="st2" d="M65.2,103.7c0,0.7-0.2,1.3-0.5,1.8c-0.3,0.6-0.7,0.9-1.3,1.2l1.7,4.8c0.1,0.3,0.1,0.5,0,0.7
			c-0.1,0.3-0.3,0.4-0.6,0.5c-0.3,0.1-0.5,0.1-0.7,0c-0.2-0.1-0.4-0.3-0.5-0.6l-1.9-5.1h-1v4.8c0,0.3-0.1,0.5-0.3,0.7
			c-0.2,0.2-0.4,0.3-0.7,0.3s-0.5-0.1-0.7-0.3s-0.3-0.5-0.3-0.7V99.9c0-0.3,0.1-0.5,0.3-0.7c0.2-0.2,0.4-0.3,0.7-0.3h2.3
			c0.5,0,0.9,0.1,1.3,0.3c0.4,0.2,0.7,0.5,1,0.7c0.3,0.3,0.6,0.7,0.7,1.1c0.2,0.4,0.3,0.8,0.3,1.3C65.2,102.4,65.2,103.7,65.2,103.7
			z M60.4,105.1h1.4c0.4,0,0.7-0.2,1-0.5c0.3-0.3,0.4-0.7,0.4-1v-1.1c0-0.4-0.1-0.7-0.4-1c-0.3-0.3-0.7-0.5-1-0.5h-1.4V105.1z"/>
		<path class="st2" d="M68.4,112.5c-0.6-0.2-1-0.6-1.3-1.1c-0.3-0.5-0.5-1-0.5-1.7v-4.1c0-0.4,0.1-0.8,0.2-1.1
			c0.1-0.3,0.4-0.7,0.7-0.9c0.3-0.3,0.6-0.5,0.9-0.7c0.4-0.2,0.7-0.3,1.1-0.3s0.7,0.1,1.1,0.3c0.4,0.2,0.7,0.4,0.9,0.7
			c0.3,0.3,0.5,0.6,0.7,0.9c0.2,0.4,0.2,0.7,0.2,1.1v2.1c0,0.3-0.1,0.5-0.3,0.7c-0.2,0.2-0.4,0.3-0.7,0.3h-3.1v1.1
			c0,0.2,0.1,0.5,0.2,0.7c0.1,0.2,0.3,0.3,0.5,0.5c0.2,0.1,0.4,0.1,0.7,0.1c0.2,0,0.4-0.2,0.6-0.3c0.2-0.2,0.4-0.3,0.7-0.3
			c0.3,0,0.5,0.1,0.7,0.3c0.2,0.2,0.3,0.4,0.3,0.7c0,0.3-0.1,0.5-0.3,0.7c-0.4,0.5-0.9,0.7-1.5,0.8
			C69.4,112.8,68.8,112.7,68.4,112.5z M69.4,104.6c-0.3,0-0.6,0.1-0.7,0.4c-0.2,0.2-0.3,0.5-0.3,0.8v1.1h2.2v-1.1
			c0-0.3-0.1-0.6-0.3-0.8C70,104.7,69.7,104.6,69.4,104.6z"/>
		<path class="st2" d="M76.7,110.7c0.3-0.2,0.4-0.5,0.3-0.8c0-0.4-0.2-0.6-0.4-0.7l-1.9-1.3c-0.4-0.3-0.6-0.6-0.7-0.9
			s-0.3-0.7-0.4-1.2c0-0.5,0-0.8,0.2-1.2c0.2-0.4,0.4-0.7,0.7-1c0.3-0.3,0.7-0.5,1-0.6s0.7-0.2,1.2-0.1c0.4,0.1,0.7,0.2,1.1,0.5
			c0.4,0.2,0.6,0.6,0.8,0.9c0.1,0.2,0.2,0.5,0.1,0.7c-0.1,0.3-0.2,0.5-0.5,0.6c-0.2,0.1-0.5,0.2-0.7,0.1c-0.3-0.1-0.4-0.2-0.6-0.4
			c-0.2-0.3-0.4-0.4-0.7-0.5s-0.5,0-0.7,0.2c-0.2,0.2-0.3,0.5-0.3,0.7s0.2,0.6,0.4,0.7l1.9,1.3c0.4,0.3,0.7,0.6,0.8,0.9
			s0.3,0.7,0.4,1.2c0,0.5,0,0.8-0.2,1.2c-0.2,0.4-0.4,0.7-0.7,1c-0.3,0.3-0.7,0.5-1,0.7c-0.4,0.1-0.8,0.2-1.2,0.1
			c-0.4-0.1-0.8-0.2-1.1-0.5c-0.4-0.3-0.6-0.6-0.8-0.9c-0.1-0.2-0.2-0.5-0.1-0.7c0.1-0.3,0.2-0.5,0.4-0.6c0.2-0.1,0.5-0.2,0.7-0.1
			c0.3,0.1,0.4,0.2,0.6,0.4c0.2,0.3,0.4,0.5,0.7,0.5C76.2,110.9,76.5,110.9,76.7,110.7z"/>
		<path class="st2" d="M79.9,104.4c-0.2-0.2-0.3-0.4-0.3-0.7s0.1-0.5,0.3-0.7c0.2-0.2,0.4-0.3,0.7-0.3h0.7v-3.3
			c0-0.3,0.1-0.5,0.3-0.7c0.2-0.2,0.4-0.3,0.7-0.3c0.3,0,0.5,0.1,0.7,0.3c0.2,0.2,0.3,0.4,0.3,0.7v3.3h1.1c0.3,0,0.5,0.1,0.7,0.3
			c0.2,0.2,0.3,0.4,0.3,0.7s-0.1,0.5-0.3,0.7c-0.2,0.2-0.4,0.3-0.7,0.3h-1.1v5.1c0,0.3,0.1,0.6,0.3,0.8c0.2,0.2,0.5,0.4,0.7,0.4
			s0.5,0.1,0.7,0.3c0.2,0.2,0.3,0.4,0.3,0.7s-0.1,0.5-0.3,0.7c-0.2,0.2-0.4,0.3-0.7,0.3c-0.4,0-0.7-0.1-1.1-0.3
			c-0.4-0.2-0.7-0.4-0.9-0.7c-0.3-0.3-0.5-0.6-0.7-0.9c-0.2-0.4-0.2-0.7-0.2-1.1v-5.1h-0.7C80.3,104.6,80.1,104.5,79.9,104.4z"/>
		<path class="st2" d="M89.5,106.7v-1.1c0-0.2-0.1-0.4-0.2-0.6c-0.1-0.2-0.3-0.3-0.5-0.4c-0.2-0.1-0.4-0.1-0.7-0.1
			c-0.2,0-0.4,0.2-0.6,0.3c-0.2,0.2-0.4,0.3-0.7,0.3c-0.3,0-0.5-0.1-0.7-0.3c-0.2-0.2-0.3-0.4-0.3-0.7c0-0.3,0.1-0.5,0.3-0.7
			c0.4-0.5,0.8-0.7,1.4-0.8c0.6-0.1,1.1-0.1,1.6,0.2c0.6,0.2,0.9,0.6,1.3,1.1c0.3,0.5,0.5,1,0.5,1.6v6.1c0,0.3-0.1,0.5-0.3,0.7
			c-0.2,0.2-0.4,0.3-0.7,0.3h-2c-0.4,0-0.7-0.1-1.1-0.3c-0.4-0.2-0.7-0.4-0.9-0.7c-0.3-0.3-0.5-0.6-0.7-0.9s-0.2-0.7-0.2-1.1
			s0.1-0.8,0.2-1.1c0.1-0.3,0.4-0.7,0.7-0.9c0.3-0.3,0.6-0.5,0.9-0.7c0.4-0.2,0.7-0.3,1.1-0.3L89.5,106.7L89.5,106.7z M88.4,108.6
			c-0.3,0-0.6,0.1-0.7,0.4c-0.2,0.3-0.3,0.5-0.3,0.8c0,0.3,0.1,0.6,0.3,0.8c0.2,0.2,0.5,0.4,0.7,0.4h1.1v-2.2h-1.1V108.6z"/>
		<path class="st2" d="M94.8,112.4c-0.4-0.2-0.7-0.4-0.9-0.7c-0.3-0.3-0.5-0.6-0.7-0.9c-0.2-0.4-0.2-0.7-0.2-1.1v-6.1
			c0-0.3,0.1-0.5,0.3-0.7c0.2-0.2,0.4-0.3,0.7-0.3s0.5,0.1,0.7,0.3c0.2,0.2,0.3,0.4,0.3,0.7v6.1c0,0.3,0.1,0.6,0.3,0.8
			c0.2,0.2,0.5,0.4,0.7,0.4h1.1v-7.2c0-0.3,0.1-0.5,0.3-0.7c0.2-0.2,0.4-0.3,0.7-0.3s0.5,0.1,0.7,0.3c0.2,0.2,0.3,0.4,0.3,0.7v8.1
			c0,0.3-0.1,0.5-0.3,0.7c-0.2,0.2-0.4,0.3-0.7,0.3h-2C95.6,112.6,95.2,112.6,94.8,112.4z"/>
		<path class="st2" d="M101.9,112.7c-0.3,0-0.5-0.1-0.7-0.3c-0.2-0.2-0.3-0.4-0.3-0.7v-8.1c0-0.3,0.1-0.5,0.3-0.7
			c0.2-0.2,0.4-0.3,0.7-0.3h2c0.5,0,0.9,0.1,1.4,0.4c0.2,0.1,0.4,0.3,0.5,0.6c0.1,0.3,0,0.5-0.1,0.7c-0.1,0.2-0.3,0.4-0.6,0.5
			c-0.2,0.1-0.5,0-0.7-0.1c-0.2-0.1-0.4-0.2-0.6-0.2h-1.1v7.2c0,0.3-0.1,0.5-0.3,0.7C102.3,112.6,102.1,112.7,101.9,112.7z"/>
		<path class="st2" d="M109.8,106.7v-1.1c0-0.2-0.1-0.4-0.2-0.6c-0.1-0.2-0.3-0.3-0.5-0.4c-0.2-0.1-0.4-0.1-0.7-0.1
			c-0.2,0-0.4,0.2-0.6,0.3c-0.2,0.2-0.4,0.3-0.7,0.3s-0.5-0.1-0.7-0.3c-0.2-0.2-0.3-0.4-0.3-0.7c0-0.3,0.1-0.5,0.3-0.7
			c0.4-0.5,0.8-0.7,1.4-0.8c0.6-0.1,1.1-0.1,1.6,0.2c0.6,0.2,0.9,0.6,1.3,1.1c0.3,0.5,0.5,1,0.5,1.6v6.1c0,0.3-0.1,0.5-0.3,0.7
			c-0.2,0.2-0.4,0.3-0.7,0.3h-2c-0.4,0-0.7-0.1-1.1-0.3s-0.7-0.4-0.9-0.7c-0.3-0.3-0.5-0.6-0.7-0.9c-0.2-0.4-0.2-0.7-0.2-1.1
			s0.1-0.8,0.2-1.1c0.2-0.4,0.4-0.7,0.7-0.9c0.3-0.3,0.6-0.5,0.9-0.7c0.4-0.2,0.7-0.3,1.1-0.3L109.8,106.7L109.8,106.7z
			 M108.8,108.6c-0.3,0-0.6,0.1-0.7,0.4c-0.2,0.2-0.3,0.5-0.3,0.8c0,0.3,0.1,0.6,0.3,0.8c0.2,0.2,0.5,0.4,0.7,0.4h1.1v-2.2h-1.1
			V108.6z"/>
		<path class="st2" d="M114.5,112.7c-0.3,0-0.5-0.1-0.7-0.3c-0.2-0.2-0.3-0.4-0.3-0.7v-8.1c0-0.3,0.1-0.5,0.3-0.7
			c0.2-0.2,0.4-0.3,0.7-0.3h2c0.4,0,0.7,0.1,1.1,0.3c0.4,0.2,0.7,0.4,0.9,0.7c0.3,0.3,0.5,0.6,0.7,0.9c0.2,0.4,0.2,0.7,0.2,1.1v6.1
			c0,0.3-0.1,0.5-0.3,0.7c-0.2,0.2-0.4,0.3-0.7,0.3c-0.3,0-0.5-0.1-0.7-0.3c-0.2-0.2-0.3-0.4-0.3-0.7v-6.1c0-0.3-0.1-0.6-0.3-0.8
			c-0.2-0.3-0.5-0.4-0.7-0.4h-1v7.2c0,0.3-0.1,0.5-0.3,0.7C115,112.6,114.8,112.7,114.5,112.7z"/>
		<path class="st2" d="M120.8,104.4c-0.2-0.2-0.3-0.4-0.3-0.7s0.1-0.5,0.3-0.7c0.2-0.2,0.4-0.3,0.7-0.3h0.7v-3.3
			c0-0.3,0.1-0.5,0.3-0.7c0.2-0.2,0.4-0.3,0.7-0.3c0.3,0,0.5,0.1,0.7,0.3c0.2,0.2,0.3,0.4,0.3,0.7v3.3h1.1c0.3,0,0.5,0.1,0.7,0.3
			c0.2,0.2,0.3,0.4,0.3,0.7s-0.1,0.5-0.3,0.7c-0.2,0.2-0.4,0.3-0.7,0.3h-1.2v5.1c0,0.3,0.1,0.6,0.3,0.8c0.2,0.3,0.5,0.4,0.7,0.4
			c0.3,0,0.5,0.1,0.7,0.3c0.2,0.2,0.3,0.4,0.3,0.7s-0.1,0.5-0.3,0.7c-0.2,0.2-0.4,0.3-0.7,0.3c-0.4,0-0.7-0.1-1.1-0.3
			c-0.4-0.2-0.7-0.4-0.9-0.7c-0.3-0.3-0.5-0.6-0.7-0.9c-0.2-0.4-0.2-0.7-0.2-1.1v-5.1h-0.7C121.1,104.6,120.8,104.5,120.8,104.4z"/>
	</g>
	<g id="XMLID_278_">
		<path id="XMLID_279_" class="st1" d="M69.6,115c-1.2,0-2.4-0.6-3.4-1.7c-0.2-0.2-0.1-0.5,0-0.6c0.2-0.2,0.5-0.1,0.6,0
			c0.8,0.9,1.8,1.4,2.7,1.4c0.9,0,2-0.5,2.7-1.4c0.2-0.2,0.4-0.2,0.6,0c0.2,0.2,0.2,0.4,0,0.6C71.9,114.3,70.8,115,69.6,115z"/>
	</g>
</g>
</svg>
