<svg xmlns="http://www.w3.org/2000/svg" width="58" height="58" viewBox="0 0 58 58">
  <g id="Group_14" data-name="Group 14" transform="translate(-1480 -129)">
    <path id="Fill_1_Copy_4" data-name="Fill 1 Copy 4" d="M58,29.031a73.038,73.038,0,0,1-1.906,17.19c-.261,1.021-.625,2.017-.955,3.02a9.181,9.181,0,0,1-6.058,6,47.065,47.065,0,0,1-10.792,2.266,87.554,87.554,0,0,1-16.981.156A51.412,51.412,0,0,1,9.048,55.3a9.606,9.606,0,0,1-6.354-6.341A47.2,47.2,0,0,1,.585,39.2,88.793,88.793,0,0,1,.277,21.968,52,52,0,0,1,2.663,9.131,9.7,9.7,0,0,1,9.113,2.677,51.6,51.6,0,0,1,21.3.337,88.205,88.205,0,0,1,38.277.489,57.273,57.273,0,0,1,48,2.367a10.435,10.435,0,0,1,7.648,7.75A59.7,59.7,0,0,1,57.71,22.363c.156,2.219.2,4.445.29,6.668" transform="translate(1480 129)" fill="rgba(254,83,84,0.14)"/>
    <g id="Wallet" transform="translate(1497 144)">
      <circle id="Oval-47" cx="1.875" cy="1.875" r="1.875" transform="translate(21.25 13.75)" fill="#fe5354" opacity="0.3"/>
      <rect id="Rectangle-162" width="22.5" height="8.75" rx="1.25" transform="matrix(0.966, -0.259, 0.259, 0.966, 0.501, 6.811)" fill="#fe5354" opacity="0.3"/>
      <path id="Combined-Shape" d="M25,6.671a4.375,4.375,0,1,0,0,7.908V17.5A2.5,2.5,0,0,1,22.5,20H2.5A2.5,2.5,0,0,1,0,17.5V2.5A2.5,2.5,0,0,1,2.5,0h20A2.5,2.5,0,0,1,25,2.5Z" transform="translate(0 5)" fill="#fe5354"/>
    </g>
  </g>
</svg>
