<svg xmlns="http://www.w3.org/2000/svg" xmlns:xlink="http://www.w3.org/1999/xlink" width="472.392" height="539.149" viewBox="0 0 472.392 539.149">
  <defs>
    <clipPath id="clip-path">
      <path id="Clip_2" data-name="Clip 2" d="M0,0H171.667V20.607H0Z" transform="translate(0 0.605)" fill="none"/>
    </clipPath>
    <clipPath id="clip-path-2">
      <path id="Clip_9" data-name="Clip 9" d="M0,0H183.844V26.248H0Z" transform="translate(0.999 0.025)" fill="none"/>
    </clipPath>
    <clipPath id="clip-path-3">
      <path id="Clip_40" data-name="Clip 40" d="M0,532.467H421.015V0H0Z" transform="translate(0 0.88)" fill="none"/>
    </clipPath>
  </defs>
  <g id="Group_4" data-name="Group 4" transform="translate(0 -1.827)">
    <g id="Group_11" data-name="Group 11" transform="translate(0 463)" opacity="0.154">
      <g id="Group_3" data-name="Group 3" transform="translate(0 10.703)">
        <path id="Clip_2-2" data-name="Clip 2" d="M0,0H171.667V20.607H0Z" transform="translate(0 0.605)" fill="none"/>
        <g id="Group_3-2" data-name="Group 3" clip-path="url(#clip-path)">
          <path id="Fill_1" data-name="Fill 1" d="M171.668,10.3c0,5.691-38.428,10.3-85.834,10.3S0,15.995,0,10.3,38.43,0,85.834,0s85.834,4.613,85.834,10.3" transform="translate(-0.001 0.605)" fill="#2f302f"/>
        </g>
      </g>
      <path id="Fill_4" data-name="Fill 4" d="M169.234,16.971c0,9.371-37.884,16.969-84.616,16.969S0,26.342,0,16.971,37.884,0,84.618,0s84.616,7.6,84.616,16.971" transform="translate(14.609 44.035)" fill="#2f302f"/>
      <path id="Fill_6" data-name="Fill 6" d="M0,12.122C0,5.427,50.149,0,112.01,0S224.021,5.427,224.021,12.122,173.872,24.244,112.01,24.244,0,18.816,0,12.122" transform="translate(114.445 36.763)" fill="#2f302f"/>
      <g id="Group_10" data-name="Group 10" transform="translate(287.548 0.794)">
        <path id="Clip_9-2" data-name="Clip 9" d="M0,0H183.844V26.248H0Z" transform="translate(0.999 0.025)" fill="none"/>
        <g id="Group_10-2" data-name="Group 10" clip-path="url(#clip-path-2)">
          <path id="Fill_8" data-name="Fill 8" d="M183.844,13.124c0,7.249-41.155,13.125-91.921,13.125S0,20.373,0,13.124,41.155,0,91.923,0s91.921,5.876,91.921,13.124" transform="translate(0.999 0.024)" fill="#2f302f"/>
        </g>
      </g>
    </g>
    <g id="Group_100" data-name="Group 100" transform="translate(33)">
      <path id="Fill_1-2" data-name="Fill 1" d="M0,40.184H94.387V0H0Z" transform="translate(283.089 438.349)" fill="#e1d6bf"/>
      <path id="Fill_2" data-name="Fill 2" d="M0,40.184H123.546V0H0Z" transform="translate(0 440.176)" fill="#aba493"/>
      <path id="Fill_3" data-name="Fill 3" d="M31.058,0,0,12.651H123.546V0Z" transform="translate(0 427.525)" fill="#817b6e"/>
      <path id="Fill_4-2" data-name="Fill 4" d="M0,35.917H43.844V0H0Z" transform="translate(377.171 438.05)" fill="#aba493"/>
      <path id="Fill_5" data-name="Fill 5" d="M0,36.741H123.617V0H0Z" transform="translate(283.089 401.818)" fill="#e9e2cf"/>
      <path id="Fill_6-2" data-name="Fill 6" d="M0,37.955H123.617V0H0Z" transform="translate(283.089 330.372)" fill="#aba493"/>
      <path id="Fill_7" data-name="Fill 7" d="M92.559,0H0V9.938H123.617Z" transform="translate(283.089 320.432)" fill="#817b6e"/>
      <path id="Fill_8-2" data-name="Fill 8" d="M0,33.573H110.211V0H0Z" transform="translate(283.089 368.245)" fill="#e1d6bf"/>
      <g id="Group_99" data-name="Group 99" transform="translate(0 0.946)">
        <path id="Fill_9" data-name="Fill 9" d="M2.625.253A3.7,3.7,0,0,0,.913,3.107C.8,5.048,0,8.245,0,9.728s.342,6.965,11.188,6.28S19.41,9.843,19.41,8.586s-1.6-5.136-2.285-6.278S15.185-.2,13.815.025,2.625.253,2.625.253" transform="translate(348.285 310.662)" fill="#fff"/>
        <path id="Fill_11" data-name="Fill 11" d="M2.934,4.11A4.468,4.468,0,0,0,.879,5.251C-.034,6.165-.376,9.019.538,9.476a20.851,20.851,0,0,0,13.7,2.51c7.422-1.255,7.194-1.255,9.593-1.027s8.106.343,9.361-1.142.8-7.191.228-8.219S33.077,0,31.707,0,2.934,4.11,2.934,4.11" transform="translate(284.607 312.171)" fill="#fff"/>
        <path id="Fill_13" data-name="Fill 13" d="M2.3,31.927S-.742,41.668.171,48.06,48.582,56.28,48.582,56.28s3.349-1.521,2.13-8.828S45.232,35.58,40.665,32.232s-5.481-8.219-9.134-14S19.048-4.6,3.52,1.181Z" transform="translate(300.578 95.879)" fill="#2f302f"/>
        <path id="Fill_15" data-name="Fill 15" d="M.187.446s1.37,8.676,0,10.274,5.252,2.968,5.252,2.968l3.425-4.11s-.913-7.534-.913-8.9S.187.446.187.446" transform="translate(304.367 299.282)" fill="#f39763"/>
        <path id="Fill_17" data-name="Fill 17" d="M17.262.256S12.58,3,9.269,4.594s-6.05,3.081-7.879,3.2S.02,9.959.135,10.53s3.2,2.4,7.879,1.711S13.493,11.1,14.637,9.73s1.712-2.4,2.055-1.142.342,2.4,1.94,2.511,6.622.685,8.449-.685a8.992,8.992,0,0,0,2.4-2.4s.572-8.333-3.2-7.763c0,0-.342,2.625-3.88,2.853S18.974.6,18.517.256s-.685-.342-1.255,0" transform="translate(286.607 306.892)" fill="#2f302f"/>
        <path id="Fill_19" data-name="Fill 19" d="M0,1.271S1.37,7.436,1.027,8.577s6.737.913,6.737.913S6.966,1.158,6.622.244,0,1.271,0,1.271" transform="translate(351.824 300.626)" fill="#f39763"/>
        <path id="Fill_21" data-name="Fill 21" d="M5.659.376S2.006.148,1.206,1.061.521,6.084.636,7.682s-1.485,3.538,0,5.136,4.225,2.627,5.594,2.055,1.942-2.168,4-1.483,1.827,1.6,3.539,1.027,3.084-2.625,2.512-5.365S13.2,3.344,12.625,1.974,11.14-.65,5.659.376" transform="translate(349.818 307.686)" fill="#2f302f"/>
        <path id="Fill_23" data-name="Fill 23" d="M11.211,3.425S.479,29.224.022,48.86,6.416,101.372,6.644,103.2s6.851,5.023,14.843,2.055c0,0,5.024-17.124,5.252-26.941S24.227,57.992,25.6,53.654s4.567-20.777,5.481-20.092,5.937,27.17,7.536,32.193,9.819,37.9,13.473,40.869,5.937,2.283,5.937,2.283l7.079-2.055s3.2.685,4.567-7.534.228-21.005-2.055-27.626S59.851,49.316,59.623,44.75A320.857,320.857,0,0,0,54.6,12.1,22.648,22.648,0,0,0,46.835.228L27.424,0Z" transform="translate(293.8 194.931)" fill="#2f302f"/>
        <path id="Fill_25" data-name="Fill 25" d="M70.333,1.682S64.4,5.64,61.5,6.7,36.994,12.033,19.944,22.992.152,34.864.152,36.081,0,45.518,0,45.518s18.268,1.521,26.032-.152S55.11,35.929,55.11,35.929s-1.219,19.33,1.065,24.353,13.7,8.829,23.749,7.916,18.725-2.893,21.77-8.676,2.13-10.5,1.978-12.634S88.6,2.29,88.6,2.29A16.8,16.8,0,0,0,79.162.007Z" transform="translate(241.985 133.887)" fill="#e3dac3"/>
        <path id="Fill_27" data-name="Fill 27" d="M48.888,28.837c.152,2.132,1.065,6.849-1.978,12.634s-11.723,7.763-21.77,8.676S3.673,47.254,1.39,42.231.325,17.877.325,17.877L6.642,3.722A14.416,14.416,0,0,0,9.839.754c1.142-1.6,3.425-.228,5.024.228s.685,7.534,7.764,9.133,12.1-4.795,12.56-7.078,13.7,25.8,13.7,25.8" transform="translate(296.77 151.939)" fill="#2f302f"/>
        <path id="Fill_29" data-name="Fill 29" d="M0,4.072s1.978,7.914,1.978,9.741c0,0,6.242,1.675,10.2-2.586,0,0-4.721-10.2-4.872-11.113S0,4.072,0,4.072" transform="translate(310.491 126.321)" fill="#d58558"/>
        <path id="Fill_31" data-name="Fill 31" d="M17.857,20.243s2.435,4.718-1.37,8.524S4,35.464,2.024,37.444-.717,45.358.807,49.62s9.894,7.916,20.7,5.48,21.16-14.156,22.835-18.874-1.978-18.265-8.221-24.2S32.623,1.673,15.117,0c0,0-1.37,8.523-1.065,10.959s3.805,9.284,3.805,9.284" transform="translate(313.186 134.808)" fill="#e3dac3"/>
        <path id="Fill_33" data-name="Fill 33" d="M0,14.156A34.25,34.25,0,0,1,1.675,20.7c.152,2.283,2.435,5.328,5.024,6.546s4.567,2.13,6.24,1.978,5.786-1.37,6.7-2.283,4.567-5.48,3.5-11.264c0,0,4.377-1.863,3.92-4.756s-1.675-2.93-3.2-2.625a3.616,3.616,0,0,0-2.247,2.055L16.593,2.588,8.526,0,3.5,1.675Z" transform="translate(297.703 102.387)" fill="#f39763"/>
        <path id="Fill_35" data-name="Fill 35" d="M12.117.115S6.942-1.1,3.9,4.377-.976,13.358.548,15.946s2.892,5.326,5.481,4.566,5.632-5.48,5.937-10.046c0,0,6.24,5.631,10.808,5.936s4.567-.61,5.329-1.067,2.74-4.566,2.74-4.566S24.6,1.79,24.143,1.79,12.117.115,12.117.115" transform="translate(291.98 96.944)" fill="#2f302f"/>
        <path id="Fill_37" data-name="Fill 37" d="M0,.707.913,7.1s1.37,1.483,3.2-.57L1.483.25A.892.892,0,0,0,0,.707" transform="translate(305.468 116.026)" fill="#b8724a"/>
        <path id="Clip_40-2" data-name="Clip 40" d="M0,532.467H421.015V0H0Z" transform="translate(0 0.88)" fill="none"/>
        <g id="Group_99-2" data-name="Group 99" clip-path="url(#clip-path-3)">
          <path id="Fill_39" data-name="Fill 39" d="M0,48.493H174.768V0H0Z" transform="translate(118.673 465.016)" fill="#ffba53"/>
          <path id="Fill_41" data-name="Fill 41" d="M156.5,0H18.27L0,13.279H174.768Z" transform="translate(118.673 451.739)" fill="#cc8c3c"/>
          <path id="Fill_42" data-name="Fill 42" d="M0,48.491H174.768V0H0Z" transform="translate(118.673 368.205)" fill="#00aea5"/>
          <path id="Fill_43" data-name="Fill 43" d="M156.5,0H18.27L0,9.951H174.768Z" transform="translate(118.673 358.254)" fill="#00837b"/>
          <path id="Fill_44" data-name="Fill 44" d="M0,44.472H174.768V0H0Z" transform="translate(118.673 280.252)" fill="#6066a4"/>
          <path id="Fill_45" data-name="Fill 45" d="M156.5,0H18.27L0,9.1H174.768Z" transform="translate(118.673 271.148)" fill="#474c7b"/>
          <path id="Fill_46" data-name="Fill 46" d="M0,44.363H174.768V0H0Z" transform="translate(118.673 195.439)" fill="#fe6138"/>
          <path id="Fill_47" data-name="Fill 47" d="M156.5,0H18.27L0,9.1H174.768Z" transform="translate(118.673 186.336)" fill="#c04728"/>
          <path id="Fill_48" data-name="Fill 48" d="M0,45.02H174.768V0H0Z" transform="translate(116.847 109.588)" fill="#ffba53"/>
          <path id="Fill_49" data-name="Fill 49" d="M156.5,0H18.27L0,9.1H174.768Z" transform="translate(116.846 100.484)" fill="#cc8c3c"/>
          <path id="Fill_50" data-name="Fill 50" d="M0,48.491H64.78V0H0Z" transform="translate(115.02 416.526)" fill="#6066a4"/>
          <path id="Fill_51" data-name="Fill 51" d="M0,48.491,13.668,35.212V0H0Z" transform="translate(179.799 416.526)" fill="#474c7b"/>
          <path id="Fill_52" data-name="Fill 52" d="M0,48.491H64.78V0H0Z" transform="translate(232.316 416.526)" fill="#fe6138"/>
          <path id="Fill_53" data-name="Fill 53" d="M13.668,48.491,0,35.212V0H13.668Z" transform="translate(218.647 416.526)" fill="#c04728"/>
          <path id="Fill_54" data-name="Fill 54" d="M0,43.59H54.77V0H0Z" transform="translate(73.874 324.615)" fill="#fe6138"/>
          <path id="Fill_55" data-name="Fill 55" d="M0,43.59l13.668-9.934V0H0Z" transform="translate(128.644 324.615)" fill="#c04728"/>
          <path id="Fill_56" data-name="Fill 56" d="M0,43.59H64.78V0H0Z" transform="translate(232.316 324.615)" fill="#ffba53"/>
          <path id="Fill_57" data-name="Fill 57" d="M13.668,43.59,0,33.656V0H13.668Z" transform="translate(218.647 324.615)" fill="#cc8c3c"/>
          <path id="Fill_58" data-name="Fill 58" d="M0,41H64.78V0H0Z" transform="translate(115.02 239.528)" fill="#ffba53"/>
          <path id="Fill_59" data-name="Fill 59" d="M0,41l13.668-9.726V0H0Z" transform="translate(179.799 239.528)" fill="#cc8c3c"/>
          <path id="Fill_60" data-name="Fill 60" d="M0,41H64.78V0H0Z" transform="translate(232.316 239.528)" fill="#00aea5"/>
          <path id="Fill_61" data-name="Fill 61" d="M13.668,41,0,31.272V0H13.668Z" transform="translate(218.647 239.528)" fill="#00837b"/>
          <path id="Fill_62" data-name="Fill 62" d="M0,41H64.78V0H0Z" transform="translate(115.02 154.442)" fill="#00aea5"/>
          <path id="Fill_63" data-name="Fill 63" d="M0,41l13.668-9.726V0H0Z" transform="translate(179.799 154.442)" fill="#00837b"/>
          <path id="Fill_64" data-name="Fill 64" d="M0,41H64.78V0H0Z" transform="translate(245.103 154.442)" fill="#6066a4"/>
          <path id="Fill_65" data-name="Fill 65" d="M13.668,41,0,31.272V0H13.668Z" transform="translate(231.435 154.442)" fill="#474c7b"/>
          <path id="Fill_66" data-name="Fill 66" d="M5.05.378A6.587,6.587,0,0,0,.019,6.623c-.174,5.2.868,6.243,2.777,7.458s7.459,1.735,8.153,1.388,3.469-5.724,2.081-8.152S8,4.022,8,4.022s2.95-.522,2.777-2.082S10.255-.143,9.213.032A40.7,40.7,0,0,1,5.05.378" transform="translate(226.745 164.228)" fill="#f39763"/>
          <path id="Fill_67" data-name="Fill 67" d="M24.821,4.411H19.035C17.36,4.411,12.946.3,11.879.149S9.139-.307,9.9.909A31.276,31.276,0,0,0,13.86,4.867s-4.721-.152-6.7-.457S2.594,3.041,1.68,3.954-.909,7.3.615,8.825,9.444,13.392,13.1,13.543s12.331-2.74,12.94-4.261.153-5.023-1.217-4.871" transform="translate(290.086 174.082)" fill="#f39763"/>
          <path id="Fill_68" data-name="Fill 68" d="M5.451,1.857s1.827,0-3.425,7.763S3.4,37.7,3.4,37.7l42.017-.457-6.027-22.81L35.822.943A90.005,90.005,0,0,0,22.806.03C17.782.259,5.451,1.857,5.451,1.857" transform="translate(147.704 36.449)" fill="#e3dac3"/>
          <path id="Fill_69" data-name="Fill 69" d="M39.386,4.817l6.027,22.81L3.4,28.083S-3.227,7.763,2.025,0c0,0,0,13.471,5.481,15.982s14.843,2.283,22.15.457,9.73-11.622,9.73-11.622" transform="translate(147.704 46.068)" fill="#2f302f"/>
          <path id="Fill_70" data-name="Fill 70" d="M0,2.418.126,6.745s4.456,5.217,14.255-.763L13.491,0Z" transform="translate(159.786 32.828)" fill="#d58558"/>
          <path id="Fill_71" data-name="Fill 71" d="M0,2.418.638,15.4l4.454,5.98,11.962-.89L20.362,15.4l.382-7.763L19.6,0H4.71Z" transform="translate(156.095 10.688)" fill="#f39763"/>
          <path id="Fill_72" data-name="Fill 72" d="M12.477,37.42c-3.731,0-6.523-.961-8.3-2.857-2.73-2.911-2.451-7.244-2.3-9.571.017-.259.031-.482.039-.676.124-2.886-.5-12.375-.508-12.47l-.008,0a.86.86,0,0,1-.114.007C.933,11.854.105,11.667,0,9.937A8.447,8.447,0,0,1,1.643,5.5a13.042,13.042,0,0,1,4.6-4.342A10.33,10.33,0,0,1,11.224,0a21.5,21.5,0,0,1,3.055.261A10.472,10.472,0,0,0,15.53.393a11.088,11.088,0,0,1,6.619,2.034,10.02,10.02,0,0,1,4.072,8.4c0,1.12.062,2.4.134,3.893.127,2.638.286,5.921.12,9.467-.112,2.414-.494,5.939-2.513,8.668a10.144,10.144,0,0,1-4.18,3.266A18.357,18.357,0,0,1,12.477,37.42Zm-8.272-25.7h0l.129,1.78c0,.106-.119,10.575.635,11.58a5.69,5.69,0,0,1,.35.571c.7,1.241,2.011,3.55,6.581,3.551.388,0,.8-.017,1.215-.05,7.311-.574,9.039-3.356,9.418-4.963a26.022,26.022,0,0,0,.508-5.727c0-1.13-1.512-7.317-1.527-7.379a3.623,3.623,0,0,1-1.352,1.591c-1.03.754-3.046,1.709-6.794,1.972-.486.034-.966.052-1.426.052a11.3,11.3,0,0,1-6.148-1.489A4.88,4.88,0,0,1,4.205,11.718Z" transform="translate(152.654 0.88)" fill="#2f302f"/>
          <path id="Fill_73" data-name="Fill 73" d="M6.617,3.253S4.326-.564,2.035.071A2.882,2.882,0,0,0,1.017,5.034c1.653,1.4,5.725,1.655,5.725,1.655Z" transform="translate(148.588 14.689)" fill="#f39763"/>
          <path id="Fill_74" data-name="Fill 74" d="M.126,2.563,0,7.016S6.363,5.109,5.981,1.927,2.035-.11.126,2.563" transform="translate(177.985 14.361)" fill="#f39763"/>
          <path id="Fill_75" data-name="Fill 75" d="M.128.544,0,5.889a1.509,1.509,0,0,0,2.545,0L1.909.417S.764-.6.128.544" transform="translate(164.495 20.706)" fill="#b8724a"/>
          <path id="Fill_76" data-name="Fill 76" d="M34.1,0S15.149,1.142,9.9,19.407,4.416,41.1,1.676,44.065-.836,54.339,5.329,55.938s9.819-4.795,9.819-4.795L28.393,24.886S34.1,3.881,34.1,0" transform="translate(119.51 38.306)" fill="#e3dac3"/>
          <path id="Fill_77" data-name="Fill 77" d="M0,41H64.778V0H0Z" transform="translate(135.117 68.59)" fill="#fe6138"/>
          <path id="Fill_78" data-name="Fill 78" d="M0,41l13.668-9.726V0H0Z" transform="translate(199.894 68.59)" fill="#c04728"/>
          <path id="Fill_79" data-name="Fill 79" d="M1.592,3.723S-1.833,7.6,1.364,13.769s17.127,1.37,18.04-.228,2.512-5.251.685-6.621-5.709-1.37-7.764-1.6,3.129-2.179,4.339-2.968C17.977,1.5,18.034-.386,15.75.07S7.3.755,1.592,3.723" transform="translate(125.758 84.356)" fill="#f39763"/>
          <path id="Fill_80" data-name="Fill 80" d="M0,.023S16.136-1.5,33.491,20.115,22.835,58.777,19.485,59.994s-8.221,1.827-9.134.913c0,0-1.217-7.306-5.784-6.7,0,0,1.217-11.113,6.546-17.58s-2.589-12.862-5.937-15.6S0,.023,0,.023" transform="translate(182.004 37.065)" fill="#e3dac3"/>
          <path id="Fill_81" data-name="Fill 81" d="M18.268.913s-.685,2.511-2.284,2.511S8.221,2.511,6.851,3.2,4.8,5.251,6.166,5.48s6.394.685,6.394.685A47.392,47.392,0,0,1,4.567,9.133C1.37,9.818,0,10.274,0,13.7s1.827,4.566,8.221,5.023S20.552,15.754,21.694,13.7a12.681,12.681,0,0,0,1.293-4.718l1.675-5.556L21.009,0Z" transform="translate(169.368 88.992)" fill="#f39763"/>
          <path id="Fill_82" data-name="Fill 82" d="M4.1,0S1.587,2.968.217,4.795s4.11,5.48,6.166,5.936a11.25,11.25,0,0,0,3.654.228,4.024,4.024,0,0,0,1.827,3.2C13.69,15.3,28.533,21.69,31.5,21.005s2.284-5.936,2.284-5.936L23.966,9.133,16.2,2.968Z" transform="translate(21.862 512.291)" fill="#fff"/>
          <path id="Fill_83" data-name="Fill 83" d="M3.035,1.827S.523,4.11.294,5.708-.619,9.361,1.436,10.5s7.536,2.055,9.819.913,2.055-3.653,3.425-2.283.457,2.968,2.74,2.968,16.213,1.6,19.182-.685,2.284-5.936,1.37-6.849-17.127-1.6-17.127-1.6L11.712,0Z" transform="translate(60.605 519.14)" fill="#fff"/>
          <path id="Fill_84" data-name="Fill 84" d="M.228,10.731s2.055,1.142,3.425-2.968S6.622,0,8.221,0s0,7.306,0,7.306,2.969.685,3.882-.228,2.284-3.425,3.654-3.2,3.2,3.653,1.827,9.133-5.252,5.708-7.992,6.393-9.591,0-9.591,0Z" transform="translate(117.075 338.085)" fill="#f39763"/>
          <path id="Fill_85" data-name="Fill 85" d="M1.522,8.09S5.784,5.2,4.87,2,2.13.176,1.37,1.089A11.525,11.525,0,0,0,0,3.372Z" transform="translate(92.489 289.278)" fill="#f39763"/>
          <path id="Fill_86" data-name="Fill 86" d="M6.795,24.81S1.009,23.591.4,19.635s-.61-14.612.608-16.744A7.179,7.179,0,0,1,3.9,0L14.1,22.832Z" transform="translate(66.056 281.54)" fill="#2f302f"/>
          <path id="Fill_87" data-name="Fill 87" d="M3.415,0S.978,8.524.064,8.829s8.221,3.956,8.221,3.956,2.437-8.523,3.35-10.654S3.415,0,3.415,0" transform="translate(31.529 500.113)" fill="#f39763"/>
          <path id="Fill_88" data-name="Fill 88" d="M8.017,0S2.841,1.521,1.928,4.261-.813,8.828.406,10.654A7.135,7.135,0,0,0,5.886,14c2.13,0,3.044-3.653,4.567-.913s-.61,3.653,1.827,5.175,9.743,4.566,14,4.871,5.481.913,6.091,0,.3-3.653-1.524-4.263-7.916-4.566-9.743-8.828a27.391,27.391,0,0,0-3.959-6.7,3.775,3.775,0,0,1-4.262,1.218C10.148,3.653,8.017,0,8.017,0" transform="translate(24.49 504.985)" fill="#2f302f"/>
          <path id="Fill_89" data-name="Fill 89" d="M0,2.283s.685,7.991.457,8.676,5.252,2.055,7.764-.228L6.622,0Z" transform="translate(65.695 501.103)" fill="#f39763"/>
          <path id="Fill_90" data-name="Fill 90" d="M2.157,1.142A26.881,26.881,0,0,0,.1,8.9a53.1,53.1,0,0,0,0,6.621s7.307,1.827,9.591.685S11.519,13.7,12.661,13.7s.228,2.055,2.512,2.511a129.214,129.214,0,0,0,17.812.913c4.8-.228,2.969-6.393,1.142-6.393s-6.394.685-10.961-2.283S14.716.685,11.063,0A7.6,7.6,0,0,1,3.755.685Z" transform="translate(62.396 509.094)" fill="#2f302f"/>
          <path id="Fill_91" data-name="Fill 91" d="M5.032,0S-1.057,11.569.161,25.268s14,40.792,14.615,42.618-3.045,6.088-3.654,8.524S9.9,98.633,7.163,108.07,2.6,127.554,3.51,129.075a15,15,0,0,0,9.134,3.653s3.959-.608,7.916-6.393c0,0,5.786-8.219,7.307-13.394l5.481,20.7s8.221.913,12.788-2.132c0,0-1.217-29.528.61-45.053s.913-19.179.913-27.7S39.133,11.569,37,6.7,5.032,0,5.032,0" transform="translate(30.215 372.256)" fill="#2f302f"/>
          <path id="Fill_92" data-name="Fill 92" d="M6.091,1.142s7.307,51.446,4.87,60.579S0,94.3,0,94.3l3.959,14.612S9.744,94.6,12.485,86.989s4.262-29.835,3.044-39.88-7-44.445-7.611-45.966-2.132-1.523-1.827,0" transform="translate(58.082 390.902)"/>
          <path id="Fill_93" data-name="Fill 93" d="M0,10.5S3.2,2.968,3.2,0l9.134,7.991s-3.425,5.48-3.882,6.621S0,10.5,0,10.5" transform="translate(68.892 303.153)" fill="#d58558"/>
          <path id="Fill_94" data-name="Fill 94" d="M6.663,13.7s.305,5.783,3.807,9.284A16.149,16.149,0,0,0,21.126,27.4c2.284,0,4.719.152,7.307-1.98s2.589-5.48,2.284-8.066-1.219-4.871-1.37-6.546L27.825,3.043,16.254,0l-6.24.152L8.643,8.066S3.466,2.74.574,6.544,6.663,13.7,6.663,13.7" transform="translate(64.664 286.562)" fill="#f39763"/>
          <path id="Fill_95" data-name="Fill 95" d="M5.231,14.866s1.827,5.48,1.827,6.7-.457,1.978,1.37,1.827,2.13-1.98,1.978-4.263,0-7.306,0-7.306,5.632,5.48,7.916,5.48,2.437-2.586,2.437-2.586a2.642,2.642,0,0,0,3.349,1.827c2.589-.762,4.262-1.827,2.284-6.546S22.586.71,16.5.1,2.337,1.624.359,6.19s4.872,8.676,4.872,8.676" transform="translate(67.163 277.328)" fill="#2f302f"/>
          <path id="Fill_96" data-name="Fill 96" d="M0,.822.994,5.67S2.735,7.038,3.73,5.3L2.114.325s-1-1-2.114.5" transform="translate(88.302 298.037)" fill="#b8724a"/>
          <path id="Fill_97" data-name="Fill 97" d="M40.649.472s-10.5-2.283-16.747,3.2-11.418,24.2-13.245,27.7-7,16.439-9.286,19.33S-.3,57.4,2.893,60.139,20.4,70.185,31.666,68.662,44.217,57.209,44.26,56.391s.042-7.211.042-7.211,5.024,4.718,17.507,3.2,25.729-1.98,26.946-7.155,1.524-9.438-1.978-10.654S61.506,24.978,56.939,24.217a14.822,14.822,0,0,0-7.918.762s3.35-1.523,3.654-2.132-1.37,0-.76-1.37.913-4.718.457-9.133S47.8,4.276,45.521,3.06,41.105.32,40.649.472" transform="translate(29.613 311.814)" fill="#e3dac3"/>
          <path id="Fill_98" data-name="Fill 98" d="M4.341,0a29.191,29.191,0,0,0,1.98,19.179c4.719,9.894,14.766,13.547,14.766,13.547s.762,9.741-2.132,13.089a25.65,25.65,0,0,1-5.024-5.48C10.888,36.226.84,29.376.079,20.548S4.341,0,4.341,0" transform="translate(52.828 328.268)" fill="#2f302f"/>
        </g>
      </g>
    </g>
  </g>
</svg>
