<svg xmlns="http://www.w3.org/2000/svg" xmlns:xlink="http://www.w3.org/1999/xlink" width="106.717" height="105.36" viewBox="0 0 106.717 105.36">
  <defs>
    <style>
      .cls-1 {
        fill: none;
      }

      .cls-2 {
        opacity: 0.512;
      }

      .cls-3 {
        clip-path: url(#clip-path);
      }

      .cls-4 {
        fill: url(#linear-gradient);
      }

      .cls-5 {
        clip-path: url(#clip-path-2);
      }
    </style>
    <clipPath id="clip-path">
      <path id="Clip_205" data-name="Clip 205" class="cls-1" d="M24.883.959c7.7,2.222,13.9,7.636,20.372,12.2,4.261,3,8.962,4.784,13.677,6.959,11.988,5.529,23.91,14.245,21.538,27.641C78.493,58.918,66.051,70.169,52.4,69.749a21.86,21.86,0,0,1-12.146-4.315c-2.078-1.468-4.055-3.743-6.937-4.121-3.039-.4-6.377,1.348-9.139,2.405-4.112,1.575-8.441,3.214-12.9,3.341C1.061,67.353-1.143,60.268.484,51.553c.791-4.236,2.193-8.328,3.238-12.5,1.482-5.921.69-11.265-.237-17.215-.826-5.3-1.134-11.127,1.843-15.6C8.7,1.157,15.586-.71,21.64.238a26.429,26.429,0,0,1,3.242.721"/>
    </clipPath>
    <linearGradient id="linear-gradient" x1="0.5" x2="0.5" y2="1" gradientUnits="objectBoundingBox">
      <stop offset="0" stop-color="#ffce00"/>
      <stop offset="1" stop-color="#ffa000"/>
    </linearGradient>
    <clipPath id="clip-path-2">
      <path id="Clip_205-2" data-name="Clip 205" class="cls-1" d="M24.953.962c7.725,2.23,13.94,7.662,20.429,12.237,4.273,3.012,8.987,4.8,13.716,6.982C71.118,25.73,83.074,34.476,80.7,47.918c-1.982,11.2-14.459,22.492-28.144,22.07a21.913,21.913,0,0,1-12.18-4.329c-2.084-1.473-4.067-3.756-6.957-4.135-3.048-.4-6.395,1.353-9.165,2.414-4.123,1.58-8.465,3.225-12.934,3.353C1.064,67.584-1.147,60.474.485,51.73c.793-4.251,2.2-8.356,3.247-12.546,1.486-5.942.692-11.3-.238-17.274C2.666,16.594,2.357,10.745,5.342,6.255,8.729,1.161,15.63-.713,21.7.238a26.49,26.49,0,0,1,3.252.724"/>
    </clipPath>
  </defs>
  <g id="Group_7" data-name="Group 7" transform="translate(-0.641 -0.32)">
    <g id="Group_206" data-name="Group 206" class="cls-2" transform="translate(45.483 0.32) rotate(40)">
      <path id="Clip_205-3" data-name="Clip 205" class="cls-1" d="M24.883.959c7.7,2.222,13.9,7.636,20.372,12.2,4.261,3,8.962,4.784,13.677,6.959,11.988,5.529,23.91,14.245,21.538,27.641C78.493,58.918,66.051,70.169,52.4,69.749a21.86,21.86,0,0,1-12.146-4.315c-2.078-1.468-4.055-3.743-6.937-4.121-3.039-.4-6.377,1.348-9.139,2.405-4.112,1.575-8.441,3.214-12.9,3.341C1.061,67.353-1.143,60.268.484,51.553c.791-4.236,2.193-8.328,3.238-12.5,1.482-5.921.69-11.265-.237-17.215-.826-5.3-1.134-11.127,1.843-15.6C8.7,1.157,15.586-.71,21.64.238a26.429,26.429,0,0,1,3.242.721"/>
      <g id="Group_206-2" data-name="Group 206" class="cls-3">
        <path id="Fill_204" data-name="Fill 204" class="cls-4" d="M24.883.959c7.7,2.222,13.9,7.636,20.372,12.2,4.261,3,8.962,4.784,13.677,6.959,11.988,5.529,23.91,14.245,21.538,27.641C78.493,58.918,66.051,70.169,52.4,69.749a21.86,21.86,0,0,1-12.146-4.315c-2.078-1.468-4.055-3.743-6.937-4.121-3.039-.4-6.377,1.348-9.139,2.405-4.112,1.575-8.441,3.214-12.9,3.341C1.061,67.353-1.143,60.268.484,51.553c.791-4.236,2.193-8.328,3.238-12.5,1.482-5.921.69-11.265-.237-17.215-.826-5.3-1.134-11.127,1.843-15.6C8.7,1.157,15.586-.71,21.64.238a26.429,26.429,0,0,1,3.242.721"/>
      </g>
    </g>
    <g id="Group_206-3" data-name="Group 206" transform="translate(14 18)">
      <path id="Clip_205-4" data-name="Clip 205" class="cls-1" d="M24.953.962c7.725,2.23,13.94,7.662,20.429,12.237,4.273,3.012,8.987,4.8,13.716,6.982C71.118,25.73,83.074,34.476,80.7,47.918c-1.982,11.2-14.459,22.492-28.144,22.07a21.913,21.913,0,0,1-12.18-4.329c-2.084-1.473-4.067-3.756-6.957-4.135-3.048-.4-6.395,1.353-9.165,2.414-4.123,1.58-8.465,3.225-12.934,3.353C1.064,67.584-1.147,60.474.485,51.73c.793-4.251,2.2-8.356,3.247-12.546,1.486-5.942.692-11.3-.238-17.274C2.666,16.594,2.357,10.745,5.342,6.255,8.729,1.161,15.63-.713,21.7.238a26.49,26.49,0,0,1,3.252.724"/>
      <g id="Group_206-4" data-name="Group 206" class="cls-5">
        <path id="Fill_204-2" data-name="Fill 204" class="cls-4" d="M24.953.962c7.725,2.23,13.94,7.662,20.429,12.237,4.273,3.012,8.987,4.8,13.716,6.982C71.118,25.73,83.074,34.476,80.7,47.918c-1.982,11.2-14.459,22.492-28.144,22.07a21.913,21.913,0,0,1-12.18-4.329c-2.084-1.473-4.067-3.756-6.957-4.135-3.048-.4-6.395,1.353-9.165,2.414-4.123,1.58-8.465,3.225-12.934,3.353C1.064,67.584-1.147,60.474.485,51.73c.793-4.251,2.2-8.356,3.247-12.546,1.486-5.942.692-11.3-.238-17.274C2.666,16.594,2.357,10.745,5.342,6.255,8.729,1.161,15.63-.713,21.7.238a26.49,26.49,0,0,1,3.252.724"/>
      </g>
    </g>
  </g>
</svg>
