<svg xmlns="http://www.w3.org/2000/svg" width="1172.603" height="675.002" viewBox="0 0 1172.603 675.002">
  <defs>
    <style>
      .cls-1 {
        stroke: rgba(0,0,0,0);
      }
    </style>
  </defs>
  <path id="Subtraction_1" data-name="Subtraction 1" class="cls-1" d="M1171.519,674,0,674V167.463c.483-.38.984-.756,1.469-1.12a33.943,33.943,0,0,0,3.7-3.069c21.117-20.006,41.214-37.459,61.438-53.357C77.447,101.4,88.424,93.268,99.237,85.745c11.293-7.856,22.79-15.312,34.172-22.161,12.484-7.493,24.952-14.372,37.059-20.446,12.822-6.433,25.718-12.2,38.33-17.153A400,400,0,0,1,248.607,12.69,363.861,363.861,0,0,1,290.1,3.82c4.565-.679,9.162-1.3,13.608-1.909S312.759.679,317.325,0h41.76c.451.123.91.276,1.354.424a12.384,12.384,0,0,0,2.711.685A302.919,302.919,0,0,1,398.525,6.04a308.166,308.166,0,0,1,34.117,8.917A327.926,327.926,0,0,1,465.58,27.639c10.624,4.755,21.337,10.215,31.842,16.229A429.725,429.725,0,0,1,535.8,68.7c11.952,8.662,23.846,18.207,35.35,28.369,10.99,9.707,21.982,20.294,32.671,31.465,10.138,10.6,20.345,22.076,30.338,34.122,15.459,18.668,30.771,37.931,45.578,56.559s30.118,37.891,45.58,56.562c69.019,83.6,135.948,155.1,204.611,218.6,39.111,36.186,75.819,67.228,112.221,94.9,19.909,15.133,40.015,29.444,59.76,42.534,20.789,13.782,41.921,26.705,62.809,38.41,2.26,1.267,4.549,2.538,6.8,3.777Z" transform="translate(0.5 0.5)"/>
</svg>
