<svg xmlns="http://www.w3.org/2000/svg" width="58" height="58" viewBox="0 0 58 58">
  <g id="Group_15" data-name="Group 15" transform="translate(-1140 -131)">
    <g id="Group_16" data-name="Group 16" transform="translate(1140 131)">
      <path id="Fill_1_Copy_3" data-name="Fill 1 Copy 3" d="M58,29.031a73.038,73.038,0,0,1-1.906,17.19c-.261,1.021-.625,2.017-.955,3.02a9.181,9.181,0,0,1-6.058,6,47.065,47.065,0,0,1-10.792,2.266,87.554,87.554,0,0,1-16.981.156A51.412,51.412,0,0,1,9.048,55.3a9.606,9.606,0,0,1-6.354-6.341A47.2,47.2,0,0,1,.585,39.2,88.793,88.793,0,0,1,.277,21.968,52,52,0,0,1,2.663,9.131,9.7,9.7,0,0,1,9.113,2.677,51.6,51.6,0,0,1,21.3.337,88.205,88.205,0,0,1,38.277.489,57.273,57.273,0,0,1,48,2.367a10.435,10.435,0,0,1,7.648,7.75A59.7,59.7,0,0,1,57.71,22.363c.156,2.219.2,4.445.29,6.668" fill="rgba(0,193,212,0.1)"/>
    </g>
    <g id="Stockholm-icons-_-General-_-User" data-name="Stockholm-icons-/-General-/-User" transform="translate(1154.5 144.5)">
      <path id="Shape" d="M0,0H29.075V29.075H0Z" fill="none" fill-rule="evenodd"/>
      <path id="Mask" d="M12.846,12.692a4.846,4.846,0,1,1,4.846-4.846A4.846,4.846,0,0,1,12.846,12.692Z" transform="translate(1.692 0.634)" fill="#00c1d4" opacity="0.3"/>
      <path id="Mask-Copy" d="M3,21.722C3.47,15.94,8.163,13,13.883,13c5.8,0,10.566,2.778,10.921,8.722a.832.832,0,0,1-.91.969H3.881A1.341,1.341,0,0,1,3,21.722Z" transform="translate(0.634 2.749)" fill="#00c1d4"/>
    </g>
  </g>
</svg>
