<svg xmlns="http://www.w3.org/2000/svg" width="58" height="58" viewBox="0 0 58 58">
  <g id="Group_13" data-name="Group 13" transform="translate(-471 -131)">
    <path id="Fill_1_Copy" data-name="Fill 1 Copy" d="M58,29.031a73.038,73.038,0,0,1-1.906,17.19c-.261,1.021-.625,2.017-.955,3.02a9.181,9.181,0,0,1-6.058,6,47.065,47.065,0,0,1-10.792,2.266,87.554,87.554,0,0,1-16.981.156A51.412,51.412,0,0,1,9.048,55.3a9.606,9.606,0,0,1-6.354-6.341A47.2,47.2,0,0,1,.585,39.2,88.793,88.793,0,0,1,.277,21.968,52,52,0,0,1,2.663,9.131,9.7,9.7,0,0,1,9.113,2.677,51.6,51.6,0,0,1,21.3.337,88.205,88.205,0,0,1,38.277.489,57.273,57.273,0,0,1,48,2.367a10.435,10.435,0,0,1,7.648,7.75A59.7,59.7,0,0,1,57.71,22.363c.156,2.219.2,4.445.29,6.668" transform="translate(471 131)" fill="rgba(12,193,100,0.09)"/>
    <g id="Stockholm-icons-_-Home-_-Chair_2" data-name="Stockholm-icons-/-Home-/-Chair#2" transform="translate(488.5 150.5)">
      <rect id="bound" width="24" height="24" fill="none"/>
      <path id="Combined-Shape" d="M6.542,21.5l1.6-5.964a1,1,0,1,1,1.931.518l-1.6,5.964A1,1,0,0,1,6.542,21.5Zm10.908-.03a1,1,0,0,1-1.932.518l-1.3-4.863a1,1,0,0,1,1.932-.517Z" fill="#0cc164" opacity="0.3" style="isolation: isolate"/>
      <path id="Combined-Shape-2" data-name="Combined-Shape" d="M7.361,1h9.278a2,2,0,0,1,1.973,2.329L17.07,12.582a.5.5,0,0,1-.494.418H7.424a.5.5,0,0,1-.494-.418L5.388,3.329A2,2,0,0,1,7.361,1ZM5.5,14h13a1.5,1.5,0,0,1,0,3H5.5a1.5,1.5,0,0,1,0-3Z" fill="#0cc164"/>
    </g>
  </g>
</svg>
