<svg xmlns="http://www.w3.org/2000/svg" width="90" height="90" viewBox="0 0 90 90">
  <defs>
    <style>
      .cls-1 {
        opacity: 0.313;
      }
    </style>
  </defs>
  <g id="coffee-shop" class="cls-1">
    <path id="Shape" d="M82.5,90H7.5A1.5,1.5,0,0,1,6,88.5V38.671A8.226,8.226,0,0,1,0,30.75V28.5a1.546,1.546,0,0,1,.045-.213c0-.016,0-.033,0-.049a.33.33,0,0,1,0-.1l4.5-18A1.5,1.5,0,0,1,6,9H9V7.5A7.509,7.509,0,0,1,16.5,0h57A7.509,7.509,0,0,1,81,7.5V9h3a1.5,1.5,0,0,1,1.459,1.139l4.5,18a.305.305,0,0,1,0,.074.312.312,0,0,0,0,.075A1.545,1.545,0,0,1,90,28.5v2.25a8.223,8.223,0,0,1-6,7.919V88.5A1.5,1.5,0,0,1,82.5,90Zm-69-42h21A1.5,1.5,0,0,1,36,49.5V87H81l.022-48.033c-.075-.007-.152-.021-.226-.033l-.131-.021c-.1-.013-.216-.029-.336-.049a8.3,8.3,0,0,1-.976-.234l-.06-.016c-.027-.007-.054-.014-.079-.022a7.9,7.9,0,0,1-1.05-.427l-.045-.025-.222-.125a8.094,8.094,0,0,1-.734-.439l-.047-.032c-.077-.052-.15-.1-.222-.155a8.389,8.389,0,0,1-.827-.683.241.241,0,0,0-.027-.024l-.014-.011a8.419,8.419,0,0,1-.75-.84c-.045-.057-.087-.117-.128-.175l-.068-.1c-.029-.04-.058-.079-.088-.118-.054-.071-.109-.143-.157-.219-.063.087-.132.168-.2.247-.037.044-.074.088-.111.132l-.054.067,0,.006c-.062.078-.125.159-.194.235a8.653,8.653,0,0,1-.673.684c-.026.024-.051.049-.076.075s-.063.063-.1.092a8.932,8.932,0,0,1-.948.722c-.048.032-.1.06-.147.088s-.08.046-.12.071c-.279.171-.53.311-.769.427-.106.052-.215.1-.321.145l-.063.027c-.261.111-.5.2-.734.282-.135.044-.274.089-.417.128-.228.065-.477.121-.806.182l-.15.028c-.074.014-.15.029-.227.04a8.322,8.322,0,0,1-2.447,0c-.08-.011-.16-.028-.238-.044L65.9,38.83c-.319-.059-.576-.116-.808-.18-.094-.028-.181-.057-.274-.089l-.156-.052c-.244-.08-.485-.172-.717-.273-.142-.062-.283-.127-.418-.194-.255-.132-.475-.254-.673-.375-.053-.034-.105-.065-.158-.1-.071-.043-.145-.086-.215-.134-.224-.155-.453-.33-.682-.518-.086-.065-.183-.139-.271-.219a8.957,8.957,0,0,1-.851-.86c-.02-.023-.038-.048-.056-.072s-.03-.041-.046-.06a9.111,9.111,0,0,1-.559-.735,7.3,7.3,0,0,1-.49.648l-.045.055c-.02.024-.039.05-.057.076s-.041.057-.064.084a9.53,9.53,0,0,1-.85.863c-.048.043-.1.083-.15.122s-.078.06-.116.092c-.2.161-.431.349-.688.524-.09.061-.185.118-.276.172l-.1.06c-.248.152-.461.271-.67.373-.132.066-.27.13-.422.2-.216.094-.448.184-.71.273l-.075.025c-.122.041-.237.08-.362.115-.271.077-.547.132-.8.18l-.14.028c-.081.017-.164.034-.248.045a8.357,8.357,0,0,1-2.461,0c-.08-.011-.16-.028-.238-.044L50.9,38.83c-.321-.059-.578-.117-.808-.18-.092-.027-.176-.056-.266-.086l-.163-.054c-.243-.08-.484-.172-.717-.273-.137-.06-.277-.125-.418-.194-.244-.126-.471-.252-.674-.375-.054-.035-.11-.068-.164-.1-.069-.041-.14-.084-.209-.13-.224-.155-.453-.33-.682-.518l-.012-.009c-.086-.066-.176-.135-.259-.21a9.055,9.055,0,0,1-.851-.86c-.021-.024-.04-.05-.058-.075s-.028-.039-.043-.057a9.138,9.138,0,0,1-.56-.735,7.3,7.3,0,0,1-.49.648l-.045.055c-.019.023-.036.047-.054.072s-.043.06-.067.088a9.422,9.422,0,0,1-.85.863c-.05.044-.1.086-.155.125s-.075.058-.111.088c-.267.22-.479.382-.687.524-.09.06-.184.116-.274.171l-.1.062c-.247.151-.459.27-.669.373-.132.066-.275.131-.423.2-.216.094-.448.184-.71.273l-.075.025c-.122.041-.237.08-.362.115-.273.078-.56.135-.8.18l-.14.028c-.082.017-.165.034-.247.045a8.363,8.363,0,0,1-2.462,0c-.081-.011-.161-.028-.239-.044L35.9,38.83c-.318-.059-.575-.116-.809-.18-.13-.038-.257-.082-.381-.124l-.048-.016c-.244-.081-.485-.172-.716-.273-.135-.059-.276-.124-.418-.194-.253-.131-.474-.254-.674-.375-.053-.034-.107-.066-.16-.1-.07-.042-.142-.085-.211-.132-.228-.158-.457-.332-.683-.518l-.012-.009c-.086-.066-.176-.135-.259-.21a9.054,9.054,0,0,1-.85-.86c-.02-.023-.038-.049-.056-.073s-.029-.04-.045-.059c-.2-.235-.386-.482-.56-.735a7.3,7.3,0,0,1-.49.648l-.045.055c-.019.023-.036.047-.054.072s-.043.06-.067.088a9.4,9.4,0,0,1-.85.863c-.05.044-.1.084-.153.123s-.077.059-.114.09c-.267.22-.479.382-.687.524-.092.062-.187.119-.279.174l-.1.058c-.25.152-.462.271-.67.373-.132.066-.275.131-.423.2-.215.094-.447.183-.709.273l-.075.025c-.122.041-.237.08-.362.115-.275.078-.561.135-.8.18l-.14.028c-.082.017-.165.034-.247.045a8.316,8.316,0,0,1-2.446,0c-.078-.011-.156-.026-.231-.041l-.148-.028c-.319-.059-.575-.117-.806-.182-.135-.037-.268-.08-.415-.128-.251-.084-.5-.179-.735-.282l-.093-.04c-.1-.042-.2-.084-.29-.13-.27-.129-.526-.281-.766-.426-.042-.026-.084-.05-.126-.074s-.1-.056-.146-.086a9.276,9.276,0,0,1-.944-.718c-.035-.03-.067-.063-.1-.094s-.044-.045-.067-.067a8.65,8.65,0,0,1-.679-.688c-.061-.069-.119-.142-.176-.213l-.076-.1c-.037-.047-.076-.092-.115-.138-.067-.078-.135-.159-.2-.244-.051.081-.11.159-.168.234l-.081.108-.063.089c-.042.059-.084.119-.129.176a8.284,8.284,0,0,1-.75.837.241.241,0,0,1-.022.02.247.247,0,0,0-.023.021,8.5,8.5,0,0,1-.821.678c-.076.056-.155.108-.231.159l-.039.026a7.837,7.837,0,0,1-.731.438,2.625,2.625,0,0,1-.268.15,8.213,8.213,0,0,1-1.05.427l-.063.016c-.03.007-.059.014-.087.023a8.163,8.163,0,0,1-.972.233c-.106.018-.207.032-.336.049l-.134.022c-.072.013-.147.026-.221.033V87h3V49.5A1.5,1.5,0,0,1,13.5,48ZM15,51V87H33V51ZM61.5,30a5.968,5.968,0,0,0,6,6h.034a5.927,5.927,0,0,0,4.219-1.748A6.009,6.009,0,0,0,73.5,30Zm-15,0a5.968,5.968,0,0,0,6,6h.034a5.924,5.924,0,0,0,4.219-1.748A6,6,0,0,0,58.5,30Zm-15,0a5.968,5.968,0,0,0,6,6h.034a5.927,5.927,0,0,0,4.219-1.748A6,6,0,0,0,43.5,30Zm-15,0a5.968,5.968,0,0,0,6,6h.034a5.927,5.927,0,0,0,4.219-1.748A6.009,6.009,0,0,0,28.5,30Zm60,0v.751a5.08,5.08,0,0,0,.3,1.74A5.244,5.244,0,0,0,81.745,36h.026a4.334,4.334,0,0,0,.538-.033A5.241,5.241,0,0,0,87,30.75V30ZM3,30v.751a5.234,5.234,0,0,0,4.665,5.214A4.741,4.741,0,0,0,8.25,36h.015A5.24,5.24,0,0,0,13.2,32.506a5.085,5.085,0,0,0,.3-1.756V30ZM73.772,12h0l2.5,15H86.579l-3.75-15H73.772ZM60.129,12l1.249,15h11.85l-2.5-15ZM46.5,12V27H58.369L57.12,12ZM32.88,12h0L31.631,27H43.5V12ZM19.269,12l-2.5,15H28.62l1.248-15Zm-12.1,0L3.421,27H13.729l2.5-15ZM16.5,3A4.505,4.505,0,0,0,12,7.5V9H78V7.5A4.505,4.505,0,0,0,73.5,3Z" transform="translate(0)"/>
    <path id="Shape-2" data-name="Shape" d="M12.045,21H12A12.013,12.013,0,0,1,0,9V1.5A1.5,1.5,0,0,1,1.5,0h21A1.5,1.5,0,0,1,24,1.5V3a6,6,0,0,1,0,12H22.35A11.872,11.872,0,0,1,12.045,21ZM3,3V9a9.024,9.024,0,0,0,9,9h.056a8.935,8.935,0,0,0,8.069-5.143A8.823,8.823,0,0,0,21,9V3H3Zm21,9h.007A3,3,0,0,0,24,6V9a12.532,12.532,0,0,1-.089,1.444c-.011.1-.029.191-.046.282-.011.06-.022.119-.031.178-.049.3-.1.625-.182.945a.752.752,0,0,0-.016.077c0,.024-.008.048-.014.073Z" transform="translate(43.5 57)"/>
    <path id="Path" d="M0,1.5A1.5,1.5,0,0,0,1.5,3h24a1.5,1.5,0,0,0,0-3H1.5A1.5,1.5,0,0,0,0,1.5Z" transform="translate(42 78)"/>
    <path id="Path-2" data-name="Path" d="M1.5,12A1.5,1.5,0,0,0,3,10.5c0-1.43.867-2.151,2.4-3.3C7,6,9,4.5,9,1.5a1.5,1.5,0,0,0-3,0c0,1.43-.867,2.151-2.4,3.3C2,6,0,7.5,0,10.5A1.5,1.5,0,0,0,1.5,12Z" transform="translate(49.5 43.5)"/>
    <path id="Path-3" data-name="Path" d="M1.5,12A1.5,1.5,0,0,0,3,10.5c0-1.43.867-2.151,2.4-3.3C7,6,9,4.5,9,1.5a1.5,1.5,0,0,0-3,0c0,1.43-.867,2.151-2.4,3.3C2,6,0,7.5,0,10.5A1.5,1.5,0,0,0,1.5,12Z" transform="translate(57 43.5)"/>
  </g>
</svg>
