<svg xmlns="http://www.w3.org/2000/svg" width="31.977" height="28.73" viewBox="0 0 31.977 28.73">
  <defs>
    <style>
      .cls-1 {
        fill: #fff;
      }
    </style>
  </defs>
  <g id="covered-food-tray-on-a-hand-of-hotel-room-service" transform="translate(0 -0.028)">
    <path id="Path" class="cls-1" d="M1.929,14.775c.021-.342.042-.685.087-1.03A20.413,20.413,0,0,1,2.459,11.3c.111-.4.231-.794.357-1.18.161-.377.319-.751.476-1.117A9.594,9.594,0,0,1,4.52,7.062c.113-.144.224-.283.334-.423.125-.125.25-.246.37-.367a9.29,9.29,0,0,1,.729-.661,9.66,9.66,0,0,1,1.409-.951,8.226,8.226,0,0,1,1.155-.578c.666-.268,1.043-.4,1.043-.4s-.322.256-.885.67a12.384,12.384,0,0,0-.966.8A14.633,14.633,0,0,0,6.568,6.26c-.206.205-.366.464-.561.7q-.142.182-.292.367c-.081.137-.165.274-.25.414a11.662,11.662,0,0,0-.918,1.813q-.174.5-.354,1.02c-.082.358-.173.719-.272,1.079a19.507,19.507,0,0,0-.358,2.271c-.044.282-.065.566-.091.851,6.168,0,10.942,0,17.621,0,.022-.293.035-.589.035-.888A10.813,10.813,0,0,0,11.754,3.021a1.747,1.747,0,1,0-2.381,0A10.812,10.812,0,0,0,0,13.894c0,.3.011.59.033.882Z" transform="translate(8.922 0.028)"/>
    <rect id="Rectangle" class="cls-1" width="24.978" height="2.204" transform="translate(6.999 15.454)"/>
    <path id="Path-2" data-name="Path" class="cls-1" d="M16.722.778c-1.27.617-5.7,2.213-5.7,2.213L5.794,2.663S8.787,1.831,9.947,1.57A.793.793,0,0,0,9.961,0C9.318,0,3.718.231,3.718.231L0,1.57.984,7.8S1.75,6.488,2.513,6.488s7.406.177,8.307,0,6.394-3.936,7.052-4.374S18,.16,16.722.778Z" transform="translate(5 18.444)"/>
    <path id="Path-3" data-name="Path" class="cls-1" d="M0,.752V8.826L5.7,7.759,4.272,0Z" transform="translate(0 19.932)"/>
  </g>
</svg>
