<svg xmlns="http://www.w3.org/2000/svg" width="39.908" height="45.821" viewBox="0 0 39.908 45.821">
  <defs>
    <style>
      .cls-1 {
        fill: #fff;
      }
    </style>
  </defs>
  <g id="creativity" transform="translate(0 0)">
    <path id="Shape" class="cls-1" d="M10.346,26.6a2.934,2.934,0,0,1-2.653-1.677,2.936,2.936,0,0,1-4-2.758,2.893,2.893,0,0,1,.182-.986,3.713,3.713,0,0,1-2.4-3.449A3.644,3.644,0,0,1,1.9,16.055,2.971,2.971,0,0,1,0,13.3,2.935,2.935,0,0,1,1.9,10.55a3.639,3.639,0,0,1-.424-1.681,3.714,3.714,0,0,1,2.4-3.449A2.9,2.9,0,0,1,3.7,4.434a2.936,2.936,0,0,1,4-2.758,2.949,2.949,0,0,1,5.61,1.28V23.649A2.959,2.959,0,0,1,10.346,26.6ZM8.13,22.171H9.608a2.916,2.916,0,0,1-.681,1.865,1.474,1.474,0,0,0,2.9-.386V2.957a1.474,1.474,0,0,0-2.9-.387,2.917,2.917,0,0,1,.681,1.865H8.13A1.478,1.478,0,1,0,6.651,5.912V7.39a2.9,2.9,0,0,1-1.884-.7A2.215,2.215,0,1,0,7.39,8.869H8.869a3.7,3.7,0,0,1-3.7,3.694,3.645,3.645,0,0,1-2.217-.758v.019a1.478,1.478,0,1,0,0,2.956v.02a3.647,3.647,0,0,1,2.217-.759,3.7,3.7,0,0,1,3.7,3.694H7.39a2.217,2.217,0,1,0-2.623,2.176,2.909,2.909,0,0,1,1.884-.7v1.478A1.478,1.478,0,1,0,8.13,22.172Z" transform="translate(8.869 3.696)"/>
    <path id="Shape-2" data-name="Shape" class="cls-1" d="M2.957,26.6A2.959,2.959,0,0,1,0,23.649V2.957a2.949,2.949,0,0,1,5.61-1.28,2.936,2.936,0,0,1,4,2.758,2.893,2.893,0,0,1-.182.986,3.714,3.714,0,0,1,2.4,3.449A3.637,3.637,0,0,1,11.4,10.55,2.936,2.936,0,0,1,13.3,13.3a2.971,2.971,0,0,1-1.9,2.752,3.644,3.644,0,0,1,.423,1.681,3.711,3.711,0,0,1-2.4,3.449,2.9,2.9,0,0,1,.182.986,2.936,2.936,0,0,1-4,2.758A2.937,2.937,0,0,1,2.957,26.6Zm0-25.127A1.48,1.48,0,0,0,1.478,2.957V23.649a1.475,1.475,0,0,0,2.9.386A2.913,2.913,0,0,1,3.7,22.171H5.173a1.478,1.478,0,1,0,1.478-1.478V19.215a2.913,2.913,0,0,1,1.885.7,2.215,2.215,0,1,0-2.623-2.176H4.434a3.7,3.7,0,0,1,3.7-3.694,3.646,3.646,0,0,1,2.217.759v-.02a1.478,1.478,0,0,0,0-2.956v-.019a3.646,3.646,0,0,1-2.217.758,3.7,3.7,0,0,1-3.7-3.694H5.912A2.217,2.217,0,1,0,8.536,6.692a2.91,2.91,0,0,1-1.885.7V5.912A1.478,1.478,0,1,0,5.173,4.434H3.7A2.912,2.912,0,0,1,4.377,2.57,1.481,1.481,0,0,0,2.957,1.478Z" transform="translate(23.649 3.696)"/>
    <path id="Shape-3" data-name="Shape" class="cls-1" d="M17,45.821a4.439,4.439,0,0,1-4.434-4.434h-.739a.74.74,0,0,1-.739-.739V38.43H9.607V36.952h1.42a8.48,8.48,0,0,0-.317-1.478H8.129V34h1.992a7.831,7.831,0,0,0-2.556-2.861A16.917,16.917,0,0,1,.008,16.457l1.478.046a15.449,15.449,0,0,0,6.9,13.4A9.293,9.293,0,0,1,11.741,34H22.222a9.139,9.139,0,0,1,3.34-4.058A15.518,15.518,0,0,0,17,1.478c-.331,0-.668.01-1,.031L15.912.035C16.286.012,16.658,0,17.019,0A16.827,16.827,0,0,1,28.634,4.61a17,17,0,0,1-2.255,26.561A7.643,7.643,0,0,0,23.842,34h2.023v1.479H23.259a8.159,8.159,0,0,0-.3,1.478h1.426V38.43H22.91v2.218a.74.74,0,0,1-.739.739h-.739A4.44,4.44,0,0,1,17,45.821Zm-2.956-4.434a2.956,2.956,0,0,0,5.912,0ZM12.563,38.43v1.478h8.869V38.43Zm-.31-2.956h0a9.96,9.96,0,0,1,.25,1.478h8.98a9.787,9.787,0,0,1,.23-1.478H12.253Z" transform="translate(5.913 0)"/>
    <path id="Shape-4" data-name="Shape" class="cls-1" d="M4.434,8.869A.74.74,0,0,1,3.7,8.13,2.96,2.96,0,0,0,.739,5.173a.739.739,0,0,1,0-1.478A2.96,2.96,0,0,0,3.7.739a.739.739,0,0,1,1.478,0A2.96,2.96,0,0,0,8.13,3.7a.739.739,0,1,1,0,1.478A2.96,2.96,0,0,0,5.173,8.13.74.74,0,0,1,4.434,8.869Zm0-5.681A4.462,4.462,0,0,1,3.188,4.434,4.463,4.463,0,0,1,4.434,5.681,4.463,4.463,0,0,1,5.681,4.434,4.463,4.463,0,0,1,4.434,3.188Z" transform="translate(4.435 0.001)"/>
    <path id="Shape-5" data-name="Shape" class="cls-1" d="M4.434,8.869A.74.74,0,0,1,3.7,8.13,2.96,2.96,0,0,0,.739,5.173a.739.739,0,0,1,0-1.478A2.96,2.96,0,0,0,3.7.739a.739.739,0,0,1,1.478,0A2.96,2.96,0,0,0,8.13,3.7a.739.739,0,1,1,0,1.478A2.96,2.96,0,0,0,5.173,8.13.74.74,0,0,1,4.434,8.869Zm0-5.681A4.462,4.462,0,0,1,3.188,4.434,4.463,4.463,0,0,1,4.434,5.681,4.463,4.463,0,0,1,5.681,4.434,4.463,4.463,0,0,1,4.434,3.188Z" transform="translate(0 7.391)"/>
  </g>
</svg>
