<svg xmlns="http://www.w3.org/2000/svg" width="90" height="90" viewBox="0 0 90 90">
  <defs>
    <style>
      .cls-1 {
        opacity: 0.313;
      }
    </style>
  </defs>
  <g id="desk" class="cls-1">
    <path id="Shape" d="M88.5,90h-6A1.5,1.5,0,0,1,81,88.5V78H9V88.5A1.5,1.5,0,0,1,7.5,90h-6A1.5,1.5,0,0,1,0,88.5v-48A1.5,1.5,0,0,1,1.5,39H18V37.5A4.505,4.505,0,0,1,22.5,33V30h-12A4.505,4.505,0,0,1,6,25.5V4.5A4.505,4.505,0,0,1,10.5,0h36A4.505,4.505,0,0,1,51,4.5v21A4.505,4.505,0,0,1,46.5,30h-12v3A4.506,4.506,0,0,1,39,37.5V39H60.27L63.03,25.2a.292.292,0,0,1,.014-.036,1.477,1.477,0,0,1,.063-.15,1.45,1.45,0,0,1,.2-.4.064.064,0,0,0,.009-.021.1.1,0,0,1,.022-.042.222.222,0,0,1,.053-.042.248.248,0,0,0,.045-.034,1.524,1.524,0,0,1,.335-.263,1.787,1.787,0,0,1,.177-.087,1.477,1.477,0,0,1,.407-.091.309.309,0,0,0,.065-.015A.259.259,0,0,1,64.5,24h18a1.506,1.506,0,0,1,1.47,1.2L86.729,39H88.5A1.5,1.5,0,0,1,90,40.5v48A1.5,1.5,0,0,1,88.5,90ZM7.5,45h75A1.5,1.5,0,0,1,84,46.5V87h3V42H3V87H6V46.5A1.5,1.5,0,0,1,7.5,45ZM9,48V75H81V48ZM66.33,27l2.4,12h14.94l-2.4-12Zm-2,7h0l-1,5h2.25ZM22.5,36A1.5,1.5,0,0,0,21,37.5V39H36V37.5A1.5,1.5,0,0,0,34.5,36Zm3-6v3h6V30ZM9,24v1.5A1.5,1.5,0,0,0,10.5,27h36A1.5,1.5,0,0,0,48,25.5V24ZM10.5,3A1.5,1.5,0,0,0,9,4.5V21H48V4.5A1.5,1.5,0,0,0,46.5,3Z" transform="translate(0)"/>
  </g>
</svg>
