<svg xmlns="http://www.w3.org/2000/svg" width="80" height="80" viewBox="0 0 80 80">
  <defs>
    <style>
      .cls-1 {
        opacity: 0.313;
      }
    </style>
  </defs>
  <g id="dish" class="cls-1">
    <path id="Shape" d="M7.338,45.338h0A4.669,4.669,0,0,1,3.9,43.824a4.23,4.23,0,0,1-1.067-3.283l.959-21.43A6.867,6.867,0,0,1,.239,14.3,15.905,15.905,0,0,1,.68,6.971l.856-2.818a6.119,6.119,0,0,1,11.589,0l.857,2.818a15.905,15.905,0,0,1,.441,7.333,6.863,6.863,0,0,1-3.547,4.8l.964,21.523a4.174,4.174,0,0,1-1.067,3.193c-.093.1-.192.2-.294.294A4.646,4.646,0,0,1,7.338,45.338ZM7.332,2.674A3.472,3.472,0,0,0,4.089,4.933L3.233,7.752a13.212,13.212,0,0,0-.367,6.088,4.239,4.239,0,0,0,2.768,3.185A1.331,1.331,0,0,1,6.5,18.333L5.49,40.753a1.6,1.6,0,0,0,.392,1.3,2.059,2.059,0,0,0,2.9,0,1.541,1.541,0,0,0,.4-1.208L8.168,18.333a1.331,1.331,0,0,1,.862-1.309A4.236,4.236,0,0,0,11.8,13.839a13.227,13.227,0,0,0-.366-6.088l-.856-2.819A3.461,3.461,0,0,0,7.332,2.674Z" transform="translate(42.669 19.993)"/>
    <path id="Path" d="M13.333,0A1.333,1.333,0,0,0,12,1.333V12.781L8.391,16.391A1.333,1.333,0,0,0,8,17.4L9.167,40.733a1.816,1.816,0,0,1-.5,1.359,1.877,1.877,0,0,1-2.655.012L6,42.092a1.816,1.816,0,0,1-.5-1.359L6.667,17.4a1.334,1.334,0,0,0-.389-1.009L2.667,12.781V1.333A1.333,1.333,0,0,0,0,1.333v12a1.333,1.333,0,0,0,.391.943l3.581,3.583L2.835,40.6a4.5,4.5,0,1,0,9,.438q.011-.219,0-.438L10.695,17.859l3.581-3.583a1.333,1.333,0,0,0,.391-.943v-12A1.333,1.333,0,0,0,13.333,0Z" transform="translate(22.667 20)"/>
    <path id="Path-2" data-name="Path" d="M1.333,0A1.333,1.333,0,0,0,0,1.333V12a1.333,1.333,0,0,0,2.667,0V1.333A1.333,1.333,0,0,0,1.333,0Z" transform="translate(26.667 20)"/>
    <path id="Path-3" data-name="Path" d="M1.333,0A1.333,1.333,0,0,0,0,1.333V12a1.333,1.333,0,0,0,2.667,0V1.333A1.333,1.333,0,0,0,1.333,0Z" transform="translate(30.667 20)"/>
    <path id="Shape-2" data-name="Shape" d="M40,80A40.011,40.011,0,0,1,24.43,3.143,40.01,40.01,0,0,1,55.569,76.857,39.749,39.749,0,0,1,40,80ZM40,2.667A37.333,37.333,0,1,0,77.333,40,37.375,37.375,0,0,0,40,2.667Z"/>
    <path id="Path-4" data-name="Path" d="M8.643,1.2A1.333,1.333,0,0,0,7.186.006L7.135.012H7.14a24.493,24.493,0,0,1-5.651,0A1.334,1.334,0,0,0,1.179,2.66a27.008,27.008,0,0,0,6.267,0A1.333,1.333,0,0,0,8.643,1.2Z" transform="translate(35.685 63.825)"/>
    <path id="Path-5" data-name="Path" d="M3.851.477A1.333,1.333,0,0,0,1.973.312l-.006,0A1.333,1.333,0,0,0,1.807,2.2,24,24,0,0,1,.392,34.658a1.334,1.334,0,0,0,1.883,1.889A26.667,26.667,0,0,0,3.851.477Z" transform="translate(56.549 22.342)"/>
    <g id="Group" transform="translate(29.667 13.333)">
      <path id="Path-6" data-name="Path" d="M.087.083h0Z" transform="translate(1.312 4.207)"/>
      <path id="Path-7" data-name="Path" d="M16.559.741A26.9,26.9,0,0,0,.864,1.7,1.332,1.332,0,1,0,1.8,4.2a24.222,24.222,0,0,1,14.133-.867A1.333,1.333,0,1,0,16.559.741Z" transform="translate(0.064 0.004)"/>
    </g>
    <path id="Path-8" data-name="Path" d="M9.667,33.185A24,24,0,0,1,7.257,2.135,1.333,1.333,0,0,0,5.125.532L5.1.564A26.667,26.667,0,0,0,7.778,35.073a1.335,1.335,0,1,0,1.889-1.888Z" transform="translate(13.331 23.748)"/>
  </g>
</svg>
