<svg xmlns="http://www.w3.org/2000/svg" width="33.404" height="35.958" viewBox="0 0 33.404 35.958">
  <defs>
    <style>
      .cls-1 {
        fill: #fff;
      }
    </style>
  </defs>
  <g id="Group_1" data-name="Group 1" transform="translate(1454.33 -2871.522)">
    <path id="Fill_47" data-name="Fill 47" class="cls-1" d="M.009,17.609q0-7.865,0-15.728A2.36,2.36,0,0,1,.587.164c.177-.189.3-.24.522-.018q5.291,5.4,10.6,10.783,3.433,3.489,6.876,6.97c.223.225.243.343.007.578q-8.434,8.385-16.843,16.8a.578.578,0,0,1-.911.054,2.134,2.134,0,0,1-.83-1.817Q.009,28.853,0,24.2,0,20.9,0,17.609H.009" transform="translate(-1454.33 2871.957)"/>
    <path id="Fill_48" data-name="Fill 48" class="cls-1" d="M0,0A1.941,1.941,0,0,1,1.023.284Q11.793,6.32,22.567,12.348c.33.184.323.287.068.538q-2.409,2.37-4.791,4.767c-.172.172-.276.271-.507.036Q8.769,8.95.185.227C.137.178.1.121,0,0" transform="translate(-1452.306 2871.522)"/>
    <path id="Fill_49" data-name="Fill 49" class="cls-1" d="M0,16.04Q7.818,8.138,15.627.228c.322-.328.473-.284.762.017Q18.37,2.307,20.4,4.327c.237.238.257.335-.064.511Q10.3,10.331.27,15.843a3.093,3.093,0,0,0-.27.2" transform="translate(-1450.699 2891.057)"/>
    <path id="Fill_50" data-name="Fill 50" class="cls-1" d="M12.955,4.992a1.64,1.64,0,0,1-.723,1.316,8.783,8.783,0,0,1-1,.608c-2.023,1.119-4.051,2.226-6.07,3.352a.452.452,0,0,1-.659-.088Q2.351,7.954.161,5.76c-.212-.213-.218-.33,0-.544Q2.708,2.707,5.23.171A.405.405,0,0,1,5.817.089c2,1.132,4.006,2.249,6.009,3.372a1.838,1.838,0,0,1,1.129,1.531" transform="translate(-1433.881 2884.719)"/>
  </g>
</svg>
