<svg xmlns="http://www.w3.org/2000/svg" width="79.999" height="79.999" viewBox="0 0 79.999 79.999">
  <defs>
    <style>
      .cls-1 {
        opacity: 0.586;
      }

      .cls-2 {
        fill: #fff;
      }
    </style>
  </defs>
  <g id="happiness" class="cls-1">
    <path id="Shape" class="cls-2" d="M40,80A40,40,0,1,1,80,40,40.045,40.045,0,0,1,40,80ZM40,4.324A35.675,35.675,0,1,0,75.675,40a35.28,35.28,0,0,0-3.488-15.378A35.775,35.775,0,0,0,40,4.324Z"/>
    <circle id="Oval" class="cls-2" cx="4.324" cy="4.324" r="4.324" transform="translate(22.612 26.756)"/>
    <circle id="Oval-2" data-name="Oval" class="cls-2" cx="4.324" cy="4.324" r="4.324" transform="translate(49.369 26.756)"/>
    <path id="Path" class="cls-2" d="M20.821,13.729A25.105,25.105,0,0,0,41.8,2.347L38.163,0A20.722,20.722,0,0,1,18.516,9.272,20.743,20.743,0,0,1,3.632,0L0,2.347A25.111,25.111,0,0,0,18.021,13.568,24.439,24.439,0,0,0,20.821,13.729Z" transform="translate(19.102 48.432)"/>
  </g>
</svg>
