<svg id="Group" xmlns="http://www.w3.org/2000/svg" width="38" height="20" viewBox="0 0 38 20">
  <path id="Fill_1" data-name="Fill 1" d="M12.939,8.581V16h7.122V8.581A9.1,9.1,0,0,1,25.826,16H33A16.228,16.228,0,0,0,17.327,1.033V.8a.827.827,0,0,0-1.653,0v.238A16.228,16.228,0,0,0,0,16H7.174a9.1,9.1,0,0,1,5.765-7.419" transform="translate(2)" fill="#ffa000"/>
  <path id="Fill_3" data-name="Fill 3" d="M37.16,0H.84A.811.811,0,0,0,0,.779a.811.811,0,0,0,.84.779H2.777L3.866,3H34.133l1.089-1.442H37.16A.811.811,0,0,0,38,.779.811.811,0,0,0,37.16,0" transform="translate(0 17)" fill="#ffa000"/>
</svg>
