<svg xmlns="http://www.w3.org/2000/svg" width="100" height="69.683" viewBox="0 0 100 69.683">
  <defs>
    <style>
      .cls-1 {
        opacity: 0.313;
      }
    </style>
  </defs>
  <g id="sofa" class="cls-1" transform="translate(0 -0.159)">
    <path id="Path" d="M1.477,2.934H24.684a1.467,1.467,0,1,0,0-2.934H1.477a1.467,1.467,0,1,0,0,2.934Z" transform="translate(15.19 5.189)"/>
    <path id="Path-2" data-name="Path" d="M1.477,2.934H24.684a1.467,1.467,0,1,0,0-2.934H1.477a1.467,1.467,0,1,0,0,2.934Z" transform="translate(58.65 5.191)"/>
    <path id="Shape" d="M24.844,69.683H17.4a1.466,1.466,0,0,1-1.413-1.042L14.61,64.132A19.055,19.055,0,0,1,4.1,57.448,18.836,18.836,0,0,1,0,45.739V20.589a1.454,1.454,0,0,1,.432-1.039,1.473,1.473,0,0,1,1.045-.43H5.063V11.527a11.428,11.428,0,0,1,3.4-8.147A11.581,11.581,0,0,1,16.667,0H39.911a11.493,11.493,0,0,1,8.172,3.372A11.67,11.67,0,0,1,50,5.9,11.639,11.639,0,0,1,60.126,0H83.334a11.58,11.58,0,0,1,8.2,3.38,11.428,11.428,0,0,1,3.4,8.147V19.12h3.587a1.473,1.473,0,0,1,1.045.43A1.45,1.45,0,0,1,100,20.589v25.15a18.837,18.837,0,0,1-4.1,11.708A19.055,19.055,0,0,1,85.391,64.13l-1.379,4.509A1.466,1.466,0,0,1,82.6,69.682H75.156a1.475,1.475,0,0,1-1.477-1.467V64.652H26.321v3.564A1.475,1.475,0,0,1,24.844,69.683Zm51.79-5.032v2.1h4.874l.649-2.138c-.467.029-.847.041-1.2.041ZM17.848,64.61h0l.648,2.137H23.37l0-2.1H19.044c-.362,0-.742-.013-1.2-.042ZM2.954,22.054V45.739A16.079,16.079,0,0,0,19.04,61.72H80.96A16.079,16.079,0,0,0,97.046,45.739l0-23.684H89.61L85.04,45.184a1.454,1.454,0,0,1-.168.434l-.012.022c-.006.012-.012.024-.02.035a1.462,1.462,0,0,1-.284.326l-.051.042-.01.008a1.493,1.493,0,0,1-.378.213.278.278,0,0,1-.039.013l-.024.007a1.471,1.471,0,0,1-.464.084H16.406a1.471,1.471,0,0,1-.464-.084l-.025-.007a.248.248,0,0,1-.037-.012,1.473,1.473,0,0,1-.378-.213l-.041-.034L15.441,46a1.488,1.488,0,0,1-.283-.326.338.338,0,0,1-.017-.03c0-.009-.009-.018-.015-.027a1.455,1.455,0,0,1-.168-.434l-4.57-23.129H2.954ZM24,38.823a6.115,6.115,0,0,0-5.938,4.611H81.936A6.114,6.114,0,0,0,76,38.823Zm0-2.937H76a9.069,9.069,0,0,1,7.173,3.521l3.775-19.1A1.477,1.477,0,0,1,88.4,19.12h3.587V11.527a8.644,8.644,0,0,0-8.649-8.593H60.126a8.645,8.645,0,0,0-8.65,8.593,1.476,1.476,0,0,1-2.953,0,8.5,8.5,0,0,0-2.53-6.08,8.608,8.608,0,0,0-6.106-2.513H16.667a8.644,8.644,0,0,0-8.65,8.593V19.12H11.6A1.477,1.477,0,0,1,13.053,20.3l3.776,19.1A9.069,9.069,0,0,1,24,35.887Z" transform="translate(0 0.159)"/>
    <path id="Path-3" data-name="Path" d="M5.029,0H1.477a1.467,1.467,0,1,0,0,2.934H5.029A1.467,1.467,0,1,0,5.029,0Z" transform="translate(51.969 56.848)"/>
    <path id="Path-4" data-name="Path" d="M10.97,0H1.477a1.467,1.467,0,1,0,0,2.934H10.97A1.467,1.467,0,1,0,10.97,0Z" transform="translate(61.533 56.848)"/>
  </g>
</svg>
