<svg id="speedometer" xmlns="http://www.w3.org/2000/svg" width="39.951" height="40" viewBox="0 0 39.951 40">
  <defs>
    <style>
      .cls-1 {
        fill: #fff;
      }
    </style>
  </defs>
  <path id="Shape" class="cls-1" d="M16.691,33.383A16.681,16.681,0,1,1,28.5,28.5,16.71,16.71,0,0,1,16.691,33.383ZM4.122,23.362a.587.587,0,0,1,.508.293.586.586,0,0,1-.214.8l-.858.5a15.509,15.509,0,0,0,26.267,0l-.858-.5a.586.586,0,0,1,.586-1.015l.859.5A15.332,15.332,0,0,0,32.2,17.277H31.2a.586.586,0,0,1,0-1.172H32.2a15.332,15.332,0,0,0-1.786-6.659l-.859.5a.586.586,0,0,1-.585-1.015l.857-.495a15.722,15.722,0,0,0-4.874-4.874l-.5.858a.585.585,0,0,1-.8.214.586.586,0,0,1-.215-.8l.5-.859a15.307,15.307,0,0,0-6.659-1.786v.994a.586.586,0,1,1-1.172,0V1.184A15.307,15.307,0,0,0,9.446,2.971l.5.859a.586.586,0,0,1-.507.879.588.588,0,0,1-.508-.293l-.495-.858A15.741,15.741,0,0,0,3.558,8.432l.858.495a.587.587,0,0,1-.293,1.094c-.165,0-.208-.025-.738-.334l-.413-.24a15.319,15.319,0,0,0-1.786,6.659h.994a.586.586,0,1,1,0,1.172H1.184a15.307,15.307,0,0,0,1.786,6.659l.859-.5A.587.587,0,0,1,4.122,23.362Z" transform="translate(3.308 3.308)"/>
  <path id="Shape-2" data-name="Shape" class="cls-1" d="M11.346,8.466a.93.93,0,0,1-.355-.071L1.824,4.64A2.328,2.328,0,0,1,1.2,4.4l-.008,0-.008,0-.005,0A2.351,2.351,0,1,1,4.08.756L11.906,6.81a.925.925,0,0,1-.56,1.656ZM4.676,2.7a2.379,2.379,0,0,1-.861,1.49L9.741,6.617ZM2.352,1.172a1.184,1.184,0,0,0-1.023.589,1.181,1.181,0,1,0,1.023-.589Z" transform="translate(17.65 17.65)"/>
  <path id="Path" class="cls-1" d="M7.455,0H1.591A1.593,1.593,0,0,0,0,1.591v.4A1.593,1.593,0,0,0,1.591,3.581H3.156a.586.586,0,0,0,0-1.172H1.591a.42.42,0,0,1-.419-.419v-.4a.42.42,0,0,1,.419-.419H7.455a.42.42,0,0,1,.419.419v.4a.42.42,0,0,1-.419.419H5.891a.586.586,0,0,0,0,1.172H7.455A1.593,1.593,0,0,0,9.047,1.989v-.4A1.593,1.593,0,0,0,7.455,0Z" transform="translate(15.477 26.105)"/>
  <path id="Path-2" data-name="Path" class="cls-1" d="M20,40A20,20,0,0,0,39.95,21.408a.586.586,0,0,0-1.169-.081,18.828,18.828,0,1,1,0-2.653.586.586,0,1,0,1.169-.081A20,20,0,1,0,20,40Z"/>
</svg>
