<?xml version="1.0" encoding="UTF-8"?>
<svg width="22px" height="20px" viewBox="0 0 22 20" version="1.1" xmlns="http://www.w3.org/2000/svg" xmlns:xlink="http://www.w3.org/1999/xlink">
    <!-- Generator: Sketch 55.2 (78181) - https://sketchapp.com -->
    <title>cheers</title>
    <desc>Created with Sketch.</desc>
    <g id="Page-1" stroke="none" stroke-width="1" fill="none" fill-rule="evenodd">
        <g id="10---Table-Lobby-" transform="translate(-109.000000, -226.000000)" fill="#FFA000" fill-rule="nonzero">
            <g id="cheers" transform="translate(109.000000, 226.000000)">
                <path d="M9.99714825,4.91743732 C9.99291306,4.72492814 9.86681224,4.5585446 9.68781301,4.50944569 L5.7286956,3.42356958 C5.72840495,3.42344003 5.72807278,3.42339684 5.72778213,3.42331048 L4.23670322,3.01432564 C4.06011224,2.96578811 3.87334849,3.04334452 3.77735076,3.20523705 C3.1801469,4.2126931 2.71049711,5.33350414 2.4191822,6.44658545 C1.93288229,8.30422558 2.01542705,9.8978889 2.65788936,11.0552758 C3.02958991,11.7249124 3.57505797,12.2163333 4.24903511,12.4962877 L2.72249683,18.3281757 L0.521192503,17.724393 C0.299633731,17.6635915 0.0723034692,17.8011721 0.0138411844,18.0318118 C-0.0446626218,18.2624082 0.0876664275,18.4986616 0.309432807,18.5595063 C0.309640415,18.5595495 2.90560668,19.2716348 2.90581429,19.2717211 C2.9060219,19.2717643 5.508424,19.9855769 5.50867313,19.9856201 C5.54413249,19.9953363 5.57975795,20 5.61484362,20 C5.79882543,20 5.96694602,19.8718765 6.01602444,19.6782014 C6.07452825,19.4476049 5.9421992,19.2113515 5.72043282,19.1505068 L3.52552281,18.5484515 L5.05177044,12.7177726 C5.20137244,12.7393209 5.351099,12.7504189 5.49978752,12.7504189 C7.35127313,12.7504189 8.88038575,11.1317527 9.5901129,8.42047383 C9.88151085,7.3071766 10.0222272,6.09581111 9.99714825,4.91743732 Z M8.78874777,8.19363428 C8.18340569,10.5061194 6.95391229,11.8867617 5.49970448,11.8867617 C5.28790326,11.8867617 5.07224054,11.8570519 4.85861238,11.7984528 C4.21868288,11.6229145 3.70634898,11.216607 3.37712494,10.6234473 C2.9865321,9.91978261 2.85503348,8.99148074 2.9842069,7.89809081 C3.53860209,7.99188397 4.06210527,8.02824394 4.55824578,8.02824394 C5.37472474,8.02824394 6.11862409,7.93246436 6.81020635,7.84342131 C7.59035398,7.74297799 8.28272514,7.65423722 8.89807391,7.73429823 C8.86456605,7.88906559 8.82831777,8.04240792 8.78874777,8.19363428 Z M9.04971046,6.8845028 C8.31365867,6.78030257 7.52994019,6.88052998 6.70827104,6.98632798 C5.65736165,7.12161987 4.47898122,7.27323487 3.13007196,7.04838174 C3.15743463,6.92496514 3.18733012,6.8001235 3.22050581,6.67346818 C3.46515054,5.73873207 3.84565365,4.79725943 4.3270125,3.93230681 L4.98674776,4.11328616 C4.86716581,4.35295102 4.75688468,4.59917966 4.67097668,4.79967767 C4.57763633,5.017492 4.67176559,5.27278904 4.88120008,5.36990729 C4.93613304,5.39538517 4.99351576,5.40743319 5.04998502,5.40743319 C5.20888783,5.40743319 5.36060742,5.31199908 5.42949161,5.15131567 C5.56381369,4.83789449 5.69506318,4.55984008 5.81211231,4.3396507 L9.16937545,5.26048193 C9.16592916,5.80229723 9.12536265,6.34843082 9.04971046,6.8845028 Z" id="Shape"></path>
                <path d="M19.0960996,19.2310405 C19.0959336,19.2311266 19.0957261,19.2311266 19.0955602,19.2311696 L16.5156846,19.9369063 C16.7585477,19.8704127 19.0963071,19.2309975 19.0960996,19.2310405 Z" id="Path"></path>
                <path d="M16.5674245,19.9661532 C16.5319456,19.975548 16.5122719,19.9807427 16.5122719,19.9807427 L16.5674245,19.9661532 Z" id="Path"></path>
                <path d="M21.9860996,17.9952911 C21.9277178,17.7654684 21.7004979,17.6284354 21.4790871,17.6889038 L19.2792116,18.2906608 L17.7536929,12.4782532 C18.4272199,12.199238 18.9723237,11.7094658 19.3437344,11.0420759 C19.9857676,9.88857215 20.0682573,8.3002557 19.5823237,6.44889114 C19.2911618,5.3395443 18.8218257,4.22249367 18.2250207,3.21841772 C18.1290456,3.05706835 17.9425726,2.97972911 17.7659751,3.02814684 L12.3185892,4.51829367 C12.1397095,4.56722785 12.0136515,4.73305316 12.0095436,4.92491646 C11.986971,5.98171392 12.0990041,7.06476456 12.3337759,8.07955696 C12.33639,8.09380253 12.3396266,8.10791899 12.3435685,8.12173418 C12.3668465,8.22050633 12.3907884,8.31889114 12.4163485,8.41624304 C13.1254772,11.1182101 14.6534855,12.7314886 16.5038174,12.7316608 C16.5039004,12.7316608 16.5039834,12.7316608 16.5041079,12.7316608 C16.6526141,12.7316608 16.8021992,12.7206 16.9516183,12.6991241 L18.4768465,18.5102405 L16.2834025,19.1102759 C16.0617842,19.1708734 15.9295436,19.4063342 15.9880083,19.6362 C16.0370954,19.8292684 16.2051037,19.956919 16.3889212,19.956919 C16.4239419,19.956919 16.4595851,19.9522709 16.4950207,19.9425873 L19.0954357,19.2311696 C19.0954772,19.2311696 19.0955187,19.2311696 19.0955602,19.2311696 L21.6907884,18.5212582 C21.9123237,18.4606177 22.0445643,18.2251139 21.9860996,17.9952911 Z M12.8367635,5.26668101 L17.6757676,3.94300506 C18.1568465,4.8050557 18.5370954,5.74336962 18.7815768,6.67501266 C18.8524896,6.94520506 18.909834,7.2079519 18.9541909,7.46290886 C18.7017842,7.43695696 18.4445643,7.43295443 18.1825311,7.4438 C18.1380083,7.12871899 18.0724066,6.8002962 18.016556,6.54555443 C17.9658091,6.31379494 17.743361,6.16854177 17.52,6.22126329 C17.2965145,6.27394177 17.1565145,6.50453924 17.2073444,6.73634177 C17.2702905,7.02353418 17.3197925,7.28817468 17.353527,7.51489873 C17.1656432,7.53710633 16.9757261,7.56215443 16.78361,7.58754684 C15.70639,7.73013165 14.4936515,7.8904481 13.0857261,7.62998228 C12.9265975,6.86356203 12.8416598,6.06055949 12.8367635,5.26668101 Z M16.5041079,11.8708152 C16.5040249,11.8708152 16.5039419,11.8708152 16.5039004,11.8708152 C15.1255187,11.8706861 13.9495436,10.6322253 13.3158921,8.5382557 C13.7785062,8.60406076 14.2185892,8.63087342 14.6381328,8.63087342 C15.456556,8.63087342 16.1988797,8.53261772 16.8887137,8.44133418 C17.7022822,8.3336962 18.4191701,8.23896962 19.056556,8.34290633 C19.1048963,9.23960253 18.9607469,10.008519 18.6250207,10.6116962 C18.2959751,11.2028658 17.7840249,11.6078532 17.1445228,11.7827595 C16.9310373,11.8412481 16.7156017,11.8708152 16.5041079,11.8708152 Z" id="Shape"></path>
                <path d="M11.5,0 C11.2239,0 11,0.194301586 11,0.433999523 L11,1.56600048 C11,1.80569841 11.2239,2 11.5,2 C11.7761,2 12,1.80569841 12,1.56600048 L12,0.433999523 C12,0.194301586 11.77615,0 11.5,0 Z" id="Path"></path>
                <path d="M8.95862351,2.29279155 L8.56017347,1.23209626 C8.47612307,1.00839656 8.29190383,0.933360436 8.14861217,1.06465018 C8.00535059,1.19584601 7.95735616,1.48354711 8.04137649,1.7072468 L8.43982653,2.76794209 C8.49582003,2.91698131 8.59628959,3 8.69952574,3 C8.75121899,3 8.80357382,2.97919837 8.85138783,2.93538817 C8.99464941,2.80419233 9.04264384,2.51649124 8.95862351,2.29279155 Z" id="Path"></path>
                <path d="M13.8513955,1.06462999 C13.7081048,0.933385828 13.5238868,1.00837578 13.439837,1.23207781 L13.0413896,2.29278417 C12.9573397,2.51643924 13.0053639,2.80419029 13.1486245,2.93538749 C13.1964382,2.97919815 13.2487927,3 13.3004856,3 C13.403691,3 13.5041599,2.91698044 13.5601831,2.76793967 L13.9586305,1.70723331 C14.0426503,1.48353128 13.9946261,1.19582719 13.8513955,1.06462999 Z" id="Path"></path>
                <path d="M17.9770004,5.35284406 C17.9767508,5.35219676 17.9763514,5.35095194 17.9760019,5.34980671 C17.8944784,5.08924142 17.6174081,4.94235291 17.355115,5.02137395 C17.0911244,5.10084312 16.9417561,5.37868648 17.0214325,5.64194057 C17.0223311,5.64457959 17.0238288,5.64945928 17.0247274,5.65234725 C17.0921229,5.86436464 17.2885682,6 17.5004895,6 C17.5499627,6 17.6003346,5.99258089 17.6500575,5.97699576 C17.9131494,5.8946884 18.0594725,5.61525168 17.9770004,5.35284406 Z" id="Path"></path>
                <circle id="Oval" cx="4.5" cy="6.5" r="1"></circle>
            </g>
        </g>
    </g>
</svg>