<?xml version="1.0" encoding="UTF-8"?>
<svg width="19px" height="18px" viewBox="0 0 19 18" version="1.1" xmlns="http://www.w3.org/2000/svg" xmlns:xlink="http://www.w3.org/1999/xlink">
    <!-- Generator: Sketch 55.2 (78181) - https://sketchapp.com -->
    <title>fork (1)</title>
    <desc>Created with Sketch.</desc>
    <g id="Page-1" stroke="none" stroke-width="1" fill="none" fill-rule="evenodd">
        <g id="10---Table-Lobby-" transform="translate(-111.000000, -184.000000)" fill="#FFA000" fill-rule="nonzero">
            <g id="fork-(1)" transform="translate(111.000000, 184.000000)">
                <path d="M17.0833666,1.00653619 C16.940514,0.864547303 16.7089902,0.864428583 16.5660978,1.00653619 L12.7738409,4.77889756 C12.6309485,4.92100516 12.6309485,5.15132158 12.7738011,5.29346876 C12.8452473,5.36450278 12.9388116,5.4 13.0324554,5.4 C13.1260197,5.4 13.2196635,5.36450278 13.2911097,5.29346876 L17.0833666,1.5211074 C17.2261794,1.37896022 17.2261794,1.14860422 17.0833666,1.00653619 Z" id="Path"></path>
                <path d="M17.988097,1.90651982 C17.8452024,1.76449339 17.613675,1.76449339 17.4708203,1.90651982 L13.6785448,5.67890643 C13.5357298,5.82105158 13.5357298,6.05136471 13.678505,6.19347028 C13.7499523,6.26450329 13.8435976,6.3 13.9371633,6.3 C14.030729,6.3 14.1243743,6.26450329 14.1958215,6.19347028 L17.988097,2.4210441 C18.1309518,2.27893853 18.1309518,2.04858583 17.988097,1.90651982 Z" id="Path"></path>
                <path d="M14.4829387,7.78987656 L18.899484,3.2960187 C19.0335053,3.15961334 19.0335053,2.93860021 18.899484,2.80223282 C18.7654254,2.66597936 18.5482146,2.66586544 18.4141932,2.80223282 L13.9977225,7.29609068 C13.4536132,7.84968682 12.6216435,7.9949403 11.9275019,7.65764843 C11.7894125,7.59058499 11.6245264,7.62449646 11.5229747,7.74092709 L10.0223167,9.46129791 C10.0217195,9.46194349 10.0210477,9.46251311 10.0204506,9.46319665 C10.0198535,9.4638802 10.0194056,9.46460172 10.0188085,9.46528526 L3.53275157,16.9006305 C3.53110943,16.9025293 3.52946728,16.904466 3.52786246,16.9064027 C3.50647727,16.9319597 3.48628637,16.9544028 3.46583422,16.9752509 C3.03757062,17.4109734 2.34077921,17.4109354 1.91270221,16.9752509 C1.70526961,16.7642252 1.59102867,16.4835537 1.59102867,16.185072 C1.59102867,15.8865903 1.70526961,15.6059568 1.91307543,15.3945133 C1.93300508,15.3741209 1.95502473,15.3536525 1.980366,15.3317031 C1.98230671,15.3300702 1.98417278,15.3283993 1.98603886,15.3267284 L6.04093939,11.6646698 C6.18268625,11.5366569 6.19556215,11.3159855 6.06978887,11.1717953 C5.94397827,11.0275292 5.72706603,11.0143519 5.58539381,11.1424408 L1.53318042,14.802069 C1.49444076,14.8356767 1.45976914,14.868221 1.42744877,14.9011452 C1.09039878,15.2440953 0.904761905,15.7000583 0.904761905,16.185072 C0.904761905,16.6700477 1.09036146,17.1260487 1.42741144,17.4689988 C1.77535929,17.8229616 2.23228576,18 2.6893242,18 C3.14617603,18 3.60321446,17.8229996 3.95090106,17.4691887 C3.9838559,17.435733 4.01576573,17.4004164 4.04853396,17.3613784 L8.99108779,11.6953154 L13.9337163,17.3614543 C13.9664472,17.4005303 13.998357,17.4358469 14.0310879,17.4690748 C14.3789611,17.8230376 14.8359249,18 15.2928887,18 C15.7498898,18 16.2068909,17.8229996 16.5548014,17.4690368 C17.2504732,16.7610733 17.2504732,15.6092227 16.5549881,14.901449 C16.5221452,14.8679172 16.4873989,14.8354488 16.4490698,14.802145 L10.7616172,9.6656781 L11.8743561,8.39002977 C12.7759303,8.71505579 13.7960748,8.48865023 14.4829387,7.78987656 Z M15.9961367,15.3267663 C15.9980028,15.3284372 15.9999062,15.3301081 16.0018096,15.331741 C16.0269269,15.3535006 16.0489839,15.3740449 16.0694734,15.3948551 C16.4976623,15.8305776 16.4976623,16.5395285 16.0695107,16.975175 C15.6412471,17.4108595 14.944493,17.4108595 14.5161174,16.9749851 C14.4958519,16.9543648 14.4755863,16.9318838 14.4542011,16.9063267 C14.4525963,16.90439 14.4509542,16.9024533 14.449312,16.9005546 L9.44984301,11.1693269 L10.3059597,10.1878691 L15.9961367,15.3267663 Z" id="Shape"></path>
                <path d="M16.1837279,0.096789756 C16.0477082,-0.032263252 15.8273199,-0.032263252 15.6913381,0.096789756 L11.2102614,4.35201514 C10.513274,5.01378487 10.2875843,5.99655104 10.6116914,6.86536652 L9.23274996,8.02759871 L7.90746667,6.9106016 C8.59282875,5.63006782 8.34263884,4.07528292 7.25531429,3.04275098 C6.17541176,2.01730276 4.92457578,1.29566307 3.73322948,1.01084032 C2.48955044,0.713576116 1.42328017,0.912027927 0.730533939,1.56980633 C0.0377877101,2.22758473 -0.171240342,3.24023193 0.141885195,4.42112628 C0.441870743,5.55232678 1.20179374,6.7400891 2.28177201,7.76550136 C3.36909656,8.79806926 5.00640723,9.0356433 6.35501684,8.38480478 C6.35501684,8.38480478 7.65102863,9.77127061 7.66746308,9.78889 C7.73626815,9.86249588 7.83188334,9.9 7.9279908,9.9 C8.01020093,9.9 8.09267613,9.87252814 8.15898194,9.81664952 L11.2590346,7.20380255 C11.3750982,7.10596103 11.4089137,6.94702698 11.3420778,6.81405456 C11.0056638,6.14520111 11.1505445,5.34369887 11.7026133,4.81954014 L16.1837279,0.56435071 C16.3197097,0.435189828 16.3197097,0.22591468 16.1837279,0.096789756 Z M7.95711083,9.10277675 L6.68976466,7.74694707 C6.57752569,7.62688355 6.39053646,7.60063426 6.24664034,7.68502752 C5.1303851,8.3386348 3.70240542,8.17959288 2.77404822,7.29801233 C1.78177085,6.35580671 1.08679045,5.27681712 0.81706095,4.25967518 C0.56618942,3.31337036 0.710312747,2.52409381 1.22292375,2.03736728 C1.73545902,1.55056883 2.56664847,1.41378487 3.56316698,1.65204211 C4.63432215,1.90813448 5.77068498,2.5680344 6.76288661,3.51027598 C7.69124381,4.39178461 7.85876919,5.74775812 7.17041558,6.80772596 C7.08165439,6.94440205 7.10918399,7.12189039 7.23562324,7.22850565 L8.70821072,8.46962953 L7.95711083,9.10277675 Z" id="Shape"></path>
            </g>
        </g>
    </g>
</svg>