<svg xmlns="http://www.w3.org/2000/svg" width="58" height="58" viewBox="0 0 58 58">
  <g id="Group_13" data-name="Group 13" transform="translate(-1140 -131)">
    <path id="Fill_1_Copy_3" data-name="Fill 1 Copy 3" d="M58,29.031a73.038,73.038,0,0,1-1.906,17.19c-.261,1.021-.625,2.017-.955,3.02a9.181,9.181,0,0,1-6.058,6,47.065,47.065,0,0,1-10.792,2.266,87.554,87.554,0,0,1-16.981.156A51.412,51.412,0,0,1,9.048,55.3a9.606,9.606,0,0,1-6.354-6.341A47.2,47.2,0,0,1,.585,39.2,88.793,88.793,0,0,1,.277,21.968,52,52,0,0,1,2.663,9.131,9.7,9.7,0,0,1,9.113,2.677,51.6,51.6,0,0,1,21.3.337,88.205,88.205,0,0,1,38.277.489,57.273,57.273,0,0,1,48,2.367a10.435,10.435,0,0,1,7.648,7.75A59.7,59.7,0,0,1,57.71,22.363c.156,2.219.2,4.445.29,6.668" transform="translate(1140 131)" fill="rgba(0,193,212,0.1)"/>
    <g id="Selected-file" transform="translate(1159 147)">
      <path id="Combined-Shape-Copy" d="M14.6,21.818H2.064C0,21.818,0,21.66,0,19.727V2.091C0,.158,0,0,2.064,0H9.707a1.688,1.688,0,0,1,1.076.387l5.293,4.4a1.62,1.62,0,0,1,.59,1.249v13.7C16.667,21.66,16.667,21.818,14.6,21.818ZM5.556,16.364a1.091,1.091,0,1,0,0,2.182H8.889a1.091,1.091,0,1,0,0-2.182Zm0-4.364a1.091,1.091,0,1,0,0,2.182h7.778a1.091,1.091,0,1,0,0-2.182Z" fill="#00c1d4" opacity="0.3"/>
      <path id="Combined-Shape" d="M15.714,21.818H2.064C0,21.818,0,21.66,0,19.727V2.091C0,.158,0,0,2.064,0h8.754a1.685,1.685,0,0,1,1.076.387l5.293,4.4a1.62,1.62,0,0,1,.59,1.249v13.7C17.778,21.66,17.778,21.818,15.714,21.818ZM3.334,14.182a1.091,1.091,0,1,0,0,2.182H6.666a1.091,1.091,0,1,0,0-2.182Zm0-4.364a1.091,1.091,0,1,0,0,2.182h7.778a1.091,1.091,0,1,0,0-2.182Z" transform="translate(2.222 2.182)" fill="#00c1d4"/>
    </g>
  </g>
</svg>
