<?xml version="1.0" encoding="utf-8"?>
<!-- Generator: Adobe Illustrator 19.2.1, SVG Export Plug-In . SVG Version: 6.00 Build 0)  -->
<svg version="1.1" xmlns="http://www.w3.org/2000/svg" xmlns:xlink="http://www.w3.org/1999/xlink" x="0px" y="0px"
	 viewBox="0 0 156 156" style="enable-background:new 0 0 156 156;" xml:space="preserve">
<style type="text/css">
	.st0{fill:#FFFFFF;}
	.st1{fill:none;}
	.st2{clip-path:url(#SVGID_1_);}
	.st3{fill:#474747;}
	.st4{fill:#FFA000;}
</style>
<g id="Layer_2">
	<circle class="st0" cx="77.4" cy="77.4" r="76.4"/>
</g>
<g id="Layer_1">
	<g id="Group_2_2_" transform="translate(-125 -352)">
		<g id="Group_21_2_" transform="translate(195.23 405.25)">
			<path id="Clip_20-2_2_" class="st1" d="M39.2,41.9h6.2v12.5h-6.2V41.9z"/>
			<g>
				<defs>
					<rect id="SVGID_2_" x="39.2" y="41.9" width="6.2" height="12.5"/>
				</defs>
				<clipPath id="SVGID_1_">
					<use xlink:href="#SVGID_2_"  style="overflow:visible;"/>
				</clipPath>
				<g id="Group_21-2_2_" class="st2">
					<path id="Fill_19_2_" class="st3" d="M41,54.1c-0.4-0.2-0.7-0.5-1-0.8c-0.3-0.4-0.5-0.8-0.6-1.2c-0.2-0.5-0.2-1-0.2-1.5v-7.6
						c-0.1-0.6,0.3-1.1,0.9-1.2h0.1c0.3,0,0.5,0.1,0.7,0.3c0.2,0.2,0.3,0.5,0.3,0.8v7.6c0,0.4,0.1,0.7,0.3,1
						c0.2,0.3,0.5,0.4,0.8,0.4h1.1v-9c0-0.6,0.4-1.1,1-1.2c0.3,0,0.5,0.1,0.7,0.3c0.2,0.2,0.3,0.5,0.3,0.8v10.2
						c0,0.3-0.1,0.6-0.3,0.8c-0.2,0.2-0.4,0.3-0.7,0.3h-2.2C41.8,54.4,41.4,54.3,41,54.1"/>
				</g>
			</g>
		</g>
		<g id="Group_1_2_">
			<path id="Fill_1_2_" class="st4" d="M195.5,411.5v15.3h13.8v-15.3c6.2,2.7,10.5,8.5,11.2,15.3h13.9c-0.9-16.6-14-30-30.4-30.8
				v-0.5c0-0.9-0.7-1.6-1.6-1.6c-0.9,0-1.6,0.7-1.6,1.6v0.5c-16.4,0.8-29.4,14.2-30.4,30.8h13.9C185,420.1,189.3,414.2,195.5,411.5"
				/>
			<path id="Fill_3_2_" class="st4" d="M237.8,428.1h-71.9c-0.9,0-1.7,0.7-1.7,1.6c0,0.9,0.7,1.7,1.7,1.6h3.8l2.2,3h59.9l2.2-3h3.8
				c0.9,0,1.7-0.7,1.7-1.6C239.4,428.8,238.7,428.1,237.8,428.1"/>
			<path id="Fill_5_2_" class="st3" d="M165.3,459.8c-0.3,0-0.6-0.1-0.8-0.4c-0.2-0.2-0.3-0.6-0.3-0.9v-15.2c0-0.3,0.1-0.6,0.2-0.8
				c0.3-0.5,0.9-0.6,1.4-0.4c0.2,0.1,0.4,0.4,0.5,0.6c0.3,0.8,0.7,1.5,1,2.3c0.3,0.7,0.6,1.4,0.9,2.1c0.3,0.7,0.6,1.4,0.9,2.1
				c0.3-0.6,0.6-1.3,0.9-2.1c0.3-0.7,0.6-1.4,0.9-2.1c0.3-0.8,0.7-1.5,1-2.3c0.1-0.3,0.3-0.5,0.5-0.6c0.2-0.1,0.5-0.2,0.8-0.1
				c0.5,0.2,0.9,0.7,0.9,1.2v15.2c0,0.6-0.4,1.2-1.1,1.3h-0.1c-0.3,0-0.6-0.1-0.8-0.4c-0.2-0.2-0.4-0.6-0.4-0.9v-9.6
				c-0.2,0.5-0.4,0.9-0.6,1.4c-0.2,0.5-0.4,0.9-0.5,1.2c-0.2,0.4-0.4,0.8-0.5,1.2c-0.1,0.2-0.2,0.4-0.4,0.5
				c-0.2,0.1-0.4,0.2-0.6,0.2c-0.5,0-0.9-0.3-1.1-0.7c-0.2-0.4-0.4-0.8-0.5-1.2c-0.2-0.3-0.3-0.8-0.5-1.2c-0.2-0.4-0.4-0.9-0.6-1.4
				v9.6c0,0.3-0.1,0.7-0.4,0.9C165.9,459.7,165.6,459.8,165.3,459.8"/>
			<path id="Fill_7_2_" class="st3" d="M179.3,459.8L179.3,459.8c-0.3,0-0.6-0.1-0.7-0.3c-0.2-0.2-0.3-0.5-0.3-0.8v-10.2
				c0-0.6,0.4-1.1,1-1.1h0.1c0.3,0,0.5,0.1,0.7,0.3c0.2,0.2,0.3,0.5,0.3,0.8v10.1c0,0.3-0.1,0.6-0.3,0.8v0
				C179.8,459.7,179.5,459.8,179.3,459.8z M179.2,446.1L179.2,446.1c-0.8,0-1.3-0.7-1.3-1.4c0-0.7,0.5-1.3,1.3-1.4h0
				c0.7,0,1.3,0.7,1.2,1.4c0,0.4-0.1,0.7-0.4,1C179.9,445.9,179.6,446.1,179.2,446.1z"/>
			<path id="Fill_9_2_" class="st3" d="M181.6,464.9c-0.6,0-1.1-0.5-1.1-1c-0.1-0.6,0.4-1.2,1-1.2c0.1,0,0.1,0,0.2,0h0
				c0.4,0,0.7-0.1,0.9-0.4c0.3-0.3,0.4-0.6,0.4-1v-12.7c0-0.6,0.5-1.1,1.1-1.1h0c0.6,0,1.1,0.5,1.1,1.1v12.7c0,0.5-0.1,1-0.3,1.4
				c-0.3,0.9-1,1.6-1.9,2c-0.4,0.2-0.9,0.3-1.4,0.3h0C181.7,464.9,181.6,464.9,181.6,464.9z M184.2,446.1L184.2,446.1
				c-0.4,0-0.7-0.2-1-0.4c-0.3-0.3-0.4-0.6-0.4-1c0-0.7,0.6-1.4,1.3-1.4h0c0.8,0,1.4,0.6,1.3,1.4c0,0.4-0.1,0.7-0.4,1
				C184.9,445.9,184.5,446.1,184.2,446.1z"/>
			<path id="Fill_11_2_" class="st3" d="M187.7,459.8c-0.6,0-1-0.6-1-1.1c0,0,0,0,0,0v-10.3c-0.1-0.6,0.4-1.1,0.9-1.2h2.2
				c0.4,0,0.8,0.1,1.2,0.3c0.4,0.2,0.7,0.5,1,0.8c0.3,0.4,0.5,0.8,0.7,1.2c0.2,0.5,0.3,1,0.3,1.5v7.7c0,0.3-0.1,0.6-0.3,0.8
				c-0.2,0.2-0.4,0.3-0.7,0.3c-0.6-0.1-1-0.6-1-1.1c0,0,0,0,0,0v-7.7c0-0.4-0.1-0.7-0.4-1c-0.2-0.3-0.5-0.4-0.8-0.4h-1.2v9.1
				c0,0.3-0.1,0.6-0.3,0.8C188.2,459.6,188,459.8,187.7,459.8"/>
			<path id="Fill_13_2_" class="st3" d="M202.9,459.8c-0.3,0-0.6-0.1-0.8-0.4c-0.2-0.2-0.3-0.6-0.3-0.9v-15.2c0-0.3,0.1-0.6,0.2-0.8
				c0.3-0.5,1-0.6,1.5-0.3c0,0,0.1,0,0.1,0.1c0.2,0.1,0.3,0.3,0.4,0.5c0.3,0.8,0.7,1.5,1,2.3c0.3,0.7,0.6,1.4,0.9,2.1
				c0.3,0.7,0.6,1.4,0.9,2.1c0.3-0.6,0.6-1.3,0.9-2.1c0.3-0.7,0.6-1.4,0.9-2.1c0.3-0.8,0.7-1.5,1-2.3c0.1-0.3,0.3-0.5,0.5-0.6
				c0.2-0.1,0.5-0.2,0.8-0.1c0.3,0.1,0.5,0.2,0.7,0.4c0.2,0.2,0.3,0.5,0.3,0.8v15.2c0,0.7-0.5,1.2-1.2,1.3c-0.3,0-0.6-0.1-0.8-0.4
				c-0.2-0.2-0.4-0.6-0.4-0.9v-9.6c-0.2,0.5-0.4,0.9-0.6,1.4c-0.2,0.5-0.4,0.9-0.5,1.2c-0.2,0.4-0.3,0.8-0.5,1.2
				c-0.1,0.2-0.2,0.4-0.4,0.5c-0.2,0.1-0.4,0.2-0.6,0.2c-0.5,0-0.9-0.3-1.1-0.7c-0.2-0.4-0.4-0.8-0.5-1.2c-0.2-0.3-0.3-0.8-0.5-1.2
				c-0.2-0.4-0.4-0.9-0.6-1.4v9.6c0,0.3-0.1,0.7-0.3,0.9C203.5,459.7,203.2,459.8,202.9,459.8"/>
			<path id="Fill_15_2_" class="st3" d="M218.8,459.8c-0.4,0-0.8-0.1-1.2-0.3c-1.3-0.7-2-2-2-3.5v-5.2c0-0.5,0.1-1,0.3-1.5
				c0.3-0.9,0.9-1.6,1.7-2c0.8-0.4,1.7-0.4,2.4,0c0.4,0.2,0.7,0.5,1,0.8c0.3,0.4,0.5,0.8,0.7,1.2c0.2,0.5,0.2,1,0.2,1.5v2.6
				c0,0.3-0.1,0.6-0.3,0.8c-0.2,0.2-0.4,0.3-0.7,0.3h-3.4v1.4c0,0.3,0.1,0.5,0.2,0.8c0.1,0.2,0.3,0.4,0.5,0.5
				c0.1,0.1,0.3,0.1,0.5,0.1c0.1,0,0.2,0,0.2,0c0.2-0.1,0.5-0.2,0.6-0.4c0.1-0.2,0.4-0.4,0.7-0.4h0c0.3,0,0.5,0.1,0.7,0.4
				c0.4,0.5,0.4,1.2,0,1.7c-0.4,0.5-1,0.9-1.6,1C219.2,459.8,219,459.8,218.8,459.8z M218.7,449.4c-0.3,0-0.6,0.2-0.8,0.4
				c-0.2,0.3-0.4,0.6-0.4,1v1.4h2.4v-1.4c0-0.4-0.1-0.7-0.3-1C219.4,449.6,219.1,449.4,218.7,449.4L218.7,449.4z"/>
			<path id="Fill_17_2_" class="st3" d="M225.4,459.8c-0.3,0-0.5-0.1-0.7-0.3c-0.2-0.2-0.3-0.5-0.3-0.8v-10.3c0-0.3,0.1-0.6,0.3-0.8
				c0.2-0.2,0.4-0.3,0.7-0.3h2.1c0.4,0,0.8,0.1,1.2,0.3c0.8,0.4,1.4,1.2,1.7,2c0.2,0.5,0.3,1,0.3,1.5v7.7c0,0.3-0.1,0.6-0.3,0.8
				c-0.2,0.2-0.4,0.3-0.7,0.3c-0.6,0-1-0.6-1-1.1c0,0,0,0,0,0v-7.7c0.1-0.7-0.5-1.3-1.2-1.4h-1.2v9.1c0,0.3-0.1,0.6-0.3,0.8
				C225.9,459.6,225.6,459.8,225.4,459.8"/>
			<path id="Fill_22_2_" class="st4" d="M218.7,462.3c-1.6,0-3-0.9-4.3-2.7c-0.2-0.3-0.2-0.7,0.1-0.9c0.2-0.2,0.4-0.2,0.6,0
				c0,0,0.1,0.1,0.1,0.1c0.7,1.3,2,2.1,3.5,2.3c1.5-0.1,2.8-1,3.5-2.3c0.1-0.2,0.4-0.3,0.6-0.1c0,0,0.1,0.1,0.1,0.1
				c0.2,0.3,0.2,0.6,0,0.9C221.8,461.4,220.3,462.3,218.7,462.3"/>
		</g>
	</g>
</g>
</svg>
