<?xml version="1.0" encoding="utf-8"?>
<!-- Generator: Adobe Illustrator 19.2.1, SVG Export Plug-In . SVG Version: 6.00 Build 0)  -->
<svg version="1.1" id="Layer_1" xmlns="http://www.w3.org/2000/svg" xmlns:xlink="http://www.w3.org/1999/xlink" x="0px" y="0px"
	 viewBox="0 0 900 900" style="enable-background:new 0 0 900 900;" xml:space="preserve">
<style type="text/css">
	.st0{fill:#FFA000;}
	.st1{fill:#474747;}
</style>
<g id="XMLID_273_">
	<g id="XMLID_274_">
		<path id="XMLID_275_" class="st0" d="M394,314.8V436h112V314.8c49,20.3,85,66.2,90.7,121.2h112.8C701.8,304,596,198.1,463,191.5
			v-3.9c0-7.3-5.7-13.2-13-13.2s-13,5.9-13,13.2v3.9C304,198.1,198.2,304,190.5,436h112.8C309,381,345,335.1,394,314.8z"/>
	</g>
	<g id="XMLID_276_">
		<path id="XMLID_277_" class="st0" d="M741.9,451H158.1c-7.6,0-13.7,5.9-13.7,13.5s6.1,13.5,13.7,13.5h31.1l17.5,25h486.4l17.5-25
			h31.1c7.6,0,13.7-5.9,13.7-13.5S749.4,451,741.9,451z"/>
	</g>
</g>
<g id="XMLID_278_">
	<g id="XMLID_279_">
		<path id="XMLID_280_" class="st1" d="M153.2,693.4c-2.7,0-4.7-0.9-6.6-2.8c-1.9-1.9-2.6-4.1-2.6-6.8V568.3c0-2.3,0.5-4.2,1.8-6
			c1.3-1.7,3-2.9,5.3-3.4c2.3-0.5,4.3-0.3,6.3,0.7c2,1,3.4,2.6,4.4,4.7c2.7,5.8,5.4,11.6,8.2,17.3c2.3,5,4.8,10.4,7.6,16
			c2.8,5.6,5.3,10.9,7.6,15.8c2.3-4.9,4.7-10.2,7.5-15.8c2.7-5.6,5.2-11,7.5-16c2.7-5.7,5.4-11.5,8.2-17.3c1.1-2.1,2.6-3.7,4.5-4.7
			c1.9-1,4-1.2,6.3-0.7c2.3,0.5,3.9,1.7,5.2,3.4c1.4,1.7,1.9,3.7,1.9,6v115.5c0,2.7-0.7,4.9-2.6,6.8c-1.9,1.9-4,2.8-6.7,2.8
			c-2.7,0-5-0.9-6.9-2.8c-1.9-1.9-2.9-4.1-2.9-6.8v-72.7c-1,3.6-3.2,7.1-4.8,10.6c-1.6,3.5-3,6.5-4.3,9.2c-1.5,3.2-2.9,6.2-4.3,9.2
			c-0.8,1.7-1.9,3.1-3.5,4.1c-1.5,1-3.2,1.5-5.1,1.5c-4.1,0-7-1.9-8.8-5.6c-1.5-2.9-2.9-6-4.4-9.2c-1.3-2.7-2.7-5.7-4.2-9.2
			c-1.6-3.5-3.6-7-4.6-10.6v72.7c0,2.7-1.1,4.9-2.9,6.8C158.2,692.5,155.8,693.4,153.2,693.4z"/>
	</g>
	<g id="XMLID_282_">
		<path id="XMLID_283_" class="st1" d="M256.7,585.3c-3.1,0-5.6-1.1-7.8-3.2c-2.1-2.1-3.2-4.7-3.2-7.8c0-3.1,1.1-5.6,3.2-7.8
			c2.1-2.1,4.7-3.2,7.8-3.2c3.1,0,5.6,1.1,7.8,3.2c2.1,2.1,3.2,4.7,3.2,7.8c0,3.1-1.1,5.6-3.2,7.8
			C262.4,584.2,259.8,585.3,256.7,585.3z M263.3,690.2c-1.7,1.7-3.9,2.6-6.5,2.6c-2.5,0-4.6-0.9-6.3-2.6c-1.7-1.7-2.5-3.8-2.5-6.4
			v-79.7c0-2.5,0.7-4.6,2.5-6.4c1.7-1.7,3.8-2.6,6.3-2.6c2.5,0,4.8,0.9,6.5,2.6c1.7,1.7,2.7,3.9,2.7,6.4v79.7
			C266,686.4,265,688.5,263.3,690.2z"/>
	</g>
	<g id="XMLID_286_">
		<path id="XMLID_287_" class="st1" d="M278.2,732.6c-2.5,0-4.6-0.9-6.4-2.6c-1.7-1.7-2.6-3.9-2.6-6.4c0-2.5,0.9-4.6,2.6-6.4
			c1.7-1.7,3.9-2.6,6.4-2.6c3.1,0,5.5-1.1,7.7-3.2c2.1-2.1,3.1-4.7,3.1-7.8v-99.6c0-2.5,1-4.6,2.7-6.4c1.7-1.7,3.9-2.6,6.4-2.6
			c2.5,0,4.6,0.9,6.3,2.6c1.7,1.7,2.6,3.9,2.6,6.4v99.6c0,4-0.7,7.7-2.2,11.3c-1.5,3.5-3.6,6.6-6.1,9.2c-2.6,2.6-5.6,4.6-9.1,6.2
			C286,731.9,282.2,732.6,278.2,732.6z M298.2,585.3c-3.1,0-5.6-1.1-7.8-3.2c-2.1-2.1-3.2-4.7-3.2-7.8c0-3.1,1.1-5.6,3.2-7.8
			c2.1-2.1,4.7-3.2,7.8-3.2c3.1,0,5.6,1.1,7.8,3.2c2.1,2.1,3.2,4.7,3.2,7.8c0,3.1-1.1,5.6-3.2,7.8
			C303.8,584.2,301.2,585.3,298.2,585.3z"/>
	</g>
	<g id="XMLID_290_">
		<path id="XMLID_291_" class="st1" d="M338,692.8c-2.5,0-4.7-0.9-6.4-2.6c-1.7-1.7-2.6-3.8-2.6-6.4V605c0-2.5,0.9-4.7,2.6-6.4
			c1.7-1.7,3.9-2.6,6.4-2.6h19.9c4,0,7.7,0.8,11.3,2.3c3.5,1.5,6.6,3.6,9.2,6.2c2.6,2.6,4.8,5.6,6.3,9.2c1.5,3.5,2.4,7.3,2.4,11.3
			v58.9c0,2.5-1,4.6-2.8,6.4c-1.8,1.7-3.9,2.6-6.3,2.6c-2.5,0-4.6-0.9-6.3-2.6c-1.7-1.7-2.5-3.8-2.5-6.4v-58.9
			c0-3.1-1.1-5.6-3.3-7.7c-2.1-2.1-4.8-3.2-7.8-3.2H347v69.8c0,2.5-0.9,4.6-2.7,6.4C342.5,691.9,340.4,692.8,338,692.8z"/>
	</g>
	<g id="XMLID_293_">
		<path id="XMLID_294_" class="st1" d="M454.3,693.4c-2.7,0-4.8-0.9-6.6-2.8c-1.9-1.9-2.6-4.1-2.6-6.8V568.3c0-2.3,0.5-4.2,1.9-6
			c1.3-1.7,3-2.9,5.3-3.4c2.3-0.5,4.3-0.3,6.3,0.7c2,1,3.4,2.6,4.4,4.7c2.7,5.8,5.4,11.6,8.2,17.3c2.3,5,4.8,10.4,7.6,16
			c2.8,5.6,5.3,10.9,7.6,15.8c2.3-4.9,4.7-10.2,7.5-15.8c2.7-5.6,5.2-11,7.5-16c2.7-5.7,5.4-11.5,8.2-17.3c1.1-2.1,2.6-3.7,4.5-4.7
			c1.9-1,4-1.2,6.3-0.7c2.3,0.5,4.3,1.7,5.7,3.4c1.4,1.7,2.3,3.7,2.3,6v115.5c0,2.7-1.1,4.9-3,6.8c-1.9,1.9-4.2,2.8-6.9,2.8
			c-2.7,0-5.2-0.9-7-2.8c-1.9-1.9-3.1-4.1-3.1-6.8v-72.7c-1,3.6-3.2,7.1-4.8,10.6c-1.6,3.5-2.9,6.5-4.3,9.2
			c-1.5,3.2-2.9,6.2-4.3,9.2c-0.8,1.7-1.9,3.1-3.5,4.1c-1.5,1-3.2,1.5-5.1,1.5c-4.1,0-7-1.9-8.8-5.6c-1.5-2.9-2.9-6-4.4-9.2
			c-1.3-2.7-2.7-5.7-4.3-9.2c-1.6-3.5-3.7-7-4.7-10.6v72.7c0,2.7-1,4.9-2.9,6.8C459.3,692.5,456.9,693.4,454.3,693.4z"/>
	</g>
	<g id="XMLID_296_">
		<path id="XMLID_297_" class="st1" d="M564.4,690.6c-5.6-2.3-10.2-5.8-13.4-10.6c-3.2-4.8-5-10.2-5-16.1v-39.8c0-4,1-7.7,2.5-11.3
			c1.5-3.5,3.7-6.6,6.3-9.2c2.6-2.6,5.7-4.6,9.2-6.2c3.5-1.5,7.3-2.3,11.3-2.3s7.7,0.8,11.3,2.3c3.5,1.5,6.6,3.6,9.2,6.2
			c2.6,2.6,4.5,5.6,6.1,9.2c1.5,3.5,2.2,7.3,2.2,11.3V644c0,2.5-0.7,4.7-2.5,6.4c-1.7,1.7-3.7,2.6-6.3,2.6H564v10.9
			c0,2.3,0.8,4.3,2,6.1c1.2,1.8,3,3.2,5.1,4.1c2.1,0.8,4.3,1,6.4,0.6c2.1-0.4,4-1.4,5.6-3c1.7-1.9,3.8-2.8,6.2-2.8
			c2.5,0,4.7,0.9,6.6,2.8c1.7,1.9,2.6,4,2.6,6.4s-0.9,4.5-2.6,6.4c-4.2,4.1-9.2,6.7-14.8,7.9C575.4,693.4,569.9,692.9,564.4,690.6z
			 M575.4,613.1c-3.1,0-5.8,1.1-8,3.2c-2.1,2.1-3.4,4.7-3.4,7.8V635h22v-10.9c0-3.1-0.9-5.6-3-7.8
			C580.8,614.2,578.4,613.1,575.4,613.1z"/>
	</g>
	<g id="XMLID_300_">
		<path id="XMLID_301_" class="st1" d="M631.1,692.8c-2.5,0-4.7-0.9-6.5-2.6c-1.7-1.7-2.7-3.8-2.7-6.4V605c0-2.5,0.9-4.7,2.7-6.4
			c1.7-1.7,3.9-2.6,6.5-2.6H651c4,0,7.7,0.8,11.3,2.3c3.5,1.5,6.6,3.6,9.2,6.2c2.6,2.6,4.7,5.6,6.2,9.2c1.5,3.5,2.3,7.3,2.3,11.3
			v58.9c0,2.5-0.9,4.6-2.7,6.4s-3.9,2.6-6.3,2.6c-2.5,0-4.7-0.9-6.4-2.6c-1.7-1.7-2.6-3.8-2.6-6.4v-58.9c0-3.1-1.1-5.6-3.2-7.7
			c-2.1-2.1-4.7-3.2-7.8-3.2h-11v69.8c0,2.5-0.9,4.6-2.6,6.4C635.6,691.9,633.5,692.8,631.1,692.8z"/>
	</g>
	<g id="XMLID_303_">
		<path id="XMLID_304_" class="st1" d="M716.3,689.7c-3.5-1.5-6.6-3.6-9.2-6.2c-2.6-2.6-4.5-5.6-6-9.2c-1.5-3.5-2.1-7.3-2.1-11.2
			v-58.9c0-2.5,0.7-4.6,2.4-6.4c1.7-1.7,3.8-2.6,6.3-2.6c2.5,0,4.8,0.9,6.5,2.6c1.7,1.7,2.8,3.9,2.8,6.4v58.9c0,3.1,0.8,5.6,3,7.7
			c2.1,2.1,4.5,3.1,7.5,3.1H738v-69.8c0-2.5,1.1-4.6,2.8-6.4c1.7-1.7,4-2.6,6.5-2.6c2.5,0,4.5,0.9,6.2,2.6c1.7,1.7,2.5,3.9,2.5,6.4
			V683c0,2.5-0.7,4.6-2.4,6.4c-1.7,1.7-3.7,2.6-6.2,2.6h-19.9C723.5,692,719.8,691.2,716.3,689.7z"/>
	</g>
	<g id="XMLID_306_">
		<path id="XMLID_307_" class="st0" d="M575.4,716.3c-12.5,0-24.4-5.9-34.4-17.2c-1.5-1.7-1.4-4.3,0.3-5.9c1.7-1.5,4.3-1.4,5.9,0.3
			c8.4,9.4,18.1,14.4,28.2,14.4c10.1,0,19.8-5,28.2-14.4c1.5-1.7,4.2-1.9,5.9-0.3c1.7,1.5,1.9,4.2,0.3,5.9
			C599.8,710.4,587.9,716.3,575.4,716.3z"/>
	</g>
</g>
</svg>
