<?xml version="1.0" encoding="utf-8"?>
<!-- Generator: Adobe Illustrator 19.2.1, SVG Export Plug-In . SVG Version: 6.00 Build 0)  -->
<svg version="1.1" id="Layer_1" xmlns="http://www.w3.org/2000/svg" xmlns:xlink="http://www.w3.org/1999/xlink" x="0px" y="0px"
	 viewBox="0 0 358.6 279.6" style="enable-background:new 0 0 358.6 279.6;" xml:space="preserve">
<style type="text/css">
	.st0{fill:#F9A01B;}
	.st1{fill:#484848;}
</style>
<g>
	<g id="XMLID_273_">
		<g id="XMLID_274_">
			<path id="XMLID_275_" class="st0" d="M147.1,77.5v64.1h55.3V77.5c32.5,11.1,50.8,34.8,53.7,64.1h61.5
				c-4.2-65.1-63.1-127.5-138-131.1V8.2c0-3.9-1-7.2-4.9-7.2s-4.9,3.3-4.9,7.2v2.3C98.3,14,38.8,76.5,34.6,141.6h61.5
				C99,112.3,117.9,88.5,147.1,77.5z"/>
		</g>
		<g id="XMLID_276_">
			<path id="XMLID_277_" class="st0" d="M335.2,148.1H16.7c-4.2,0-7.5,3.9-7.5,8.1s3.3,8.1,7.5,8.1h17.2l9.4,16.3h265.2l9.4-16.3
				h16.9c4.2,0,7.5-3.9,7.5-8.1S339.1,148.1,335.2,148.1z"/>
		</g>
	</g>
	<g>
		<path class="st1" d="M5.4,261.6c-1,0-1.7-0.3-2.4-1c-0.7-0.7-1-1.7-1-2.4v-42.7c0-0.7,0.3-1.7,0.7-2.4c0.3-0.7,1-1,2-1.3
			c0.7-0.3,1.7,0,2.4,0.3s1.3,1,1.7,1.7c1,2,2,4.4,3,6.4c0.7,2,1.7,3.7,2.7,6.1c1,2,2,4,2.7,5.7c0.7-1.7,1.7-3.7,2.7-5.7
			c1-2,2-4,2.7-6.1c1-2,2-4.4,3-6.4c0.3-0.7,1-1.3,1.7-1.7s1.3-0.3,2.4-0.3c0.7,0.3,1.3,0.7,2,1.3c0.3,0.7,0.7,1.3,0.7,2.4v42.4
			c0,1-0.3,1.7-1,2.4s-1.3,1-2.4,1c-1,0-1.7-0.3-2.4-1c-0.7-0.7-1-1.7-1-2.4V231c-0.7,1.3-1.3,2.7-1.7,4c-0.7,1.3-1,2.4-1.7,3.4
			c-0.7,1.3-1,2.4-1.7,3.4c-0.3,0.7-0.7,1-1.3,1.7c-0.7,0.3-1,0.7-1.7,0.7c-1.3,0-2.4-0.7-3-2c-0.7-1-1-2.4-1.7-3.4
			c-0.3-1-1-2-1.7-3.4c-0.7-1.3-1-2.7-1.7-4v26.9c0,1-0.3,1.7-1,2.4C7,261.3,6.4,261.6,5.4,261.6z"/>
		<path class="st1" d="M42,221.6c-1,0-2-0.3-2.7-1.3c-0.7-0.7-1-1.7-1-3c0-1,0.3-2,1-3c0.7-0.7,1.7-1.3,2.7-1.3s2,0.3,2.7,1.3
			c0.7,0.7,1,1.7,1,3c0,1-0.3,2-1,3C44,221.3,43.4,221.6,42,221.6z M45.4,257.9c0,1-0.3,1.7-1,2.4s-1.3,1-2.4,1s-1.7-0.3-2.4-1
			c-0.7-0.7-1-1.3-1-2.4v-29.6c0-1,0.3-1.7,1-2.4c0.7-0.7,1.3-1,2.4-1s1.7,0.3,2.4,1c0.7,0.7,1,1.3,1,2.4V257.9z"/>
		<path class="st1" d="M49.7,276.1c-1,0-1.7-0.3-2.4-1c-0.7-0.7-1-1.3-1-2.4c0-1,0.3-1.7,1-2.4s1.3-1,2.4-1s2-0.3,2.7-1.3
			c0.7-0.7,1-1.7,1-3v-37c0-1,0.3-1.7,1-2.4c0.7-0.7,1.3-1,2.4-1c1,0,1.7,0.3,2.4,1c0.7,0.7,1,1.3,1,2.4v37c0,1.3-0.3,3-0.7,4
			c-0.7,1.3-1.3,2.4-2.4,3.4s-2,1.7-3.4,2.4C52.4,275.8,51.1,276.1,49.7,276.1z M56.8,221.6c-1,0-2-0.3-2.7-1.3c-0.7-0.7-1-1.7-1-3
			c0-1,0.3-2,1-3c0.7-0.7,1.7-1.3,2.7-1.3s2,0.3,2.7,1.3c0.7,0.7,1,1.7,1,3c0,1-0.3,2-1,3C58.8,221.3,57.8,221.6,56.8,221.6z"/>
		<path class="st1" d="M70.9,261.3c-1,0-1.7-0.3-2.4-1c-0.7-0.7-1-1.3-1-2.4v-29.2c0-1,0.3-1.7,1-2.4c0.7-0.7,1.3-1,2.4-1H78
			c1.3,0,2.7,0.3,4,1c1.3,0.7,2.4,1.3,3.4,2.4c1,1,1.7,2,2.4,3.4c0.7,1.3,0.7,2.7,0.7,4v21.9c0,1-0.3,1.7-1,2.4
			c-0.7,0.7-1.3,1-2.4,1s-1.7-0.3-2.4-1c-0.7-0.7-1-1.3-1-2.4v-21.9c0-1-0.3-2-1-3c-0.7-1-1.7-1.3-2.7-1.3h-4v25.9
			c0,1-0.3,1.7-1,2.4C72.6,261,71.9,261.3,70.9,261.3z"/>
		<path class="st1" d="M132.8,228.7c0,2.4-0.7,4.7-1.7,6.4c-1,2-2.7,3.4-4.7,4.4l6.1,17.1c0.3,1,0.3,1.7,0,2.7c-0.3,1-1,1.3-2,1.7
			c-1,0.3-1.7,0.3-2.7,0c-0.7-0.3-1.3-1-1.7-2l-6.7-18.5h-3.7v17.1c0,1-0.3,1.7-1,2.4c-0.7,0.7-1.3,1-2.4,1c-1,0-1.7-0.3-2.4-1
			c-0.7-0.7-1-1.7-1-2.4v-42.4c0-1,0.3-1.7,1-2.4c0.7-0.7,1.3-1,2.4-1h8.4c1.7,0,3.4,0.3,4.7,1c1.3,0.7,2.7,1.7,3.7,2.7
			c1,1,2,2.4,2.7,4c0.7,1.3,1,3,1,4.7C132.8,224.3,132.8,228.7,132.8,228.7z M115.6,233.7h5c1.3,0,2.7-0.7,3.7-1.7
			c1-1,1.3-2.4,1.3-3.7v-4c0-1.3-0.3-2.7-1.3-3.7c-1-1-2.4-1.7-3.7-1.7h-5V233.7z"/>
		<path class="st1" d="M144.2,260.6c-2-0.7-3.7-2-4.7-4c-1-1.7-1.7-3.7-1.7-6.1v-14.8c0-1.3,0.3-3,0.7-4c0.3-1,1.3-2.4,2.4-3.4
			c1-1,2-1.7,3.4-2.4c1.3-0.7,2.7-1,4-1c1.3,0,2.7,0.3,4,1c1.3,0.7,2.4,1.3,3.4,2.4c1,1,1.7,2,2.4,3.4c0.7,1.3,0.7,2.7,0.7,4v7.4
			c0,1-0.3,1.7-1,2.4c-0.7,0.7-1.3,1-2.4,1h-11.1v4c0,0.7,0.3,1.7,0.7,2.4s1,1,1.7,1.7c0.7,0.3,1.3,0.3,2.4,0.3c0.7,0,1.3-0.7,2-1
			c0.7-0.7,1.3-1,2.4-1c1,0,1.7,0.3,2.4,1c0.7,0.7,1,1.3,1,2.4c0,1-0.3,1.7-1,2.4c-1.3,1.7-3.4,2.4-5.4,3
			C147.9,261.6,145.9,261.3,144.2,260.6z M147.9,232.1c-1,0-2,0.3-2.7,1.3c-0.7,0.7-1,1.7-1,3v4h7.7v-4c0-1-0.3-2-1-3
			C149.9,232.4,148.9,232.1,147.9,232.1z"/>
		<path class="st1" d="M174.1,253.9c1-0.7,1.3-1.7,1-3c0-1.3-0.7-2-1.3-2.7l-6.7-4.7c-1.3-1-2-2-2.7-3.4c-0.7-1.3-1-2.7-1.3-4.4
			c0-1.7,0-3,0.7-4.4c0.7-1.3,1.3-2.7,2.4-3.7c1-1,2.4-1.7,3.7-2c1.3-0.3,2.7-0.7,4.4-0.3c1.3,0.3,2.7,0.7,4,1.7c1.3,0.7,2,2,3,3.4
			c0.3,0.7,0.7,1.7,0.3,2.4c-0.3,1-0.7,1.7-1.7,2c-0.7,0.3-1.7,0.7-2.4,0.3c-1-0.3-1.3-0.7-2-1.3c-0.7-1-1.3-1.3-2.4-1.7
			c-1-0.3-1.7,0-2.7,0.7c-0.7,0.7-1,1.7-1,2.7s0.7,2,1.3,2.4l6.7,4.7c1.3,1,2.4,2,3,3.4c0.7,1.3,1,2.7,1.3,4.4c0,1.7,0,3-0.7,4.4
			c-0.7,1.3-1.3,2.7-2.4,3.7c-1,1-2.4,1.7-3.7,2.4c-1.3,0.3-3,0.7-4.4,0.3c-1.3-0.3-3-0.7-4-1.7c-1.3-1-2-2-3-3.4
			c-0.3-0.7-0.7-1.7-0.3-2.4c0.3-1,0.7-1.7,1.3-2c0.7-0.3,1.7-0.7,2.4-0.3c1,0.3,1.3,0.7,2,1.3c0.7,1,1.3,1.7,2.4,1.7
			C172.4,254.9,173.5,254.6,174.1,253.9z"/>
		<path class="st1" d="M185.6,231.4c-0.7-0.7-1-1.3-1-2.4c0-1,0.3-1.7,1-2.4c0.7-0.7,1.3-1,2.4-1h2.4v-11.8c0-1,0.3-1.7,1-2.4
			c0.7-0.7,1.3-1,2.4-1c1,0,1.7,0.3,2.4,1c0.7,0.7,1,1.3,1,2.4v11.8h4c1,0,1.7,0.3,2.4,1c0.7,0.7,1,1.3,1,2.4c0,1-0.3,1.7-1,2.4
			c-0.7,0.7-1.3,1-2.4,1h-4v18.5c0,1,0.3,2,1,3c0.7,0.7,1.7,1.3,2.7,1.3c1,0,1.7,0.3,2.4,1c0.7,0.7,1,1.3,1,2.4c0,1-0.3,1.7-1,2.4
			c-0.7,0.7-1.3,1-2.4,1c-1.3,0-2.7-0.3-4-1c-1.3-0.7-2.4-1.3-3.4-2.4c-1-1-1.7-2-2.4-3.4c-0.7-1.3-0.7-2.7-0.7-4v-18.5h-2.4
			C186.9,232.1,186.2,231.7,185.6,231.4z"/>
		<path class="st1" d="M220.2,239.8v-4c0-0.7-0.3-1.3-0.7-2s-1-1-1.7-1.3s-1.3-0.3-2.4-0.3c-0.7,0-1.3,0.7-2,1c-0.7,0.7-1.3,1-2.4,1
			c-1,0-1.7-0.3-2.4-1c-0.7-0.7-1-1.3-1-2.4c0-1,0.3-1.7,1-2.4c1.3-1.7,3-2.4,5-3c2-0.3,4-0.3,5.7,0.7c2,0.7,3.4,2,4.7,4
			c1,1.7,1.7,3.7,1.7,5.7v21.9c0,1-0.3,1.7-1,2.4c-0.7,0.7-1.3,1-2.4,1h-7.1c-1.3,0-2.7-0.3-4-1c-1.3-0.7-2.4-1.3-3.4-2.4
			c-1-1-1.7-2-2.4-3.4c-0.7-1.3-0.7-2.7-0.7-4c0-1.3,0.3-3,0.7-4c0.3-1,1.3-2.4,2.4-3.4c1-1,2-1.7,3.4-2.4c1.3-0.7,2.7-1,4-1h4.7
			V239.8z M216.2,246.5c-1,0-2,0.3-2.7,1.3c-0.7,1-1,1.7-1,3c0,1,0.3,2,1,3c0.7,0.7,1.7,1.3,2.7,1.3h4v-8.1h-4V246.5z"/>
		<path class="st1" d="M239.3,260.3c-1.3-0.7-2.4-1.3-3.4-2.4c-1-1-1.7-2-2.4-3.4c-0.7-1.3-0.7-2.7-0.7-4v-21.9c0-1,0.3-1.7,1-2.4
			c0.7-0.7,1.3-1,2.4-1c1,0,1.7,0.3,2.4,1c0.7,0.7,1,1.3,1,2.4v21.9c0,1,0.3,2,1,3c0.7,0.7,1.7,1.3,2.7,1.3h4V229c0-1,0.3-1.7,1-2.4
			c0.7-0.7,1.3-1,2.4-1c1,0,1.7,0.3,2.4,1c0.7,0.7,1,1.3,1,2.4v29.2c0,1-0.3,1.7-1,2.4c-0.7,0.7-1.3,1-2.4,1h-7.1
			C242,261,240.7,261,239.3,260.3z"/>
		<path class="st1" d="M264.6,261.3c-1,0-1.7-0.3-2.4-1c-0.7-0.7-1-1.3-1-2.4v-29.2c0-1,0.3-1.7,1-2.4c0.7-0.7,1.3-1,2.4-1h7.1
			c1.7,0,3.4,0.3,5,1.3c0.7,0.3,1.3,1,1.7,2c0.3,1,0,1.7-0.3,2.7c-0.3,0.7-1,1.3-2,1.7c-0.7,0.3-1.7,0-2.4-0.3s-1.3-0.7-2-0.7h-4
			v25.9c0,1-0.3,1.7-1,2.4C266.2,261,265.6,261.3,264.6,261.3z"/>
		<path class="st1" d="M293.1,239.8v-4c0-0.7-0.3-1.3-0.7-2s-1-1-1.7-1.3s-1.3-0.3-2.4-0.3c-0.7,0-1.3,0.7-2,1c-0.7,0.7-1.3,1-2.4,1
			s-1.7-0.3-2.4-1c-0.7-0.7-1-1.3-1-2.4c0-1,0.3-1.7,1-2.4c1.3-1.7,3-2.4,5-3c2-0.3,4-0.3,5.7,0.7c2,0.7,3.4,2,4.7,4
			c1,1.7,1.7,3.7,1.7,5.7v21.9c0,1-0.3,1.7-1,2.4c-0.7,0.7-1.3,1-2.4,1h-7.1c-1.3,0-2.7-0.3-4-1c-1.3-0.7-2.4-1.3-3.4-2.4
			c-1-1-1.7-2-2.4-3.4c-0.7-1.3-0.7-2.7-0.7-4c0-1.3,0.3-3,0.7-4c0.7-1.3,1.3-2.4,2.4-3.4c1-1,2-1.7,3.4-2.4s2.7-1,4-1h4.7V239.8z
			 M289.4,246.5c-1,0-2,0.3-2.7,1.3c-0.7,0.7-1,1.7-1,3c0,1,0.3,2,1,3c0.7,0.7,1.7,1.3,2.7,1.3h4v-8.1h-4V246.5z"/>
		<path class="st1" d="M309.9,261.3c-1,0-1.7-0.3-2.4-1c-0.7-0.7-1-1.3-1-2.4v-29.2c0-1,0.3-1.7,1-2.4c0.7-0.7,1.3-1,2.4-1h7.1
			c1.3,0,2.7,0.3,4,1c1.3,0.7,2.4,1.3,3.4,2.4c1,1,1.7,2,2.4,3.4c0.7,1.3,0.7,2.7,0.7,4v21.9c0,1-0.3,1.7-1,2.4
			c-0.7,0.7-1.3,1-2.4,1s-1.7-0.3-2.4-1c-0.7-0.7-1-1.3-1-2.4v-21.9c0-1-0.3-2-1-3c-0.7-1-1.7-1.3-2.7-1.3h-3.7v25.9
			c0,1-0.3,1.7-1,2.4C311.6,261,311,261.3,309.9,261.3z"/>
		<path class="st1" d="M332.5,231.4c-0.7-0.7-1-1.3-1-2.4c0-1,0.3-1.7,1-2.4s1.3-1,2.4-1h2.4v-11.8c0-1,0.3-1.7,1-2.4s1.3-1,2.4-1
			c1,0,1.7,0.3,2.4,1c0.7,0.7,1,1.3,1,2.4v11.8h4c1,0,1.7,0.3,2.4,1c0.7,0.7,1,1.3,1,2.4c0,1-0.3,1.7-1,2.4s-1.3,1-2.4,1h-4.4v18.5
			c0,1,0.3,2,1,3c0.7,1,1.7,1.3,2.7,1.3s1.7,0.3,2.4,1c0.7,0.7,1,1.3,1,2.4c0,1-0.3,1.7-1,2.4s-1.3,1-2.4,1c-1.3,0-2.7-0.3-4-1
			s-2.4-1.3-3.4-2.4c-1-1-1.7-2-2.4-3.4c-0.7-1.3-0.7-2.7-0.7-4v-18.5h-2.4C333.8,232.1,332.8,231.7,332.5,231.4z"/>
	</g>
	<g id="XMLID_278_">
		<path id="XMLID_279_" class="st0" d="M148.6,269.4c-4.4,0-8.7-2-12.1-6.1c-0.7-0.7-0.3-1.7,0-2c0.7-0.7,1.7-0.3,2,0
			c3,3.4,6.4,5,9.7,5s7.1-1.7,9.7-5c0.7-0.7,1.3-0.7,2,0c0.7,0.7,0.7,1.3,0,2C157,267,152.9,269.4,148.6,269.4z"/>
	</g>
</g>
</svg>
