<?xml version="1.0" encoding="utf-8"?>
<!-- Generator: Adobe Illustrator 19.2.1, SVG Export Plug-In . SVG Version: 6.00 Build 0)  -->
<svg version="1.1" id="Layer_1" xmlns="http://www.w3.org/2000/svg" xmlns:xlink="http://www.w3.org/1999/xlink" x="0px" y="0px"
	 viewBox="0 0 24 24" style="enable-background:new 0 0 24 24;" xml:space="preserve">
<style type="text/css">
	.st0{fill:#A9B0C0;}
	.st1{opacity:0.3;fill:#A9B0C0;enable-background:new    ;}
</style>
<title>Stockholm-icons / Cooking / Knife&amp;fork#2</title>
<desc>Created with Sketch.</desc>
<g id="Book-open" transform="translate(-1 -0.006)">
	<path id="Combined-Shape" class="st0" d="M14.2,18.8c2.7-1,5.5-1.6,8.3-1.7V5.6l0,0c0-0.3-0.2-0.5-0.5-0.5h0
		c-2.9,0.1-5.8,0.8-8.5,2v11.2l0,0c0,0.3,0.2,0.5,0.5,0.5C14.1,18.9,14.1,18.9,14.2,18.8L14.2,18.8z"/>
	<path id="Path-41-Copy" class="st1" d="M11.8,18.8c-2.7-1-5.5-1.6-8.3-1.7V5.6l0,0c0-0.3,0.2-0.5,0.5-0.5h0c2.9,0.1,5.8,0.8,8.5,2
		v11.2l0,0c0,0.3-0.2,0.5-0.5,0.5C11.9,18.9,11.9,18.9,11.8,18.8L11.8,18.8z"/>
</g>
</svg>
