<svg xmlns="http://www.w3.org/2000/svg" width="58" height="58" viewBox="0 0 58 58">
  <g id="Group_14" data-name="Group 14" transform="translate(-810 -131)">
    <g id="Group_15" data-name="Group 15" transform="translate(810 131)">
      <path id="Fill_1_Copy_2" data-name="Fill 1 Copy 2" d="M58,29.031a73.038,73.038,0,0,1-1.906,17.19c-.261,1.021-.625,2.017-.955,3.02a9.181,9.181,0,0,1-6.058,6,47.065,47.065,0,0,1-10.792,2.266,87.554,87.554,0,0,1-16.981.156A51.412,51.412,0,0,1,9.048,55.3a9.606,9.606,0,0,1-6.354-6.341A47.2,47.2,0,0,1,.585,39.2,88.793,88.793,0,0,1,.277,21.968,52,52,0,0,1,2.663,9.131,9.7,9.7,0,0,1,9.113,2.677,51.6,51.6,0,0,1,21.3.337,88.205,88.205,0,0,1,38.277.489,57.273,57.273,0,0,1,48,2.367a10.435,10.435,0,0,1,7.648,7.75A59.7,59.7,0,0,1,57.71,22.363c.156,2.219.2,4.445.29,6.668" fill="rgba(140,84,255,0.1)"/>
    </g>
    <g id="Stockholm-icons-_-Food-_-Dinner" data-name="Stockholm-icons-/-Food-/-Dinner" transform="translate(826.5 145.5)">
      <rect id="bound" width="26" height="26" fill="none"/>
      <path id="Combined-Shape" d="M12.625,8.25A2.125,2.125,0,1,1,14.75,6.125,2.125,2.125,0,0,1,12.625,8.25ZM3.063,18.875H22.188a1.063,1.063,0,0,1,0,2.125H3.063a1.063,1.063,0,0,1,0-2.125Z" transform="translate(0.125 0.25)" fill="#8c54ff" fill-rule="evenodd" opacity="0.3"/>
      <path id="Oval-38" d="M22.125,16.563A9.563,9.563,0,0,0,3,16.563Z" transform="translate(0.188 0.438)" fill="#8c54ff" fill-rule="evenodd"/>
    </g>
  </g>
</svg>
