<?xml version="1.0" encoding="utf-8"?>
<!-- Generator: Adobe Illustrator 19.2.1, SVG Export Plug-In . SVG Version: 6.00 Build 0)  -->
<svg version="1.1" id="Layer_1" xmlns="http://www.w3.org/2000/svg" xmlns:xlink="http://www.w3.org/1999/xlink" x="0px" y="0px"
	 viewBox="0 0 300 175.8" style="enable-background:new 0 0 300 175.8;" xml:space="preserve">
<style type="text/css">
	.st0{fill:none;stroke:#3F3D56;stroke-width:0.5;stroke-miterlimit:10;}
	.st1{fill:#FFA000;}
	.st2{fill:#F2F2F2;}
	.st3{fill:url(#Shape_1_);}
	.st4{fill:#3F3D56;}
	.st5{opacity:0.1;enable-background:new    ;}
	.st6{fill:#FFB9B9;}
	.st7{opacity:5.000000e-002;enable-background:new    ;}
	.st8{fill:#575A89;}
	.st9{fill:#CDD0DB;}
	.st10{fill:#9DA7C0;}
	.st11{opacity:0.3;fill:#FFFFFF;enable-background:new    ;}
	.st12{opacity:0.1;}
	.st13{fill:#57B894;}
	.st14{fill:#656380;}
	.st15{opacity:0.2;enable-background:new    ;}
</style>
<g id="undraw_accept_request_vdsd" transform="translate(0 0)">
	<ellipse id="Oval" class="st0" cx="180" cy="23.3" rx="7.6" ry="7.6"/>
	<path id="Path" class="st1" d="M195.6,8.9L193.7,7c-0.4-0.4-1-0.4-1.4,0c0,0,0,0,0,0l-11.6,11.5l-4.9-4.9c-0.4-0.4-1-0.4-1.4,0
		c0,0,0,0,0,0l-1.9,1.8c-0.4,0.4-0.4,1,0,1.4l7.4,7.5c0.4,0.4,1,0.4,1.4,0l14.1-14C196,9.9,196,9.3,195.6,8.9
		C195.6,8.9,195.6,8.9,195.6,8.9L195.6,8.9z"/>
	<path id="Rectangle" class="st2" d="M7.8,19.4h122.8c4.3,0,7.8,3.5,7.8,7.8v0.2c0,4.3-3.5,7.8-7.8,7.8H7.8c-4.3,0-7.8-3.5-7.8-7.8
		v-0.2C0,22.9,3.5,19.4,7.8,19.4z"/>
	<path id="Rectangle-2" class="st2" d="M7.9,46.8h122.8c4.3,0,7.8,3.5,7.8,7.8v0.2c0,4.3-3.5,7.8-7.8,7.8H7.9
		c-4.3,0-7.8-3.5-7.8-7.8v-0.2C0.2,50.3,3.7,46.8,7.9,46.8z"/>
	<path id="Rectangle-3" class="st2" d="M8.1,74.1h122.8c4.3,0,7.8,3.5,7.8,7.8v0.2c0,4.3-3.5,7.8-7.8,7.8H8.1
		c-4.3,0-7.8-3.5-7.8-7.8v-0.2C0.3,77.6,3.8,74.1,8.1,74.1z"/>
	<path id="Rectangle-4" class="st2" d="M8.3,101.5h122.8c4.3,0,7.8,3.5,7.8,7.8v0.2c0,4.3-3.5,7.8-7.8,7.8H8.3
		c-4.3,0-7.8-3.5-7.8-7.8v-0.2C0.5,105,4,101.5,8.3,101.5z"/>
	<path id="Rectangle-5" class="st0" d="M12.1,15.4h122.8c4.3,0,7.8,3.5,7.8,7.8v0.2c0,4.3-3.5,7.8-7.8,7.8H12.1
		c-4.3,0-7.8-3.5-7.8-7.8v-0.2C4.3,18.8,7.8,15.4,12.1,15.4z"/>
	<path id="Rectangle-6" class="st0" d="M12.3,42.7h122.8c4.3,0,7.8,3.5,7.8,7.8v0.2c0,4.3-3.5,7.8-7.8,7.8H12.3
		c-4.3,0-7.8-3.5-7.8-7.8v-0.2C4.5,46.2,8,42.7,12.3,42.7z"/>
	<path id="Rectangle-7" class="st0" d="M12.4,70.1h122.8c4.3,0,7.8,3.5,7.8,7.8v0.2c0,4.3-3.5,7.8-7.8,7.8H12.4
		c-4.3,0-7.8-3.5-7.8-7.8v-0.2C4.7,73.5,8.1,70.1,12.4,70.1z"/>
	<path id="Rectangle-8" class="st0" d="M12.6,97.4h122.8c4.3,0,7.8,3.5,7.8,7.8v0.2c0,4.3-3.5,7.8-7.8,7.8H12.6
		c-4.3,0-7.8-3.5-7.8-7.8v-0.2C4.8,100.9,8.3,97.4,12.6,97.4z"/>
	<ellipse id="Oval-2" class="st0" cx="180" cy="50.7" rx="7.6" ry="7.6"/>
	<ellipse id="Oval-3" class="st0" cx="180" cy="78.2" rx="7.6" ry="7.6"/>
	<ellipse id="Oval-4" class="st0" cx="180" cy="105.7" rx="7.6" ry="7.6"/>
	<path id="Path-2" class="st1" d="M195.6,36.6l-1.8-1.9c-0.4-0.4-1-0.4-1.4,0c0,0,0,0,0,0l-11.6,11.5l-4.9-4.9c-0.4-0.4-1-0.4-1.4,0
		c0,0,0,0,0,0l-1.9,1.8c-0.4,0.4-0.4,1,0,1.4l7.4,7.5c0.4,0.4,1,0.4,1.4,0l14.1-14C196,37.6,196,37,195.6,36.6
		C195.6,36.6,195.6,36.6,195.6,36.6L195.6,36.6z"/>
	<path id="Path-3" class="st1" d="M195.6,92.1l-1.8-1.9c-0.4-0.4-1-0.4-1.4,0c0,0,0,0,0,0l-11.6,11.5l-4.9-4.9c-0.4-0.4-1-0.4-1.4,0
		c0,0,0,0,0,0l-1.9,1.8c-0.4,0.4-0.4,1,0,1.4l7.4,7.5c0.4,0.4,1,0.4,1.4,0l14.1-14C196,93.1,196,92.5,195.6,92.1
		C195.6,92.1,195.6,92.1,195.6,92.1L195.6,92.1z"/>
	<ellipse id="Oval-5" class="st2" cx="245.5" cy="168.6" rx="46.7" ry="7.3"/>
	<ellipse id="Oval-6" class="st0" cx="253.1" cy="165.8" rx="46.7" ry="7.3"/>
	
		<linearGradient id="Shape_1_" gradientUnits="userSpaceOnUse" x1="-40.6196" y1="363.4839" x2="-40.6196" y2="364.4839" gradientTransform="matrix(47.7063 0 0 -171.769 2192.0374 62607.0273)">
		<stop  offset="0" style="stop-color:#808080;stop-opacity:0.251"/>
		<stop  offset="0.535" style="stop-color:#808080;stop-opacity:0.122"/>
		<stop  offset="1" style="stop-color:#808080;stop-opacity:0.102"/>
	</linearGradient>
	<path id="Shape" class="st3" d="M234.5,171.8L234.5,171.8c-0.1,0-0.2,0-0.3,0h0c-0.1,0-0.2,0-0.3,0h0h0c-0.1,0-0.2,0-0.2,0h0
		c-0.1,0-0.2,0-0.3,0h0h0c-0.1,0-0.2,0-0.2-0.1l0,0c-0.1,0-0.2,0-0.3-0.1l0,0c-0.1,0-0.2-0.1-0.2-0.1h0c-0.1,0-0.2-0.1-0.2-0.1
		c-0.1,0-0.2-0.1-0.2-0.1h0c-0.2-0.1-0.3-0.2-0.4-0.2c-0.8-0.4-1.3-1.4-1.1-2.3c0.5-1.3,1.4-2.4,2.6-3.2c4.3-3.1,4.8-5,5.2-6.6
		c0.1-0.8,0.4-1.5,0.9-2.1c0.3-0.5,0.8-0.8,1.4-0.8c0-0.1,0-0.3,0-0.5c-0.1-1.3-0.3-2.7-0.6-4c-0.7-0.3-1.3-0.8-1.9-1.4l-0.8-3.7
		l-4.6-21.5c0,0-0.5-3.4-0.8-8.1c-0.4-5.3-0.1-10.7,0.8-15.9c0.7-3.3,1.1-6.6,1.4-10c0.3-3.8,0.9-7.5,1.8-11.2
		c0-0.1,0.1-0.3,0.1-0.4c0-0.1,0-0.2,0.1-0.2c-0.4-0.1-0.6-0.2-0.7-0.3c0,0,0,0,0,0c0.3-0.2,0.5-0.7,0.6-1.5c0.6-5,1.6-10,3.2-14.8
		l0.1-0.3c-1.1,0.9-2.5,1.4-3.9,1.6c-0.7,0-1.4-0.3-1.8-0.8c-1.7-2.1-0.8-7.3-0.8-7.4c0-0.2,2-15.8,2.7-21.4
		c0.4-3.3,5.4-5.2,9.6-6.1c0.5-0.9,0.7-2,0.6-3c-0.2-0.9-0.7-1.7-1.3-2.4c-0.6-0.7-1-1.5-1.3-2.4c-0.2-1.4,0.5-2.6,1.2-3.8
		c0.5-0.8,0.9-1.7,1.2-2.6c-1.2-0.9-1.8-2.3-1.8-3.8c0.3-1.6,1.3-3,2.8-3.7c0.6-0.4,1.3-0.7,1.8-0.9c0.2-0.1,0.5-0.3,0.7-0.3
		l0.2-0.1c2-0.9,4-1.8,5.2-3.6c0.1-0.1,0.1-0.2,0.2-0.2c0.2-0.4,0.5-0.8,0.9-1c0.2-0.1,0.5-0.2,0.8-0.2c0.2,0,0.3,0,0.5,0
		c1.8,0.1,3.5,0.6,5.1,1.3h0c1.6,0.8,3.3,1.2,5.1,1.3c0.3,0,0.5,0,0.8,0c0.3,0,0.7-0.1,1-0.2c0.5-0.1,1.1-0.2,1.6-0.2
		c0.3,0,0.6,0,0.9,0.1c0.7,0.3,1.4,0.8,1.8,1.4c2.8,3.3,4,7.7,3.2,12c-0.1,0.7-0.3,1.3-0.5,2c-0.5,1.9-1,3.9-0.4,5.8
		c0.3,0.7,0.7,1.4,1.1,2.1c0.7,0.9,1.2,2,1.3,3.2c0,1.6-1.1,2.9-2.2,4.1l0,0c0.1,0.1,0.3,0.3,0.4,0.4c2.7,3.1,2.2,5.7,1.8,6.7
		l-1.4,13.3l-1.2,8.9c-0.1,0.8-0.3,1.6-0.6,2.3c-0.6,1.4-1.9,2.3-3.5,2.3c-0.6,0-1.1-0.1-1.7-0.3c-0.9-0.3-1.8-0.6-2.7-1
		c1.1,3.2,1.6,6.5,1.6,9.9c-0.2,5.2,0.5,5.7,0.5,5.7c0,0.1-0.1,0.1-0.1,0.1c2.8,5.9,2.8,12.7-0.1,18.6c-1.7,3.7-1.5,9.9-1.1,14.4
		c0.3,3.1,0.7,6.1,1.3,9.1c0,0.1,0.9,9.6,0,12.3c-0.6,1.6-0.9,5.7-1,8.9c-0.1,1.9-0.1,3.4-0.1,3.4c-0.8,0.9-1.9,1.6-3.1,1.9l-0.1,2
		c0.3,1.1,0.4,2.3,0.3,3.4c0,0.1,0,0.3,0,0.4c0.4,0.8,0.7,1.6,0.8,2.4c0.3,1.7,0.7,4.1,0.8,5.7c0.2,2.7-2.1,3.2-7,3.9
		c-0.1,0-0.3,0-0.4,0h0h0c-0.1,0-0.2,0-0.3,0h-0.1c-0.1,0-0.2,0-0.3,0l0,0c-0.1,0-0.2,0-0.3,0h0c-0.1,0-0.2,0-0.3-0.1l0,0
		c-0.1,0-0.1-0.1-0.2-0.1l0,0l0,0c-0.1,0-0.1-0.1-0.2-0.1l0,0l0,0c-0.1,0-0.1-0.1-0.2-0.1h0l0,0c0,0-0.1-0.1-0.1-0.1c0,0,0,0,0,0
		c0,0-0.1-0.1-0.1-0.1l0,0c0-0.1-0.1-0.1-0.1-0.2c0,0,0,0,0,0c0,0,0-0.1-0.1-0.1l0,0c0-0.1,0-0.1-0.1-0.2c0,0,0,0,0-0.1
		c0-0.1,0-0.1,0-0.2c0,0,0-0.1,0-0.1s0-0.1,0-0.1s0-0.1,0-0.1c0,0,0-0.1,0-0.1c0-0.1,0-0.1,0-0.2v-0.1c0-0.1,0-0.3,0-0.4
		c0.1-0.7,0.3-1.4,0.5-2.1c0,0,0,0,0,0c0,0,0,0,0,0c0.1,0,0.3-0.5,0.7-5.5c0-1.3,0.3-2.6,0.9-3.8c0.1-0.5,0.4-0.9,0.7-1.3l0,0
		c0.3-0.3,0.5-0.8,0.5-1.2v-2.1c-0.5-0.3-1-0.6-1.4-1c0,0,0,0,0,0c0-0.7,0-2.1,0-3.9c0-3.1,0.2-7.6,0.4-11.4c0.2-2.8,0-5.7-0.6-8.4
		c-0.4-1.7-0.7-3.5-0.9-5.3l-0.6-6.4c-1.1-7.4-2.3-11.1-3.1-12.8c-0.9-1.9-1.5-2-1.5-2c-0.1,0.1-0.2,0.1-0.2,0.2
		c-1.6,1.4-3.1,4.6-4.5,9.4c-1.1,4.1-2,8.3-2.7,12.5c-0.6,3.7-0.9,6.5-0.9,6.5c0.1,0.5,3,12.4,2.8,13.9c0,1.5,0.2,3,0.5,4.4
		c0.4,2,0.8,4,0.9,4c-0.6,0.6-1.3,1.2-2,1.8c0.2,2.6,1,5.2,2.3,7.5l0,0.1l0.1,0.1c0.2-0.5,0.4-0.9,0.7-1c0,0,0,0,0.1,0
		c0.9,0,1.1,4.5,1.1,6.4v0c0,0.1,0,0.1,0,0.2c0,0,0,0,0,0.1s0,0,0,0.1s0,0,0,0s0,0,0,0s0,0,0,0s0,0,0,0v0.1c0,0,0,0,0,0.1v0.3l0,0
		c-0.9,0.5-8.8,4.9-12.7,6.6c-0.1,0-0.2,0.1-0.3,0.1l0,0l0,0c-0.1,0-0.2,0.1-0.3,0.1h0c-0.1,0-0.2,0.1-0.3,0.1l0,0l0,0
		c-0.1,0-0.2,0-0.2,0.1l0,0c-0.1,0-0.2,0-0.3,0.1l-0.1,0h0c-0.1,0-0.2,0-0.2,0h0c-0.1,0-0.2,0-0.3,0l-0.1,0c-0.1,0-0.2,0-0.2,0h0
		C234.7,171.8,234.6,171.8,234.5,171.8z M268.5,50.4c-0.4,1.2-0.8,2.4-1.4,3.6c-0.5,1-0.8,2-1,3.1l0.6,0.3c-0.1-0.1-0.1-0.3-0.2-0.4
		c0.3,0.2,0.7,0.2,1.1,0.3c0.3,0,0.7-0.1,0.9-0.4c0.4-0.6,0.5-1.4,0.3-2.2C268.6,53.3,268.5,51.8,268.5,50.4z M252.4,24.5
		c0,0.6-0.1,1.2-0.3,1.9c0.2-0.4,0.3-0.9,0.3-1.4C252.4,24.8,252.4,24.7,252.4,24.5L252.4,24.5L252.4,24.5z"/>
	<path id="Path-4" class="st4" d="M246.8,7.3c-0.8,0.4-1.4,1.1-1.8,1.9c-0.4,1.4,0.6,2.8,0.7,4.2c0.2,2.6-2.8,4.8-2.3,7.4
		c0.3,1.8,2.1,3,2.5,4.8c0.5,2.6-2.3,4.9-2.1,7.5c0.2,1.4,1,2.6,2.2,3.5c1.5,1.2,3.4,2,5.4,2.2c-0.1-2.2-1.8-4.3-1.5-6.5
		c0.2-1.5,1.3-2.8,1.9-4.2c1.1-2.5,0.7-5.3,0.1-8c-0.7-2.6-1.6-5.2-1.7-7.9c0-1.6,0.7-4,0.2-5.6C249.6,4.7,248,6.4,246.8,7.3z"/>
	<path id="Path-5" class="st5" d="M246.8,7.4c-0.8,0.4-1.4,1.1-1.8,1.9c-0.4,1.4,0.6,2.8,0.7,4.2c0.2,2.6-2.8,4.8-2.3,7.4
		c0.3,1.8,2.1,3,2.5,4.8c0.5,2.6-2.3,4.9-2.1,7.5c0.2,1.4,1,2.6,2.2,3.5c1.5,1.2,3.4,2,5.4,2.2c-0.1-2.2-1.8-4.3-1.5-6.5
		c0.2-1.5,1.3-2.8,1.9-4.2c1.1-2.5,0.7-5.3,0.1-8c-0.7-2.6-1.6-5.2-1.7-7.9c0-1.6,0.7-4,0.2-5.6C249.6,4.7,248,6.5,246.8,7.4z"/>
	<path id="Path-6" class="st6" d="M248.9,159l-2,2c0,0-7.2,3.9-6.3-1.4c0.2-1.5,0.3-3.1,0.2-4.7c-0.2-2.2-0.6-4.3-1.3-6.4l6.8-1.4
		c-1.1,3.6,0.7,8,1.9,10.3C248.6,158.4,248.9,159,248.9,159z"/>
	<path id="Path-7" class="st6" d="M264.4,154.8c-0.1,0.7-0.1,1.4-0.3,2.1c0,0-5.7,3.9-6.1-0.5c-0.3-2.8,0.4-4.1,0.9-4.6l0,0
		c0.3-0.3,0.5-0.7,0.5-1.2v-5.1l5,1.6l-0.2,4.3C264.4,152.6,264.5,153.7,264.4,154.8z"/>
	<path id="Path-8" class="st7" d="M248.9,159l-2,2c0,0-7.2,3.9-6.3-1.4c0.2-1.5,0.3-3.1,0.2-4.7c1.6-0.2,3.5,1.5,3.5,1.5
		c2.7,3.7,3.4,2.3,3.9,1C248.6,158.4,248.9,159,248.9,159z"/>
	<path id="Path-9" class="st4" d="M244.2,156.9c0,0-3.2-2.9-4.8-0.7c-1.6,2.3,0.2,4.1-5.9,8.6c-6.1,4.5,0,7.5,4.1,5.7
		c4.1-1.8,12.5-6.6,12.5-6.6s0-7.5-1.1-7.3C247.8,156.9,248,162.4,244.2,156.9z"/>
	<path id="Path-10" class="st7" d="M264.4,154.8c-0.1,0.7-0.1,1.4-0.3,2.1c0,0-5.7,3.9-6.1-0.5c-0.3-2.8,0.4-4.1,0.9-4.6
		c0.4-0.3,0.9-0.4,1.4-0.1c0.9-0.4,1.9,0.3,2.7,1.1C263.5,153.4,264,154.1,264.4,154.8z"/>
	<path id="Path-11" class="st4" d="M260.2,152.2c0,0-2.5-1.4-2.9,4.8c-0.5,6.1-0.7,5.4-0.7,5.4s-2.3,5.4,2.5,4.8
		c4.8-0.7,7-1.1,6.8-3.9c-0.1-1.6-0.5-4-0.8-5.7c-0.3-1.6-1-3.1-2.1-4.3C262.2,152.4,261.2,151.8,260.2,152.2z"/>
	<path id="Path-12" class="st4" d="M268.4,123.2c0,0,0.9,9.5,0,12.2c-0.5,1.7-0.8,5.8-1,8.8c-0.1,1.9-0.1,3.4-0.1,3.4
		c-4.3,4.5-9.3,0-9.3,0s0-1.6,0-3.9c0-3.1,0.2-7.5,0.4-11.3c0.2-2.8,0-5.6-0.6-8.4c-0.4-1.7-0.7-3.5-0.9-5.2l-0.6-6.4
		c-2-14.3-4.5-14.7-4.5-14.7c-0.1,0.1-0.2,0.1-0.2,0.2c-3.5,3.2-5.8,14.4-7,21.7c-0.6,3.7-0.9,6.4-0.9,6.4s2.9,12.2,2.7,13.8
		c0,1.5,0.2,2.9,0.5,4.4c0.4,2.1,0.8,4,0.8,4c-5.7,6.1-9.5,1.4-9.5,1.4l-0.8-3.6l-4.4-21.3c0,0-2-13.4,0-23.8
		c0.7-3.3,1.1-6.6,1.4-9.9c0.3-3.8,0.9-7.5,1.8-11.1c0.3-1.1,0.6-2.1,0.9-3.2c5.5-0.9,11-1.4,16.5-1.5c6,0,11.7,0.8,13.4,3.7
		c0.4,0.7,0.7,1.3,1,2c2.9,5.9,2.9,12.9,0.1,18.8C265,106.8,268.4,123.2,268.4,123.2z"/>
	<path id="Path-13" class="st6" d="M249.4,40.9c0,0-12-12.2-2.9-11.3c1.5,0.3,3.1,0,4.4-0.9c1-0.8,1.6-2,1.6-3.2
		c0.1-1.8-0.2-3.5-0.8-5.2c0,0,12.2-9.7,9.7,2.5c-0.3,1.2-0.4,2.5-0.5,3.8c0,2.6,0.8,3.6,2,4c2,0.7,5-0.3,6.4,2
		C271.8,36.6,249.4,40.9,249.4,40.9z"/>
	<path id="Path-14" class="st5" d="M249.4,40.9c0,0-12-12.2-2.9-11.3c1.5,0.3,3.1,0,4.4-0.9c1-0.8,1.6-2,1.6-3.2
		c0.1-1.8-0.2-3.5-0.8-5.2c0,0,12.2-9.7,9.7,2.5c-0.3,1.2-0.4,2.5-0.5,3.8c0,2.6,0.8,3.6,2,4c2,0.7,5-0.3,6.4,2
		C271.8,36.6,249.4,40.9,249.4,40.9z"/>
	<path id="Path-15" class="st6" d="M267.5,16.9c-0.1,5.4-4.5,9.7-9.8,9.6c-5.3-0.1-9.6-4.3-9.6-9.6c0-0.2,0-0.4,0-0.5
		c0.3-5.4,4.9-9.5,10.3-9.2C263.5,7.4,267.5,11.7,267.5,16.9z"/>
	<path id="Path-16" class="st7" d="M249.4,40.9c0,0-12-12.2-2.9-11.3c1.5,0.3,3.1,0,4.4-0.9c-1.8,2.9-3.7,8.1,5.1,7.6
		c8.1-0.4,8-3.7,7-5.8c2,0.7,5-0.3,6.4,2C271.8,36.6,249.4,40.9,249.4,40.9z"/>
	<path id="Path-17" class="st5" d="M268.4,81.9c-2.1,2.7-28.3-0.8-32.2-2c0.3-1.1,0.6-2.1,0.9-3.2c5.5-0.9,11-1.4,16.5-1.5
		c6,0,11.7,0.8,13.4,3.7c0.4,0.7,0.7,1.3,1,2C268.2,81.8,268.4,81.9,268.4,81.9z"/>
	<path id="Path-18" class="st8" d="M251.9,27.5c0,0-15.3,1.2-16,7.1c-0.6,5.6-2.6,21.2-2.6,21.2s-2.3,12.5,6.3,6.6l-0.1,0.3
		c-1.6,4.8-2.6,9.7-3.2,14.7c-0.1,0.7-0.3,1.3-0.6,1.5c-1.1,0.7,30.4,5.2,32.6,2.3c0,0-0.7-0.5-0.5-5.7c0-3.6-0.6-7.2-1.8-10.7
		c-1-3.5-0.8-7.3,0.7-10.7c2.5-5.2,1.6-6.8,1.6-6.8l8.6-6.6c0,0,1.9-3.2-1.5-7.1c-2.1-2.4-5-3.8-8.1-4l-5.9-0.4c0,0,6.5,7-5.7,7.7
		S251.9,27.5,251.9,27.5z"/>
	<path id="Path-19" class="st7" d="M241.7,40c0,0,0.5,3.6-0.5,4.8c-0.9,1.1-1.1,6.3,0,9.5"/>
	<path id="Path-20" class="st5" d="M251.6,98c-3.5,3.2-5.8,14.4-7,21.7c-1.6-10.1,5.2-26.9,5.2-26.9L251.6,98z"/>
	<path id="Path-21" class="st5" d="M247.8,148.3c-5.7,6.1-9.5,1.4-9.5,1.4l-0.8-3.6c2.1,1.1,5.8,2,9.4-1.7
		C247.3,146.4,247.8,148.3,247.8,148.3z"/>
	<path id="Path-22" class="st5" d="M267.4,144.2c-0.1,1.9-0.1,3.4-0.1,3.4c-4.3,4.5-9.3,0-9.3,0s0-1.6,0-3.9
		C260.8,145.6,264.4,145.7,267.4,144.2z"/>
	<path id="Rectangle-9" class="st9" d="M243.9,47.7h13.1c0.6,0,1.1,0.5,1.1,1.1v4.1c0,0.6-0.5,1.1-1.1,1.1h-13.1
		c-0.6,0-1.1-0.5-1.1-1.1v-4.1C242.8,48.2,243.3,47.7,243.9,47.7z"/>
	<path id="Rectangle-10" class="st7" d="M243.9,47.7h13.1c0.6,0,1.1,0.5,1.1,1.1v4.1c0,0.6-0.5,1.1-1.1,1.1h-13.1
		c-0.6,0-1.1-0.5-1.1-1.1v-4.1C242.8,48.2,243.3,47.7,243.9,47.7z"/>
	<path id="Rectangle-11" class="st4" d="M243.9,47.9h13.1c0.6,0,1.1,0.5,1.1,1.1v4.1c0,0.6-0.5,1.1-1.1,1.1h-13.1
		c-0.6,0-1.1-0.5-1.1-1.1v-4.1C242.8,48.4,243.3,47.9,243.9,47.9z"/>
	<ellipse id="Oval-7" class="st10" cx="254.9" cy="51" rx="0.7" ry="0.7"/>
	<path id="Path-23" class="st7" d="M236.3,57.7c0.4-1.2,1.3-2.2,2.6-2.7c1-0.4,1.7-1.1,2.2-2c0.9-2,2.5-4,6.6-2.7
		c4.1,1.4-1.1,2.3-1.1,2.3s9.3-1.4,5.7,1.4c-2.5,1.8-5.3,3.2-8.2,4.3l-2.2,2.4c-1.3,1.4-3.4,1.4-4.7,0.2c-0.1-0.1-0.2-0.2-0.3-0.3
		C236.1,59.8,235.9,58.7,236.3,57.7z"/>
	<path id="Path-24" class="st6" d="M236,57.3c0.4-1.2,1.3-2.2,2.6-2.7c1-0.4,1.7-1.1,2.2-2c0.9-2,2.5-4,6.6-2.7
		c4.1,1.4-1.1,2.3-1.1,2.3s9.3-1.4,5.7,1.4c-2.5,1.8-5.3,3.2-8.2,4.3l-2.2,2.4c-1.3,1.4-3.4,1.4-4.7,0.2c-0.1-0.1-0.2-0.2-0.3-0.3
		C235.8,59.4,235.7,58.3,236,57.3z"/>
	<path id="Path-25" class="st7" d="M268,62l-1.6,3.9l-2-1.5l-5.7-4.2l-3.9-2.5c-5.4-4.1,0-4.8,0-4.8c-2-0.9,0-1.8,0-1.8
		c7.2-1.6,5.9,4.3,5.9,4.3l4.6,2.4l1.5,0.8L268,62z"/>
	<path id="Path-26" class="st6" d="M268.4,61.5l-1.6,3.9l-2-1.5l-5.7-4.2l-3.9-2.5c-5.4-4.1,0-4.8,0-4.8c-2-0.9,0-1.8,0-1.8
		c7.2-1.6,5.9,4.3,5.9,4.3l4.6,2.4l1.5,0.8L268.4,61.5z"/>
	<path id="Path-27" class="st7" d="M268.4,61.5l-1.6,3.9l-2-1.5c1.8,0.1,4-0.8,1-6.5l1.5,0.8L268.4,61.5z"/>
	<path id="Path-28" class="st8" d="M276.8,38.6l0.4,1.8l-1.3,13.2l-1.1,8.8c0,0-0.5,5.9-5.7,4.3c-5.2-1.6-5.7-3.2-5.7-3.2
		s7.5,2.5,2.7-6.3c0,0,2.7,1.4,2.3-2.3c-0.2-3.3-0.2-6.7,0-10L276.8,38.6z"/>
	<path id="Path-29" class="st7" d="M267.5,16.9c0,4.5-3.1,8.5-7.6,9.5c-0.4-0.9-0.5-1.9-0.3-2.8c0.5-1.9,2.6-3.2,2.4-5.1
		c0-0.2-0.1-0.4-0.2-0.6c-0.5-0.6-1.5-0.3-2.2-0.2c-2.1,0.3-4.1-0.9-4.7-2.9c-1.8,1.7-4.4,2.3-6.7,1.6c0.3-5.4,4.9-9.5,10.3-9.2
		C263.5,7.4,267.5,11.7,267.5,16.9L267.5,16.9z"/>
	<path id="Path-30" class="st4" d="M255,14.3c0.6,2,2.6,3.3,4.7,2.9c0.8-0.2,1.7-0.5,2.2,0.2c0.1,0.2,0.2,0.4,0.2,0.6
		c0.2,1.9-1.9,3.2-2.4,5.1c-0.5,1.9,0.9,3.7,1.2,5.7c0.1,1.1,0.1,2.1,0,3.2c-0.1,1.1,0.3,2.2,1.1,3c0.8,0.7,1.9,0.7,2.7,0
		c0,0,0.1-0.1,0.1-0.2c2.5,1.3,1.5,5.5,3.5,7.7c1.2,1.1,2.8,1.6,4.4,1.3c0.4,0,0.7-0.1,1-0.3c0.3-0.3,0.4-0.6,0.5-1
		c0.4-1.5,0.3-3.1-0.2-4.6c-0.3-0.7-0.5-1.4-0.5-2.2c0.1-0.6,0.4-1.1,0.8-1.5c1.2-1.5,2.9-3,2.9-4.9s-1.7-3.4-2.3-5.2
		c-0.9-2.5,0.3-5.1,0.8-7.7c0.8-4.2-0.4-8.6-3.1-11.9c-0.5-0.6-1.1-1.1-1.8-1.4c-1.1-0.4-2.3,0.1-3.5,0.3c-3.8,0.5-7.3-2.9-11.2-2.6
		c-0.3,0-0.5,0.1-0.7,0.2c-0.5,0.3-0.8,0.7-1.1,1.2c-1.7,2.6-5.1,3.3-7.7,4.9C239,11.6,249.1,20,255,14.3z"/>
	<path id="Path-31" class="st11" d="M237.6,169.6c-2.6,1.2-6.2,0.3-6.6-1.6c-0.6,2.6,3.6,3.9,6.6,2.5c4.1-1.8,12.5-6.6,12.5-6.6
		s0-0.4,0-0.9C249.8,163.2,241.6,167.8,237.6,169.6z"/>
	<path id="Path-32" class="st11" d="M265.9,163.1c-0.3,2-2.5,2.5-6.8,3.1c-2.2,0.3-2.9-0.7-3-1.8c-0.1,1.5,0.3,3.1,3,2.7
		c4.8-0.7,7-1.1,6.8-3.9C265.9,163.2,265.9,163.2,265.9,163.1z"/>
	<g id="Group" transform="translate(243.883 0.607)" class="st12">
		<path id="Path-33" d="M29.8,42.1c-1.6,0.3-3.2-0.2-4.4-1.3c-1.9-2.1-0.9-6.3-3.5-7.7c-0.6,0.8-1.8,1-2.6,0.3
			c-0.1,0-0.1-0.1-0.2-0.1c-0.7-0.8-1.1-1.9-1-3c0.1-1.1,0.1-2.1,0-3.2c-0.3-1.9-1.7-3.8-1.2-5.7c0.5-1.9,2.6-3.2,2.4-5.1
			c0-0.2-0.1-0.4-0.2-0.6c-0.5-0.6-1.5-0.3-2.2-0.2c-2.1,0.3-4.1-0.9-4.7-2.9C6.8,17.8-1.9,11.6,1.8,7c-5.8,4.7,3.7,12,9.3,6.7
			c0.6,2,2.6,3.3,4.7,2.9c0.8-0.2,1.7-0.5,2.2,0.2c0.1,0.2,0.2,0.4,0.2,0.6c0.2,1.9-1.9,3.2-2.4,5.1c-0.5,1.9,0.9,3.7,1.2,5.7
			c0.1,1.1,0.1,2.1,0,3.2c-0.1,1.1,0.3,2.2,1,3c0.8,0.7,1.9,0.7,2.7,0c0,0,0.1-0.1,0.1-0.2c2.5,1.3,1.5,5.5,3.5,7.7
			c1.2,1.1,2.8,1.6,4.4,1.3c0.4,0,0.7-0.1,1-0.3c0.2-0.2,0.3-0.4,0.4-0.7C30.1,42.1,30,42.1,29.8,42.1z"/>
		<path id="Path-34" d="M11.4,0.5c0.1-0.1,0.2-0.2,0.2-0.4c0,0,0,0-0.1,0c-0.5,0.3-0.8,0.7-1.1,1.2c-0.1,0.2-0.2,0.3-0.3,0.5
			C10.6,1.5,11,1.1,11.4,0.5z"/>
	</g>
	<path id="Path-35" class="st5" d="M242.8,64.5c0,0-0.6,2,3.3,2.9C249.9,68.4,242.8,64.5,242.8,64.5z"/>
	<path id="Path-36" class="st5" d="M241.1,70.6c0,0-2,1.4,2.8,3.9C248.6,77,241.1,70.6,241.1,70.6z"/>
	<path id="Path-37" class="st5" d="M236.7,94.5c0,0,5.3-1.5,6.1-3.8C243.5,88.5,236.7,94.5,236.7,94.5z"/>
	<path id="Path-38" class="st5" d="M236.7,123.2c1.2,0.6,2.4,0.9,3.8,1C241.9,124.1,236.7,123.2,236.7,123.2z"/>
	<path id="Path-39" class="st5" d="M237.5,126.4c0.9,0.4,1.9,0.6,2.9,0.6C242.4,127.1,237.5,126.4,237.5,126.4z"/>
	<path id="Path-40" class="st13" d="M276.6,135.1c2.4,0.9,5.1-0.4,6-2.8c0.9-2.4-0.4-5.1-2.8-6c-0.8-0.3-1.7-0.4-2.6-0.2l0.1,2.4
		l-1.1-2.1c-1.1,0.5-2,1.5-2.4,2.6c-0.2,0.4-0.2,0.8-0.3,1.3C273.3,132.4,274.6,134.4,276.6,135.1z"/>
	<path id="Path-41" class="st0" d="M282.2,163.2c-0.4-2.1,1.4-3.9,3.1-5.1c1.7-1.2,3.8-2.4,4.4-4.4c0.9-2.9-1.7-5.6-3.7-7.8
		c-1.5-1.7-2.7-3.6-3.7-5.6c-0.4-0.8-0.7-1.6-0.9-2.5c-0.1-1.3,0.2-2.6,0.7-3.8c1.4-4.1,2.9-8.1,4.4-12.1"/>
	<path id="Path-42" class="st0" d="M276.8,134.5c2.4,0.9,5.1-0.4,6-2.8c0.9-2.4-0.4-5.1-2.8-6c-0.8-0.3-1.7-0.4-2.6-0.2l0.1,2.4
		l-1.1-2.1c-1.1,0.5-2,1.5-2.4,2.6c-0.2,0.4-0.2,0.8-0.3,1.3C273.5,131.8,274.8,133.8,276.8,134.5z"/>
	<path id="Path-43" class="st13" d="M281.7,121.1c0.5-1.5,1.8-2.6,3.4-3l0.4,2.3l0.7-2.4c2.6,0,4.7,2.2,4.6,4.8
		c0,2.6-2.2,4.7-4.8,4.6c-2.6,0-4.7-2.2-4.6-4.8C281.4,122.1,281.5,121.6,281.7,121.1L281.7,121.1z"/>
	<path id="Path-44" class="st0" d="M281.9,120.2c0.5-1.5,1.8-2.6,3.4-3l0.4,2.3l0.7-2.4c2.6,0,4.7,2.2,4.6,4.8
		c0,2.6-2.2,4.7-4.8,4.6c-2.6,0-4.7-2.2-4.6-4.8C281.6,121.2,281.7,120.7,281.9,120.2L281.9,120.2z"/>
	<path id="Path-45" class="st13" d="M285.2,146c2.4,0.9,5.1-0.4,6-2.8c0.8-2.1,0-4.4-1.9-5.6l-0.6,1.9l-0.4-2.3h0
		c-2.5-0.8-5.1,0.5-6,3C281.7,142.5,282.9,145.1,285.2,146z"/>
	<path id="Path-46" class="st0" d="M285.4,145.1c2.4,0.9,5.1-0.4,6-2.8c0.8-2.1,0-4.4-1.9-5.6l-0.6,1.9l-0.4-2.3h0
		c-2.5-0.8-5.1,0.5-6,3C281.9,141.6,283.1,144.2,285.4,145.1z"/>
	<path id="Path-47" class="st13" d="M280.3,153.8c0.5,2.6,2.9,4.3,5.5,3.8s4.3-2.9,3.8-5.5s-2.9-4.3-5.5-3.8
		c-1.2,0.2-2.2,0.8-2.9,1.8l2.1,3.2l-2.9-1.7C280.2,152.3,280.2,153.1,280.3,153.8z"/>
	<path id="Path-48" class="st0" d="M280.5,153.2c0.5,2.6,2.9,4.3,5.5,3.8s4.3-2.9,3.8-5.5s-2.9-4.3-5.5-3.8
		c-1.2,0.2-2.2,0.8-2.9,1.8l2.1,3.2l-2.9-1.7C280.4,151.7,280.3,152.4,280.5,153.2z"/>
	<path id="Path-49" class="st14" d="M275.7,166c1.9-0.7,3.7-1.6,5.4-2.5c1.3-0.9,6.4-2,6.7-0.5c0.3,1.4,6.2,7.1,1.6,7.2
		s-10.9,0.8-12.2,0C276,169.4,275.7,166,275.7,166z"/>
	<path id="Path-50" class="st15" d="M289.4,169.6c-4.7,0-10.9,0.8-12.2,0c-1-0.6-1.3-2.7-1.5-3.6l-0.1,0c0,0,0.3,3.4,1.5,4.1
		s7.5,0,12.2,0c1.4,0,1.8-0.5,1.8-1.2C291,169.4,290.5,169.6,289.4,169.6z"/>
</g>
</svg>
