<?xml version="1.0" encoding="utf-8"?>
<!-- Generator: Adobe Illustrator 19.2.1, SVG Export Plug-In . SVG Version: 6.00 Build 0)  -->
<svg version="1.1" id="Layer_1" xmlns="http://www.w3.org/2000/svg" xmlns:xlink="http://www.w3.org/1999/xlink" x="0px" y="0px"
	 viewBox="0 0 291 194" style="enable-background:new 0 0 291 194;" xml:space="preserve">
<style type="text/css">
	.st0{opacity:0.1;fill:#FFA000;enable-background:new    ;}
	.st1{opacity:0.6;}
	.st2{fill:none;stroke:#535461;stroke-width:0.621;stroke-miterlimit:10;}
	.st3{fill:#FFA000;}
	.st4{opacity:0.25;enable-background:new    ;}
	.st5{fill:#FFFFFF;stroke:#33313F;stroke-width:0.932;stroke-miterlimit:10;}
	.st6{fill:#FFFFFF;stroke:#33313F;stroke-width:0.621;stroke-miterlimit:10;}
	.st7{fill:none;stroke:#33313F;stroke-width:0.932;stroke-miterlimit:10;}
	.st8{fill:url(#Shape_1_);}
	.st9{fill:#33313F;}
	.st10{fill:#65617D;}
	.st11{fill:#FBBEBE;}
	.st12{fill:#3F3D56;}
	.st13{opacity:0.1;enable-background:new    ;}
	.st14{opacity:0.1;}
	.st15{fill:#FFD037;}
	.st16{fill:#444053;}
	.st17{fill:#9D9CB5;}
</style>
<g id="undraw_user_flow_vr6w" transform="translate(-21 -28)">
	<path id="Path" class="st0" d="M187.1,65.8c-17.9-0.6-34.9-6.4-51.2-12.7s-32.4-13.3-49.8-16.7C74.8,34.3,62,34,53,40
		c-8.7,5.8-11.5,15.8-13,25.1c-1.1,7-1.8,14.3,1.3,20.9c2.2,4.5,6,8.4,8.7,12.7c9.2,15.1,2.7,33.8-7.3,48.6
		c-4.7,6.9-10.2,13.6-13.8,20.9c-3.6,7.4-5.3,15.8-2.1,23.4c3.1,7.5,10.6,13.1,18.8,17c16.5,8,35.9,10.3,54.9,11.6
		c42,2.9,84.1,1.6,126.2,0.4c15.6-0.5,31.2-0.9,46.5-3.3c8.5-1.3,17.3-3.5,23.5-8.6c7.8-6.5,9.8-17.5,4.5-25.7
		c-8.8-13.7-33.2-17.1-39.3-31.8c-3.4-8.1,0.1-17.1,5-24.6C277.3,110.5,295,96.4,296,78c0.6-12.6-7.9-25.3-21-31.3
		c-13.8-6.3-32.9-5.5-43.1,4.9C221.3,62.3,202.9,66.4,187.1,65.8z"/>
	<g id="abffebd3-2ac6-4c6b-a0d4-e62621854ed7" transform="translate(50 43)" class="st1">
		<path id="Path-2" class="st2" d="M42.8,53.9c0,0-7.6-13.5-19.1-17.4c-4.8-1.6-9-4.7-11.9-8.9c-1.4-2-2.5-4.1-3.5-6.3"/>
		<path id="Path-3" class="st3" d="M1.1,18.9c1.3,1.3,7.4,2.6,7.4,2.6s-1.5-6-2.8-7.3c-1.3-1.3-3.4-1.3-4.7-0.1s-1.3,3.4-0.1,4.7
			C1,18.8,1,18.8,1.1,18.9L1.1,18.9z"/>
		<path id="Path-4" class="st3" d="M4.5,29.8c1.8,0.4,7.6-1.9,7.6-1.9s-4.5-4.3-6.3-4.6c-1.8-0.4-3.6,0.6-4,2.4
			c-0.4,1.8,0.6,3.6,2.4,4C4.3,29.8,4.4,29.8,4.5,29.8z"/>
		<path id="Path-5" class="st3" d="M17.1,41.6c1.7-0.6,5.6-5.4,5.6-5.4s-6.1-1.4-7.8-0.8c-1.7,0.5-2.8,2.3-2.2,4.1
			c0.5,1.7,2.3,2.8,4.1,2.2C16.9,41.7,17,41.7,17.1,41.6z"/>
		<path id="Path-6" class="st3" d="M28.6,48.4c1.8-0.3,6.5-4.4,6.5-4.4s-5.8-2.4-7.6-2.1c-1.8,0.2-3.1,1.9-2.9,3.7
			c0.2,1.8,1.9,3.1,3.7,2.9C28.4,48.5,28.5,48.5,28.6,48.4z"/>
		<path id="Path-7" class="st3" d="M17.2,23.2c0,1.8-3.3,7.1-3.3,7.1s-3.3-5.3-3.3-7.1c0-1.8,1.5-3.3,3.3-3.3S17.2,21.4,17.2,23.2
			L17.2,23.2z"/>
		<path id="Path-8" class="st3" d="M30.6,31.4c-0.6,1.7-5.3,5.8-5.3,5.8s-1.6-6-1-7.8c0.5-1.7,2.4-2.7,4.1-2.2
			C30.2,27.8,31.1,29.6,30.6,31.4L30.6,31.4L30.6,31.4z"/>
		<path id="Path-9" class="st3" d="M42.5,41.1c-0.2,1.8-4.2,6.6-4.2,6.6s-2.6-5.7-2.3-7.5c0.2-1.8,1.9-3.1,3.7-2.8
			C41.5,37.6,42.7,39.2,42.5,41.1L42.5,41.1z"/>
		<path id="Path-10" class="st4" d="M1.1,18.9c1.3,1.3,7.4,2.6,7.4,2.6s-1.5-6-2.8-7.3c-1.3-1.3-3.4-1.3-4.7-0.1s-1.3,3.4-0.1,4.7
			C1,18.8,1,18.8,1.1,18.9L1.1,18.9z"/>
		<path id="Path-11" class="st4" d="M4.5,29.8c1.8,0.4,7.6-1.9,7.6-1.9s-4.5-4.3-6.3-4.6c-1.8-0.4-3.6,0.6-4,2.4
			c-0.4,1.8,0.6,3.6,2.4,4C4.3,29.8,4.4,29.8,4.5,29.8z"/>
		<path id="Path-12" class="st4" d="M17.1,41.6c1.7-0.6,5.6-5.4,5.6-5.4s-6.1-1.4-7.8-0.8c-1.7,0.5-2.8,2.3-2.2,4.1
			c0.5,1.7,2.3,2.8,4.1,2.2C16.9,41.7,17,41.7,17.1,41.6z"/>
		<path id="Path-13" class="st4" d="M28.6,48.4c1.8-0.3,6.5-4.4,6.5-4.4s-5.8-2.4-7.6-2.1c-1.8,0.2-3.1,1.9-2.9,3.7
			c0.2,1.8,1.9,3.1,3.7,2.9C28.4,48.5,28.5,48.5,28.6,48.4z"/>
		<path id="Path-14" class="st4" d="M17.2,23.2c0,1.8-3.3,7.1-3.3,7.1s-3.3-5.3-3.3-7.1c0-1.8,1.5-3.3,3.3-3.3S17.2,21.4,17.2,23.2
			L17.2,23.2z"/>
		<path id="Path-15" class="st4" d="M30.6,31.4c-0.6,1.7-5.3,5.8-5.3,5.8s-1.6-6-1-7.8c0.5-1.7,2.4-2.7,4.1-2.2
			C30.2,27.8,31.1,29.6,30.6,31.4L30.6,31.4L30.6,31.4z"/>
		<path id="Path-16" class="st4" d="M42.5,41.1c-0.2,1.8-4.2,6.6-4.2,6.6s-2.6-5.7-2.3-7.5c0.2-1.8,1.9-3.1,3.7-2.8
			C41.5,37.6,42.7,39.2,42.5,41.1L42.5,41.1z"/>
		<path id="Path-17" class="st2" d="M42.4,53.7c0,0-1.5-15.4-10.4-23.6c-3.8-3.4-6.3-8-7.3-12.9c-0.4-2.4-0.7-4.8-0.7-7.2"/>
		<path id="Path-18" class="st3" d="M18.4,4.7c0.7,1.7,5.7,5.4,5.7,5.4s1.1-6.1,0.4-7.8c-0.7-1.7-2.6-2.5-4.3-1.8
			C18.6,1.1,17.8,3,18.4,4.7z"/>
		<path id="Path-19" class="st3" d="M17.2,16.1c1.5,1,7.7,1.4,7.7,1.4s-2.4-5.7-3.9-6.8c-1.5-1.1-3.5-0.8-4.6,0.6S15.5,14.9,17,16
			C17,16,17.1,16.1,17.2,16.1L17.2,16.1z"/>
		<path id="Path-20" class="st3" d="M23.8,32c1.8,0.2,7.4-2.7,7.4-2.7s-5-3.7-6.8-3.9c-1.8-0.2-3.5,1-3.7,2.8
			c-0.2,1.8,1,3.5,2.8,3.7C23.6,32,23.7,32,23.8,32z"/>
		<path id="Path-21" class="st3" d="M31.6,42.9c1.8,0.5,7.7-1.4,7.7-1.4s-4.3-4.5-6.1-5c-1.7-0.6-3.6,0.3-4.2,2.1
			c-0.6,1.7,0.3,3.6,2.1,4.2C31.3,42.8,31.4,42.8,31.6,42.9L31.6,42.9z"/>
		<path id="Path-22" class="st3" d="M31.4,15.2c-0.7,1.7-5.9,5.2-5.9,5.2s-0.9-6.2-0.1-7.8c0.7-1.7,2.7-2.4,4.4-1.7
			S32.2,13.6,31.4,15.2z"/>
		<path id="Path-23" class="st3" d="M40.4,28.1c-1.2,1.4-7.2,3.2-7.2,3.2s1-6.1,2.2-7.5c1.2-1.4,3.3-1.5,4.7-0.3
			C41.4,24.6,41.6,26.7,40.4,28.1L40.4,28.1z"/>
		<path id="Path-24" class="st3" d="M47.3,41.8c-1,1.6-6.5,4.3-6.5,4.3s0-6.2,0.9-7.8c1-1.6,3-2,4.5-1.1
			C47.8,38.2,48.3,40.2,47.3,41.8L47.3,41.8z"/>
	</g>
	<path id="Path-25" class="st5" d="M62,73c0,0,40.5,1.7,46,0c0,0-3,68.7-1.9,70.9c0,0-44.9,2.5-48.2,0C54.5,141.4,62,73,62,73z"/>
	<path id="Path-26" class="st5" d="M67,87c0,0,18.7,30.2,25,33"/>
	<path id="Path-27" class="st5" d="M92,87c0,0-18.2,23.9-21,32"/>
	<path id="Path-28" class="st5" d="M91,132H68.7c-1.7,0-1.7,7-1.7,7h24V132z"/>
	<path id="Path-29" class="st5" d="M139.1,72.9c0,0,38.7-2,45.9,0c0,0-3,69.1-1.9,71.4c0,0-49.5,4-48,0
		C138.1,135.8,139.1,72.9,139.1,72.9z"/>
	<path id="Path-30" class="st5" d="M153,80c0,0,9,14.6,12,16"/>
	<path id="Path-31" class="st5" d="M165,80c0,0-7.8,11.2-9,15"/>
	<path id="Path-32" class="st5" d="M175,104h-29.8c-2.2,0-2.2,7-2.2,7h32V104z"/>
	<path id="Path-33" class="st5" d="M171,129h-22.3c-1.7,0-1.7,7-1.7,7h24V129z"/>
	<path id="Path-34" class="st5" d="M174.9,115.1c2.3,0-27,2.2-29.6,0c-1.4-1.2-2.2,6.9-2.2,6.9h31.9V115.1z"/>
	<path id="Path-35" class="st5" d="M157,132.4l1.4,1.6l2.6-4"/>
	<path id="Path-36" class="st5" d="M212.2,73c0,0,38.4,4.8,45.8,0c0,0-3,69.4-1.9,71.7c0,0-50.9,2.9-48,0
		C215.5,137.4,212.2,73,212.2,73z"/>
	<path id="Path-37" class="st5" d="M219,87c0,0,5.2,8.2,7,9"/>
	<path id="Path-38" class="st5" d="M226,87c0,0-5.2,6.7-6,9"/>
	<path id="Path-39" class="st5" d="M250,105h-29.8c-2.2,0-2.2,4-2.2,4h32V105z"/>
	<path id="Path-40" class="st5" d="M233,117h15.7c2.3,0,2.3,4,2.3,4h0.1"/>
	<path id="Path-41" class="st5" d="M249.9,112.1c2.3,0-27,1.3-29.6,0c-1.4-0.7-2.2,3.9-2.2,3.9h31.9V112.1z"/>
	<path id="Path-42" class="st5" d="M212,80c0,0,43.2,3.5,46,1.2"/>
	<path id="Path-43" class="st6" d="M253,78c0.5-0.1,1,0,1.5,0.1c0.5,0.2,1.1,0,1.5-0.3"/>
	<path id="Path-44" class="st6" d="M253,79.9c1,0.2,2,0.3,3,0.2"/>
	<path id="Path-45" class="st6" d="M253,81.2c1-0.2,2-0.3,3-0.4"/>
	<path id="Path-46" class="st6" d="M214.8,79.6c0.5,0.3,1.1,0.4,1.7,0.4c0.4,0.1,0.8,0,1.1-0.2c0.3-0.4,0.5-0.9,0.4-1.4
		c0-0.2,0-0.3-0.1-0.5c-0.1-0.1-0.2-0.3-0.3-0.3c-0.8-0.6-1.9-0.7-2.8-0.4c-0.7,0.3-1,1.1-0.7,1.8C214.3,79.3,214.5,79.5,214.8,79.6
		z"/>
	<path id="Path-47" class="st5" d="M226.8,85c0,2.2,0.2,4.4,0.7,6.5c0.4,2.7,0.6,5.5,0.5,8.2c-4.3,0.3-8.6,0.3-13,0.2
		c0.4,0,0.3-9.8,0.3-10.7c0.1-1.2-0.2-3.1,1.1-3.6c1.3-0.5,3.2-0.2,4.5-0.2C222.9,85.3,224.9,85.1,226.8,85z"/>
	<path id="Path-48" class="st7" d="M113,106.1c0,0,11-0.6,13,0"/>
	<path id="Path-49" class="st7" d="M127.4,101c0,0,4.6,4.8,4.6,5.9s-6,5.1-6,5.1"/>
	<path id="Path-50" class="st7" d="M189,106.1c0,0,11-0.6,13,0"/>
	<path id="Path-51" class="st7" d="M201.4,101c0,0,4.6,4.8,4.6,5.9s-6,5.1-6,5.1"/>
	<circle id="Oval" class="st0" cx="124" cy="34" r="6"/>
	<circle id="Oval-2" class="st0" cx="217" cy="43" r="6"/>
	<circle id="Oval-3" class="st0" cx="280" cy="132" r="6"/>
	<circle id="Oval-4" class="st0" cx="302" cy="105" r="10"/>
	<circle id="Oval-5" class="st0" cx="288" cy="153" r="10"/>
	<circle id="Oval-6" class="st0" cx="31" cy="123" r="10"/>
	
		<linearGradient id="Shape_1_" gradientUnits="userSpaceOnUse" x1="-24.9072" y1="400.3989" x2="-23.9082" y2="400.3989" gradientTransform="matrix(43.0089 0 0 -107.031 1290.2283 43021.5586)">
		<stop  offset="0" style="stop-color:#808080;stop-opacity:0.251"/>
		<stop  offset="0.54" style="stop-color:#808080;stop-opacity:0.122"/>
		<stop  offset="1" style="stop-color:#808080;stop-opacity:0.102"/>
	</linearGradient>
	<path id="Shape" class="st8" d="M249.7,220c-0.1,0-0.1,0-0.2,0c-0.1-0.1-0.1-0.2-0.1-0.3c0-0.1,0-0.2,0-0.3
		c-0.5-0.1-0.9-0.3-1.3-0.5c-0.1,0-0.2,0-0.4,0c-0.4,0-0.8-0.1-1.2-0.2c-0.3,0-0.6-0.1-0.8-0.3c-0.6-0.4-0.9-1.2-0.6-1.9
		c0-0.2,0.2-0.3,0.3-0.4c-0.1-0.2-0.3-0.4-0.4-0.6c-0.2-0.4-0.3-0.8-0.3-1.3c-0.2-1.4-0.3-2.9-0.4-4.3c0-1.3,0.3-2.5,0.9-3.6
		c0.3-0.7,0.6-1.5,0.8-2.3c0.3-1.6,0.5-3.3,0.5-4.9c0-2.3,0.4-4.6,1.1-6.8c0.2-0.8,0.2-1.7-0.1-2.5c-0.1-0.4-0.2-0.9-0.2-1.3
		c0-0.8-0.1-1.6-0.3-2.4c-0.1-0.4-0.2-0.7-0.4-1.1c-0.6-1.1-0.7-2.4-0.3-3.7c0.1-0.2,0.1-0.5,0.1-0.7c0.2-1.1,0.2-2.3,0-3.4
		c-0.1-0.9-0.4-1.9-0.6-2.8l-0.1,0.1c-0.7,1.3-1.3,2.7-1.8,4.1c0,0.1-0.1,0.3-0.1,0.4c-0.2,0.5-0.3,1.1-0.6,1.6s-0.5,1-0.8,1.5l0,0
		c-1,1.9-1.9,3.8-2.6,5.7c-0.4,1-0.7,2-1,2.9c-0.6,2-1.2,3.9-1.8,5.9l-0.2,0.8c-0.3,0.9-0.6,1.9-0.9,2.8c-0.3,0.8-0.5,1.6-0.8,2.4
		L235,203c-0.7,2.4-1.5,4.9-2.4,7.3l-0.2,0.5c-0.8,2.2-1.6,4.4-1.4,6.7c-0.7,0.3-1.5,0.5-2.3,0.5c-0.1,0-0.1,0-0.2,0h-0.1
		c0,0.1,0,0.1,0,0.2c0,0.2,0,0.4,0,0.6c0,0.1,0,0.2-0.1,0.3c-0.1,0.2-0.3,0.2-0.5,0.2c-0.1,0-0.2,0-0.3,0c0-0.4-0.1-0.9-0.1-1.3
		c-0.5-0.1-1.1-0.2-1.6-0.4l-0.6,1c-0.1,0.2-0.3,0.4-0.5,0.5c-0.1,0.1-0.3,0.1-0.5,0.2c-0.3,0-0.5,0.1-0.8,0.1
		c-1.2-0.1-2.4-0.3-3.5-0.7c-0.2-0.1-0.4-0.1-0.6-0.2c-0.5-0.4-0.6-1.1-0.3-1.6c0.4-0.4,0.8-0.6,1.4-0.7c0.5-0.1,0.9-0.3,1.3-0.5
		c0,0.2-0.1,0.4-0.1,0.5c0.3-0.2,0.6-0.4,0.8-0.6c-0.1-0.7-0.1-1.4,0.1-2.1c0.1-0.4,0.2-0.9,0.3-1.3c0.1-0.3,0.3-0.5,0.4-0.8
		c0.1-0.2,0.3-0.5,0.4-0.7c0.3-0.7,0.5-1.5,0.5-2.3c0-0.3,0.1-0.6,0.1-0.8c0.1-1.1,0.6-2.1,1.5-2.7c0.1-1.2,0.4-2.4,0.8-3.6
		c0.2-0.6,0.4-1.3,0.5-1.9c0.2-0.8,0.3-1.7,0.4-2.5c0.1-0.5,0.2-1.1,0.3-1.7c0.2-1.4,0.7-2.7,1.5-3.9c-0.1-1.2,0.2-2.3,0.8-3.3
		c0.1-0.2,0.2-0.5,0.3-0.7c0.1-0.2,0.1-0.5,0.1-0.7c0.1-1,0.5-1.9,1.2-2.6c-0.2-1,0-2.1,0.4-3l0,0c0.4-1.3,0.6-2.6,0.6-3.9
		c0-0.4,0-0.7,0.1-1.1c0-0.1,0.1-0.3,0.2-0.4c0.1-0.1,0.1-0.3,0.2-0.4c0.1-0.3,0.1-0.7,0.1-1c0.2-1.5,0.7-3,1.4-4.3
		c0.2-0.5,0.3-1.1,0.2-1.7c0-0.3,0-0.7,0-1c0-1.5,0.4-2.9,1-4.2c0.1-0.1,0.1-0.2,0.2-0.3c0.1-0.1,0.2-0.3,0.2-0.4
		c0.1-0.4,0.2-0.7,0.2-1.1c0-0.1,0-0.2,0-0.3c0.1-0.5,0-1-0.1-1.4c0.2-0.2,0.4-0.3,0.6-0.4c0-0.9,0.3-1.8,0.6-2.6l0-0.1l0.2-0.5l0,0
		c1.1-3,2.3-6.1,2.1-9.2c0-0.2,0-0.4-0.1-0.6c-0.3-0.4-0.6-0.8-0.9-1.2c-0.5-0.5-1.1-1-1.7-1.3c0.8-1.4,1.5-2.8,2.1-4.4
		c0.1-0.2,0.1-0.4,0-0.6c-0.1-0.2-0.3-0.3-0.5-0.3v-1c-0.3,0.2-0.7,0.3-1,0.1c-0.3-0.1-0.7-0.4-0.9-0.6c-0.7-0.7-1.3-1.4-2-2.1
		l-0.7-0.7c-0.5-0.5-0.9-1.1-1.3-1.7c-0.1-0.1-0.1-0.2-0.2-0.3c-0.3-0.5-0.4-1.1-0.5-1.7c-0.2-0.1-0.3-0.3-0.4-0.4c0,0,0,0,0,0
		c-0.1-0.1-0.1-0.2-0.2-0.4l-0.1-0.1c-0.4-0.7-0.9-1.5-1.4-2.3c-0.2-0.2-0.2-0.5-0.3-0.7c0-0.1,0-0.1,0-0.2c0-0.1,0-0.1,0-0.2
		c0-0.3-0.1-0.7-0.3-0.9c0-0.1-0.1-0.1-0.1-0.2c-0.1-0.1-0.2-0.3-0.2-0.4c0-0.2,0-0.4,0.1-0.6c0,0,0,0,0,0c0,0,0-0.1,0-0.1l-1.2,1.3
		l-0.2,0.2l-1.2,1.1l-0.8-0.8l1-1.3l0.2-0.2l1.9-2c-0.1-1.7,0.2-2.9,0.9-3c0,0,0.1,0,0.1,0c0.3,0,0.7,0.3,1.1,0.9l0.1-0.1l0.5-0.1
		l0.7-0.7l0,0l0.4-0.5l0.8,0l-0.8,0.8l0,0l-0.7,0.8v0.4l-0.4,0.4c0.3,0.7,0.5,1.3,0.6,2c0.1,0.3,0.1,0.6,0.2,0.9
		c0.3,0.5,0.7,1.1,1,1.6c0.2,0.2,0.3,0.4,0.4,0.6c0.1,0.3,0.3,0.5,0.6,0.8c0.1,0.1,0.2,0.1,0.2,0.2c0,0,0.1,0.1,0.1,0.1l0,0
		c0,0,0.1,0,0.1,0c0.1,0,0.2,0.1,0.3,0.2c0.5,0.4,0.8,0.9,1,1.5c0,0.1,0.1,0.2,0.1,0.3c0.1,0.1,0.1,0.1,0.2,0.2l1.1,1
		c0.3,0.4,0.7,0.6,1.2,0.7c0.2,0,0.4,0.1,0.6,0.2c0,0,0,0,0,0c0,0,0,0,0-0.1c0.1,0,0.2,0,0.3,0c0.3,0,0.6-0.1,0.9-0.2h0
		c0.3-0.1,0.6-0.2,0.9-0.2c0.1,0,0.2,0,0.3,0c0.2,0.1,0.4,0.1,0.6,0.2c0.4,0.1,0.8,0.2,1.2,0.1c0-0.1,0-0.1,0-0.2
		c0-0.1,0-0.3,0.1-0.4c0-0.2,0.1-0.5,0.1-0.7c0.1-1.2,0.1-2.4,0-3.5c-1.4-1.1-2.2-2.7-2.2-4.5c0-0.3,0-0.5,0.1-0.8l0,0
		c-0.1-0.1-0.1-0.1-0.2-0.2l0,0c-0.1-0.1-0.2-0.2-0.2-0.3c-0.2-0.3-0.3-0.6-0.4-0.9c-0.1-0.2-0.1-0.5,0-0.7c0-0.1,0.1-0.2,0.1-0.2
		l0-0.1l0,0c0,0,0-0.1,0.1-0.1l0.1-0.1l0.1-0.1l0.1-0.1l0.1-0.1c0.2-0.3,0.4-0.6,0.5-0.9c0-0.1,0-0.2,0-0.4c0-0.2,0-0.3,0-0.5
		c0-0.1,0-0.2,0-0.2v-0.3c0,0,0-0.1,0-0.1c0,0,0,0,0-0.1c0-0.1,0-0.1,0-0.2c0-0.1,0-0.1,0.1-0.2c0,0,0,0,0,0c0-0.1,0.1-0.1,0.1-0.1
		c0.1-0.1,0.2-0.2,0.3-0.3c1.2-0.6,2.5-0.9,3.8-0.8c1.2,0,2.3,0.1,3.1,0.2l0.4,0l0.1,0c1,0.1,2.1,0.2,3.1,0.6c1,0.3,1.9,1.1,2.4,2
		c0.3,0.8,0.4,1.7,0.3,2.5c0,0.5,0,1,0,1.5c0.1,0.7,0.3,1.4,0.5,2c0.1,0.4,0.2,0.7,0.3,1.1c0.4,1.8,0.5,3.7,0.3,5.6
		c-0.1,1.1-0.1,2.2-0.1,3.4c0.9,0.5,1.8,0.9,2.8,1.2c1.1,0.3,1.6,1.9,1.8,2.4c0.1,0.3,0.1,0.7,0.1,1c0,0.4,0.1,0.8,0.2,1.2
		c0.3,0.9,0.2,1.8-0.1,2.7c0,0.2,0,0.4-0.1,0.6l-0.2,1.6c0,0.3-0.1,0.5-0.1,0.8v0c0,0.3-0.1,0.5-0.1,0.8c-0.3,2.1-0.6,4.1-0.9,6.2
		c-0.1,0.4-0.1,0.9-0.2,1.5c0,0.3-0.1,0.6-0.1,0.9v0c-0.1,0.4-0.1,0.8-0.2,1.2c0,0.2-0.1,0.4-0.1,0.5c-0.1,0.1-0.1,0.2-0.3,0.3
		c0,0.1,0,0.2,0,0.3c0,1.1-0.2,2.2-0.5,3.3c-0.3,1.3-0.6,2.6-1.1,3.9c-0.1,0.1-0.1,0.3-0.2,0.4c-0.3,0.8-0.5,1.6-0.6,2.4
		c0,0.1,0,0.1,0,0.2c0.1,0.3,0,0.7-0.2,1c-0.2,0.2-0.5,0.4-0.8,0.4c0.1,0.9,0.2,1.9,0.2,2.8c0,2.8-0.3,5.6-0.7,8.4
		c0,0.1,0,0.2,0,0.2c0,0.4-0.1,0.7-0.1,1.1c0,0.6,0,1.2,0,1.8c0,0.7,0,1.4,0,2.1c-0.1,0.5-0.1,1.1-0.3,1.6c0,0.1-0.1,0.3-0.1,0.4
		c-0.6,3-0.7,6.1-0.5,9.2c0.1,2.5,0.1,4.9-0.2,7.4c-0.3,2.7-0.3,5.4-0.1,8c0.1,1,0,2-0.2,3c-0.1,0.6-0.2,1.2-0.4,1.8
		c-0.4,1.2-0.8,2.7-1.2,4.2c0,0.2-0.1,0.4-0.3,0.6c-0.3,0.2-0.6,0.4-1,0.3v0.4H249.7L249.7,220z M255.6,146.1L255.6,146.1
		c-0.2,0.1-0.3,0.3-0.4,0.5c-0.3,0.7-0.6,1.3-0.9,1.9c-0.1,0.2-0.2,0.4-0.4,0.6c-0.1,0.1-0.2,0.2-0.3,0.2l0,0.1
		c0,0.2-0.1,0.3-0.1,0.5c-0.3,1.7-0.5,3.3-0.4,5c0,0.3,0.1,0.5,0.2,0.8c0,0.1,0.1,0.2,0.2,0.3c0.1,0.1,0.1,0.2,0.2,0.3
		c0.1,0.3,0.1,0.5,0,0.8h0c0,0.8,0.2,1.7,0.6,2.4l0.1,0.2c0.1,0.2,0.1,0.3,0.2,0.5c0.1-0.1,0.2-0.2,0.2-0.3c0.1-0.2,0.1-0.4,0.1-0.6
		c0-0.4,0-0.9,0-1.3c0-0.3,0-0.6,0-0.9c0-0.7,0-1.4,0.1-2c0-0.1,0-0.1,0-0.2c0-0.1,0-0.2,0-0.4c0-0.1,0-0.2,0-0.3c0,0-0.1,0-0.1-0.1
		c-0.2-0.2-0.2-0.4-0.2-0.6c0-0.1,0-0.2,0.1-0.3c0-0.1,0.1-0.2,0.1-0.3c0-0.2,0-0.4,0-0.6c0-0.2,0-0.4,0-0.6
		c0.1-0.3,0.2-0.5,0.3-0.8c0.5-1.2,0.6-2.5,0.6-3.8C255.6,146.7,255.6,146.4,255.6,146.1L255.6,146.1z"/>
	<path id="Path-52" class="st9" d="M232.3,118l0.7-1l-0.7,0l-0.3,0.7L232.3,118z"/>
	<path id="Path-53" class="st10" d="M226,124.3l0.9-1.2l0.2-0.2l2.7-3.1l0.9-1l0.4-0.1l0.6-0.7l0.4,0.3l-0.6,0.8l0,0.4l-0.9,1.1
		l-2.6,3.1l-0.2,0.2l-1.1,1.1L226,124.3z"/>
	<path id="Path-54" class="st9" d="M227,122.1l3.1-3.1l0.9,0.9l-3,3.1L227,122.1z"/>
	
		<ellipse id="Oval-7" transform="matrix(0.9796 -0.2007 0.2007 0.9796 -19.8172 48.8566)" class="st11" cx="231" cy="122.1" rx="1.6" ry="4.4"/>
	<path id="Path-55" class="st12" d="M245.1,216c-0.2,0.6,0,1.3,0.6,1.6c0.2,0.1,0.5,0.2,0.8,0.2c0.4,0.1,0.7,0.1,1.1,0.1
		c0.5,0,0.9-0.2,1.4-0.2c0.1,0,0.1,0,0.2,0c0,0,0.1,0.1,0.1,0.2c0,0.2,0,0.5,0.1,0.7c0,0.1,0,0.2,0.1,0.2c0.1,0.1,0.2,0.1,0.3,0.1
		h1.4c0-1.1-0.1-2.3-0.4-3.4c0-0.1-0.1-0.2-0.1-0.2c-0.1-0.1-0.3-0.2-0.5-0.2c-0.4-0.1-0.7-0.2-1.1-0.2c-0.5,0.1-0.9,0.3-1.3,0.5
		c-0.4,0.3-0.9,0.4-1.4,0.3C245.7,215.7,245.3,215.4,245.1,216z"/>
	<path id="Path-56" class="st11" d="M222.9,214.6c-0.4,0.5-1,0.9-1.6,1.1l-0.3,0.1c0,0-0.1,0-0.1,0.1c0,0,0,0.1,0,0.1
		c0.4,0.7,1.3,1.1,2.1,0.8c0.2,0,0.3-0.1,0.5-0.3c0.2-0.3,0.3-0.6,0.4-1c0.1-0.4,0.1-0.8,0-1.1C223.5,213.6,223.4,214,222.9,214.6z"
		/>
	<path id="Path-57" class="st12" d="M228.9,218.5c0,0.1,0,0.2,0,0.3c-0.1,0.2-0.5,0.2-0.7,0.2c0-0.9-0.1-1.7-0.3-2.6
		c-0.5,0-0.9,0.4-1.2,0.9l-0.7,1.1c-0.1,0.2-0.3,0.3-0.4,0.5c-0.1,0.1-0.3,0.1-0.5,0.1c-1.4,0.1-2.8-0.1-4-0.6
		c-0.2,0-0.4-0.1-0.6-0.2c-0.5-0.3-0.6-1-0.3-1.4c0,0,0,0,0,0c0.5-0.7,1.8-0.5,2.5-1.1c-0.1,0.4-0.2,0.8-0.4,1.2
		c0.9-0.1,1.5-0.9,2.3-1.5c0.2-0.2,0.4-0.3,0.6-0.3c0.2,0,0.4,0,0.5,0.1c0.8,0.2,1.6,0.6,2.3,1.1c0.3,0.2,0.7,0.5,0.8,0.8
		C229,217.5,229,218,228.9,218.5z"/>
	<circle id="Oval-8" class="st11" cx="247.5" cy="119.5" r="5.5"/>
	<path id="Path-58" class="st12" d="M258,152.9c0,1.2-0.2,2.3-0.4,3.5c-0.2,1.4-0.5,2.8-0.9,4.2c-0.3,1-0.6,2-0.6,3
		c0.1,0.4,0,0.9-0.2,1.3c-0.2,0.2-0.4,0.4-0.7,0.5c-0.3,0.1-0.5,0.4-0.6,0.6c-0.2-0.4-0.4-0.9-0.5-1.4c-0.4-1.6-0.8-3.3-1.2-4.9
		c-0.1-0.2-0.1-0.4,0-0.6c0.1-0.1,0.1-0.1,0.2-0.1c0.2-0.1,0.5-0.3,0.6-0.5c0.1-0.1,0.2-0.2,0.2-0.4c0.1-0.2,0.1-0.4,0.1-0.7
		c0-0.8,0-1.6,0-2.4c0-0.7,0-1.4,0.1-2.2c0-0.1,0-0.4,0-0.6c0-0.4,0.1-0.8,0.3-1.2c0.3-0.3,1.2,0.1,1.5,0.1c0.6,0.1,1.2,0.2,1.7,0.4
		C258,152,258,152.5,258,152.9z"/>
	<path id="Path-59" class="st12" d="M235,127.1c-0.2,0.4-0.7,0.6-1.1,0.8l-1.3,0.9c-0.2,0.2-0.4,0.2-0.7,0.2
		c-0.2-0.1-0.4-0.2-0.5-0.4l0,0l-0.3-0.4l-1.3-2.1c-0.1-0.2-0.2-0.4-0.2-0.6c0-0.1,0-0.2,0.1-0.3c0-0.3-0.1-0.6-0.3-0.8
		c-0.1-0.2-0.3-0.3-0.3-0.5c0-0.3,0-0.5,0.1-0.8c0.1-0.2,0.3-0.4,0.6-0.6c0.1-0.1,0.3-0.2,0.4-0.2c0.1,0,0.2-0.1,0.2-0.1
		c0.2,0,0.4,0.1,0.7,0.1c1,0.6,1.3,1.7,2.1,2.5c0.4,0.5,0.5,0.8,0.9,1.2c0.1,0.1,0.2,0.1,0.2,0.2c0.1,0.1,0.2,0.2,0.2,0.3
		C234.6,126.6,235.1,126.9,235,127.1z"/>
	<path id="Path-60" class="st11" d="M246.6,127.2c0.5,0.8,0.7,1.8,0.6,2.8c0,0.3-0.1,0.5-0.2,0.7c-0.5,0.5-1.2,0.8-2,0.8
		c-0.3,0-0.6,0.1-0.9,0.3c-0.2,0.3-0.2,0.7,0.1,0.9c0.2,0.3,0.5,0.4,0.9,0.6c1.1,0.6,2.4,0.8,3.7,0.8c0.6-0.1,1.2-0.2,1.7-0.3
		c0.6-0.1,1.3-0.1,1.9-0.1c0.8,0,1.5-0.1,2.3-0.2l2-0.2c0.1,0,0.2,0,0.3-0.1c0.2-0.2,0-0.4-0.2-0.6c-1.1-0.8-2.4-1.3-3-2.5
		c-0.2-0.6-0.4-1.2-0.6-1.8c-0.3-0.6-0.5-1.1-0.7-1.7c-0.1-0.5-0.1-1.1-0.1-1.6c0-0.5-0.2-1.1-0.6-1.5c-0.4-0.3-1-0.5-1.5-0.5
		c-1.3-0.1-2.7,0.3-3.7,1.2c-0.3,0.3-0.5,0.5-0.7,0.8c-0.3,0.2-0.6,0.3-0.4,0.6c0.2,0.3,0.5,0.5,0.7,0.7
		C246.3,126.6,246.5,126.9,246.6,127.2L246.6,127.2z"/>
	<path id="Path-61" class="st12" d="M255.9,134.2c-0.3,2.2-0.9,4.3-1.7,6.4c-0.4,0.9-0.7,1.9-1,2.9c-0.2,0.9-0.2,1.8-0.4,2.7
		c-0.2,1.1-0.5,2.2-0.7,3.3c-0.3,1.7-0.5,3.4-0.4,5.1c0,0.3,0.1,0.5,0.1,0.8c0.1,0.2,0.2,0.4,0.3,0.6c0.1,0.4,0.1,0.8-0.1,1.1
		c-0.1,0.3-0.3,0.6-0.6,0.9c-2.6,0.8-5.3,0.5-8,0.7c-2.5,0.2-5,0.7-7.4,0.2c-0.1-1.2,0.1-2.4,0.6-3.4c1.2-3.2,2.4-6.5,2.2-9.9
		c0-0.4-0.1-0.8-0.1-1.2c-0.3-2.4-0.1-4.8,0.7-7.1c0.4-1.5,0.5-3,0.3-4.4c0-0.5-0.1-1,0-1.5c0-0.5,0.2-1,0.5-1.4l0-0.1
		c0,0,0.1,0,0.2,0l0,0c0,0,0.1,0,0.1,0c0,0,0,0,0,0c0,0,0.1,0,0.1,0c0.1,0,0.1,0.2,0.2,0.2c0.2,0,0.4,0.1,0.6,0.1
		c0.2,0,0.5,0,0.7,0.1h0c0.4,0.1,0.7,0,1.1-0.1c0.2-0.1,0.5-0.1,0.7-0.3c0.2-0.1,0.3-0.1,0.5-0.2c0.3-0.2,0.2-0.9,0.3-1.2
		c0-0.3,0.1-0.6,0.2-0.9c0.3-0.4,0.7-0.7,1.2-0.7c0.5,0,1,0,1.4,0.1c1,0.1,2.1,0.1,3.1,0.4c0.5,0.2,1,0.2,1.5,0.1
		c0.1,0,0.1,0.1,0.1,0.3c0,0.1,0,0.3-0.1,0.4c-0.2,0.8,0.4,1.5,1,2.1c0.2,0.3,0.5,0.5,0.8,0.7c0.3,0.1,0.6,0.2,0.8,0.3
		c0.2,0.1,0.4,0.3,0.6,0.5c0.2,0.2,0.3,0.5,0.3,0.8C256,133.2,256,133.7,255.9,134.2L255.9,134.2z"/>
	<path id="Path-62" class="st13" d="M256.9,134.3c-0.4,2.2-0.9,4.3-1.7,6.4c-0.4,0.9-0.8,1.9-1,2.9c-0.2,0.9-0.2,1.8-0.4,2.7
		c-0.3,1.1-0.5,2.2-0.7,3.3c-0.1,0-0.1,0.1-0.2,0.1c-0.4,0.2-0.7,0.3-1.1,0.4c-0.7,0.1-1.4,0.1-2.1-0.1l-4.1-0.5
		c-1.6-0.2-3.4-0.5-4.6-1.6c-0.6-0.6-1.2-1.4-1.6-2.2c0-0.4-0.1-0.8-0.1-1.2c-0.3-2.4-0.1-4.8,0.8-7.1c0.4-1.4,0.5-3,0.3-4.4
		c-0.1-0.5-0.1-1,0-1.5c0-0.5,0.2-1,0.5-1.4c0.1,0,0.2,0,0.3-0.1l0,0c0.1,0,0.1,0,0.2,0h0.1c0.1,0,0.2,0,0.3,0
		c0.2,0,0.4,0.1,0.6,0.2h0c0.2,0.1,0.5,0.1,0.8,0.1c0.4,0,0.8-0.1,1.2-0.1c0.5-0.1,0.9,0,1.4,0.2c0.3,0.2,0.5,0.4,0.8,0.7
		c0.3,0.2,0.6,0.4,1,0.5c2.5,0.9,5.2,0.9,7.6-0.2c0.2-0.1,0.5-0.2,0.8-0.2c0.2,0,0.4,0.1,0.6,0.2c0.2,0.1,0.3,0.2,0.5,0.3
		c0.2,0.2,0.3,0.5,0.3,0.8C257,133.2,257,133.8,256.9,134.3z"/>
	<path id="Path-63" class="st3" d="M258.8,133c-1.1-0.3-2.1-0.8-3.1-1.4c-0.2-0.1-0.3-0.2-0.5-0.2c-0.3,0-0.5,0.1-0.7,0.2
		c-2.3,1-4.9,1.1-7.3,0.2c-0.3-0.1-0.6-0.3-0.9-0.5c-0.2-0.2-0.5-0.5-0.7-0.7c-0.9-0.6-2.1,0.1-3.2-0.3c-0.2-0.1-0.4-0.2-0.5-0.2
		c-0.8-0.2-1.6,0.6-2.4,0.4c-0.3,0.8-0.5,1.7-0.6,2.5c-0.1,1-0.2,2-0.2,3c0,0.6,0,1.2,0,1.8c0.2,0,0.4,0.2,0.5,0.3
		c0.1,0.2,0.1,0.4,0,0.6c-0.5,1.5-1.2,3-2,4.4c0.6,0.4,1.2,0.8,1.7,1.3c1,1,1.4,2.5,2.5,3.5c1.3,1,2.8,1.5,4.4,1.6l3.9,0.6
		c0.7,0.1,1.3,0.1,2,0.1c0.4-0.1,0.7-0.2,1.1-0.4c0.2-0.1,0.4-0.2,0.6-0.4c0.1-0.2,0.3-0.4,0.4-0.6c0.3-0.6,0.6-1.3,0.8-1.9
		c0.1-0.2,0.2-0.5,0.5-0.5c1.5-1.3,2.8-2.7,4.3-4.1c0.6-0.5,1.1-1.1,1.6-1.7c0.7-1.1,0.1-2.6,0-4c0-0.3,0-0.7-0.1-1
		C260.4,134.4,259.7,133.5,258.8,133z"/>
	<path id="Path-64" class="st13" d="M235,127.1c-0.2,0.4-0.6,0.6-0.9,0.9l-1.1,0.9c-0.1,0.2-0.3,0.2-0.5,0.2
		c-0.2-0.1-0.3-0.2-0.4-0.4v-0.2c0-0.2,0-0.4,0.1-0.6c0.1-0.3,0.3-0.5,0.5-0.7c0.4-0.4,0.9-0.8,1.4-1c0.1,0,0.2,0,0.3,0
		c0,0,0.1,0,0.1,0c0.1,0.1,0.1,0.2,0.2,0.3C234.6,126.6,235.1,126.8,235,127.1z"/>
	<path id="Path-65" class="st3" d="M238.1,129.4c-0.4-0.1-0.8-0.3-1.1-0.6l-1-0.9c-0.1-0.1-0.1-0.1-0.2-0.2
		c-0.1-0.1-0.1-0.2-0.1-0.3c-0.2-0.5-0.5-0.9-0.9-1.3c-0.1-0.1-0.2-0.2-0.3-0.2c-0.1,0-0.2,0-0.3,0c-0.6,0.2-1.2,0.5-1.7,1
		c-0.2,0.2-0.4,0.4-0.6,0.7c-0.1,0.2-0.1,0.4-0.1,0.6c0,0.6,0.2,1.3,0.4,1.9c0,0.1,0.1,0.2,0.1,0.3c0.3,0.5,0.7,1,1.2,1.5l0.6,0.6
		c0.6,0.6,1.2,1.3,1.8,1.9c0.2,0.2,0.5,0.4,0.8,0.5c0.3,0.1,0.7,0.1,0.9-0.1c0.1-0.1,0.2-0.3,0.3-0.5c0.4-1,0.7-2,0.8-3
		c0-0.4,0-0.8-0.1-1.3C238.9,129.6,238.6,129.4,238.1,129.4z"/>
	<path id="Path-66" class="st9" d="M255,169.6c0,2.8-0.2,5.5-0.6,8.2c-0.1,0.4-0.1,0.9-0.1,1.3c-0.1,1.3,0.1,2.6-0.1,3.8
		c-0.1,0.7-0.2,1.4-0.3,2c-0.5,3-0.7,6.1-0.5,9.1c0.4,5.1-0.8,10.1-0.3,15.1c0.1,1,0,2-0.2,2.9c-0.1,0.6-0.2,1.2-0.4,1.8
		c-0.4,1.4-0.8,2.7-1.2,4.1c0,0.2-0.1,0.4-0.3,0.6c-0.3,0.2-0.7,0.4-1,0.3c-1.6-0.2-3.1-0.6-4.5-1.4c-0.2-0.1-0.3-0.2-0.5-0.3
		c-0.3-0.3-0.3-0.8-0.4-1.2c-0.2-0.4-0.4-0.8-0.7-1.2c-0.2-0.4-0.3-0.8-0.3-1.2c-0.2-1.4-0.3-2.8-0.4-4.2c-0.1-2,1.2-3.8,1.7-5.8
		c0.8-3.8,0.1-7.9,1.6-11.5c0.5-1.1-0.2-2.5-0.3-3.7c0-0.8-0.1-1.6-0.3-2.4c-0.4-1-0.7-2-0.9-3.1c0-0.8,0.2-1.5,0.3-2.3
		c0.2-1.1,0.2-2.3,0-3.4c-0.1-0.9-0.4-1.8-0.6-2.7l0,0.1c-0.7,1.3-1.2,2.7-1.7,4c-0.2,0.7-0.4,1.4-0.7,2c-0.2,0.5-0.5,1-0.8,1.6
		c-1,1.8-1.8,3.7-2.5,5.6c-0.3,0.9-0.6,1.9-0.9,2.9c-0.7,2.2-1.4,4.4-2,6.6c-0.5,1.7-1.2,3.4-1.7,5.1c-0.8,2.5-1.5,4.9-2.4,7.3
		c-0.8,2.3-1.8,4.7-1.5,7.1c-0.8,0.4-1.6,0.5-2.4,0.5c-1.4-0.1-2.8-0.5-4.1-1c-0.5-0.2-1-0.4-1.4-0.8c-0.5-0.8-0.6-1.9-0.3-2.8
		c0.1-0.4,0.2-0.8,0.3-1.3c0.2-0.5,0.5-1,0.8-1.5c0.3-1,0.6-2,0.6-3.1c0.1-1.1,0.6-2,1.4-2.7c0.3-1.8,0.7-3.6,1.3-5.4
		c0.3-1.4,0.4-2.7,0.7-4.1c0.2-1.4,0.7-2.7,1.5-3.8c-0.1-1.1,0.2-2.3,0.7-3.3c0.1-0.2,0.2-0.5,0.3-0.7c0.1-0.2,0.1-0.5,0.1-0.7
		c0.1-1,0.5-1.8,1.2-2.5c-0.2-1,0-2.1,0.5-3c0.4-1.2,0.6-2.5,0.6-3.9c0-0.4,0-0.7,0.1-1.1c0.1-0.3,0.2-0.5,0.3-0.8
		c0.1-0.3,0.1-0.7,0.1-1c0.2-1.5,0.6-2.9,1.4-4.2c0.4-0.8,0.1-1.8,0.1-2.7c0-1.4,0.4-2.9,1-4.2c0.1-0.2,0.3-0.5,0.4-0.7
		c0.1-0.3,0.2-0.7,0.2-1.1c0.1-0.6,0.1-1.2-0.1-1.7c1.6-1.1,3.5-1.7,5.4-1.6c1.9,0.1,3.8,0,5.7-0.3c0.5-0.1,1.1-0.3,1.7-0.4
		c1.3-0.1,2.7,0,4,0.4c0,0.8,0.2,1.6,0.5,2.4C254.3,162.9,255,166.2,255,169.6z"/>
	<path id="Path-67" class="st13" d="M250,170l-3.3,7c-0.2-0.9-0.4-1.8-0.6-2.7l-0.1,0.1l0-0.1l1.8-3.7L250,170z"/>
	<path id="Path-68" class="st13" d="M258,155.8c-0.2,0.1-0.4,0.2-0.6,0.2c-0.3,0-0.6,0-0.9-0.1l-2.3-0.6c-0.1,0-0.1,0-0.2-0.1
		c0-0.4,0.1-0.9,0.3-1.1c0.3-0.2,1.3,0.1,1.6,0.1c0.6,0.1,1.3,0.2,1.9,0.3C257.9,154.9,258,155.4,258,155.8z"/>
	<path id="Path-69" class="st3" d="M259.8,137.9c0,0.2,0.1,0.5,0.1,0.7c0.1,0.6,0,1.2,0,1.8l-0.2,1.7l-0.2,1.7l-0.8,6.4l-0.2,1.6
		l-0.3,2.2c0,0.2-0.1,0.4-0.1,0.5c-0.1,0.3-0.4,0.5-0.7,0.5c-0.3,0-0.6,0-0.9-0.1l-2.1-0.7c-0.1,0-0.2-0.1-0.3-0.1
		c-0.1-0.2-0.2-0.4-0.1-0.6c0-0.2,0.1-0.4,0.1-0.6c0.1-0.4-0.1-0.9,0-1.3c0-0.3,0.1-0.5,0.2-0.8c0.7-1.9,0.3-4.1,0.5-6.2
		c0.2-1.6,0.8-3.1,1.6-4.5c0.5-0.8,1.1-1.5,1.8-2.2c0.3-0.3,0.7-0.8,1-0.9C259.8,136.9,259.7,137.6,259.8,137.9z"/>
	<path id="Path-70" class="st9" d="M241.6,113.4c-0.2,0.6,0.1,1.2,0,1.8c-0.1,0.7-0.8,1.1-0.9,1.8c-0.3,1,0.6,1.9,1.2,2.8
		c2.3,3.1,2,7.5,1.2,11.3c-0.6,3.1-1.5,6.1-2.6,9c-0.3,0.9-0.8,1.8-1.4,2.5c1.2-0.5,2.6-0.6,3.9-0.4c1.6,0.5,3,2,4.6,1.7
		c1-0.2,1.7-1.1,2.6-1.6c1.7-0.9,3.7-0.3,5.5,0c0.4,0.1,0.8,0.1,1.2-0.1c0.3-0.2,0.5-0.4,0.7-0.7c0.8-1.1,1.3-2.4,1.4-3.7
		c0.1-1.4-0.4-2.7-1.4-3.7c-0.4-0.3-0.8-0.7-1.2-1.1c-0.3-0.5-0.5-1.1-0.5-1.7c-0.2-3.1,0.5-6.2-0.2-9.2c-0.4-1-0.6-2.1-0.9-3.2
		c-0.2-1.4,0.2-2.8-0.3-4.1c-0.5-1-1.3-1.7-2.3-2.1c-1-0.3-2.1-0.5-3.1-0.6C247.6,112.1,242.2,111.4,241.6,113.4z"/>
	<g id="Group" transform="translate(239 113)" class="st14">
		<path id="Path-71" d="M4.1,18.2c-0.6,3-1.5,6-2.6,8.8c0.2-0.4,0.4-0.8,0.5-1.2C3.1,23,3.9,20,4.6,17c0.8-3.8,1.1-8-1.2-11.1
			C2.7,5.3,2.3,4.4,2.1,3.5C1.9,3.8,1.8,4.1,1.6,4.4c-0.3,1,0.6,1.9,1.2,2.7C5.2,10.2,4.8,14.5,4.1,18.2z"/>
		<path id="Path-72" d="M2.6,2.3C2.8,2.1,3,1.7,3.1,1.4c0-0.4,0-0.8,0-1.2C2.9,0.3,2.7,0.6,2.6,0.8C2.5,1.3,2.5,1.8,2.6,2.3z"/>
		<path id="Path-73" d="M19.2,27.3c-0.2,0.3-0.4,0.5-0.7,0.7c-0.4,0.1-0.8,0.2-1.2,0.1c-1.9-0.3-3.9-0.8-5.5,0
			c-0.9,0.5-1.6,1.4-2.6,1.6C7.5,30,6.1,28.4,4.5,28c-1.2-0.2-2.4-0.1-3.5,0.3c-0.2,0.5-0.5,0.9-0.9,1.3c1.2-0.5,2.6-0.6,3.9-0.4
			c1.6,0.4,3,2,4.7,1.7c1-0.2,1.7-1.1,2.6-1.6c1.7-0.9,3.7-0.3,5.5,0c0.4,0.1,0.8,0.1,1.2-0.1c0.3-0.2,0.5-0.4,0.7-0.7
			c0.5-0.7,0.9-1.4,1.1-2.2C19.6,26.6,19.4,27,19.2,27.3z"/>
	</g>
	<path id="Path-74" class="st3" d="M274.4,188c0,0,1.6,2.1-0.7,5.2c-2.3,3.1-4.3,5.8-3.5,7.8c0,0,3.5-5.8,6.4-5.9
		S277.6,191.5,274.4,188z"/>
	<path id="Path-75" class="st13" d="M274.8,188c0.1,0.2,0.2,0.4,0.3,0.7c2.5,3.3,3.8,6.3,1.4,6.4c-2.2,0.1-4.9,4.5-5.5,5.7
		c0,0.1,0,0.2,0.1,0.3c0,0,3.1-5.8,5.7-5.9S277.6,191.5,274.8,188z"/>
	<path id="Path-76" class="st15" d="M277.2,190.5c0,0.8-0.1,1.5-0.2,1.5c-0.1,0-0.2-0.7-0.2-1.5c0-0.8,0.1-0.4,0.2-0.4
		C277.1,190.1,277.2,189.7,277.2,190.5z"/>
	<path id="Path-77" class="st15" d="M278.5,192.5c-0.5,0.3-1,0.4-1.5,0.5c-0.1-0.1,0.5-0.4,1.3-0.8c0.8-0.4,0.5-0.1,0.5,0
		C278.9,192.3,279.3,192.2,278.5,192.5z"/>
	<path id="Path-78" class="st3" d="M265.6,188c0,0-1.6,2.1,0.7,5.2c2.3,3.1,4.3,5.8,3.5,7.8c0,0-3.5-5.8-6.4-5.9
		C260.6,195,262.4,191.5,265.6,188z"/>
	<path id="Path-79" class="st13" d="M266.2,188c-0.1,0.2-0.2,0.4-0.3,0.7c-2.5,3.3-3.8,6.3-1.4,6.4c2.2,0.1,4.9,4.5,5.5,5.7
		c0,0.1,0,0.2-0.1,0.3c0,0-3.1-5.8-5.7-5.9C261.7,195,263.4,191.5,266.2,188z"/>
	<path id="Path-80" class="st15" d="M262.8,190.5c0,0.8,0.1,1.5,0.2,1.5c0.1,0,0.2-0.7,0.2-1.5c0-0.8-0.1-0.4-0.2-0.4
		C262.9,190.1,262.8,189.7,262.8,190.5z"/>
	<path id="Path-81" class="st15" d="M261.5,192.5c0.5,0.3,1,0.4,1.5,0.5c0.1-0.1-0.5-0.4-1.3-0.8c-0.8-0.4-0.5-0.1-0.5,0
		C261.1,192.3,260.7,192.2,261.5,192.5z"/>
	<path id="Path-82" class="st16" d="M280,199l-0.1,0.7l-0.1,1l0,0.4l-0.1,1l-0.1,0.4l-0.1,1l-1.3,10.9c-0.1,1-1.7,1.7-3.7,1.7h-7
		c-1.9,0-3.5-0.8-3.6-1.7l-1.3-10.9l-0.1-1l0-0.4l-0.1-1l-0.1-0.4l-0.1-1L262,199c-0.1-0.6,0.8-1,1.9-1h14.2
		C279.2,198,280.1,198.5,280,199z"/>
	<path id="Path-83" class="st17" d="M280,199l-0.1,1h-17.8l-0.1-1H280z"/>
	<path id="Path-84" class="st17" d="M280,200l-0.1,1h-17.8l-0.1-1H280z"/>
	<path id="Path-85" class="st17" d="M278,202l-0.1,1h-16.8l-0.1-1H278z"/>
</g>
</svg>
