<?xml version="1.0" encoding="utf-8"?>
<!-- Generator: Adobe Illustrator 19.2.1, SVG Export Plug-In . SVG Version: 6.00 Build 0)  -->
<svg version="1.1" id="Layer_1" xmlns="http://www.w3.org/2000/svg" xmlns:xlink="http://www.w3.org/1999/xlink" x="0px" y="0px"
	 viewBox="0 0 24 24" style="enable-background:new 0 0 24 24;" xml:space="preserve">
<style type="text/css">
	.st0{fill:none;}
	.st1{opacity:0.3;fill:#FFEDA1;enable-background:new    ;}
	.st2{fill:#FFEDA1;}
</style>
<title>Stockholm-icons / Home / Door-open</title>
<desc>Created with Sketch.</desc>
<g id="Stockholm-icons-_x2F_-Home-_x2F_-Door-open">
	<rect id="bound" class="st0" width="24" height="24"/>
	<polygon id="Path-90" class="st1" points="7,4.9 7,21 5,21 5,3 11,3 11,4.9 	"/>
	<path id="Combined-Shape" class="st2" d="M10.2,2.2l8,1.4c0.5,0.1,0.8,0.5,0.8,1v14.6c0,0.5-0.3,0.9-0.8,1l-8,1.4
		c-0.5,0.1-1.1-0.3-1.2-0.8c0-0.1,0-0.1,0-0.2V3.2c0-0.6,0.4-1,1-1C10.1,2.2,10.1,2.2,10.2,2.2z M11.9,12.9c0.7,0,1.3-0.6,1.3-1.4
		s-0.6-1.4-1.3-1.4c-0.7,0-1.3,0.6-1.3,1.4S11.2,12.9,11.9,12.9z"/>
</g>
</svg>
