<?xml version="1.0" encoding="utf-8"?>
<!-- Generator: Adobe Illustrator 19.2.1, SVG Export Plug-In . SVG Version: 6.00 Build 0)  -->
<svg version="1.1" id="Layer_1" xmlns="http://www.w3.org/2000/svg" xmlns:xlink="http://www.w3.org/1999/xlink" x="0px" y="0px"
	 viewBox="0 0 24 24" style="enable-background:new 0 0 24 24;" xml:space="preserve">
<style type="text/css">
	.st0{display:none;}
	.st1{display:inline;}
	.st2{fill:none;}
	.st3{fill:#8C54FF;}
	.st4{opacity:0.3;fill:#925EFE;enable-background:new    ;}
</style>
<g id="Layer_1_1_" class="st0">
	<title>Stockholm-icons / Map / Marker#1</title>
	<desc>Created with Sketch.</desc>
	<g id="Stockholm-icons-_x2F_-Map-_x2F_-Marker_x23_1" class="st1">
		<rect id="bound" class="st2" width="24" height="24"/>
		<path id="Combined-Shape" class="st3" d="M5,10.5C5,6,8,3,12.5,3S20,6.8,20,10.5c0,2.3-2.2,5.5-6.5,9.6c-0.6,0.5-1.4,0.5-2,0.1
			C7.2,16.5,5,13.3,5,10.5z M12.5,12c1.4,0,2.5-1.1,2.5-2.5S13.9,7,12.5,7S10,8.1,10,9.5S11.1,12,12.5,12z"/>
	</g>
</g>
<g id="Stockholm-icons-_x2F_-Map-_x2F_-Marker_x23_1_1_">
	<rect id="bound_1_" class="st2" width="23.9" height="23.9"/>
	<path id="Combined-Shape_1_" class="st4" d="M5,10.5C5,6,8,3,12.5,3S20,6.7,20,10.5c0,2.3-2.2,5.5-6.5,9.6c-0.6,0.5-1.4,0.5-2,0
		C7.2,16.4,5,13.2,5,10.5z"/>
</g>
<path class="st3" d="M11.5,13.2l-2.8-2.4c-0.3-0.2-0.4-0.7-0.1-1l0,0c0.3-0.3,0.7-0.3,0.9-0.1l2.8,2.3c0.3,0.3,0.4,0.8,0.1,1l0,0
	C12.1,13.4,11.8,13.5,11.5,13.2z"/>
<path class="st3" d="M11.4,12.2l4.2-4.5c0.2-0.3,0.7-0.3,1,0l0,0c0.3,0.3,0.3,0.7,0,0.9l-4.1,4.5c-0.3,0.3-0.8,0.3-1,0.1l0,0
	C11.2,12.9,11.2,12.4,11.4,12.2z"/>
</svg>
