<?xml version="1.0" encoding="utf-8"?>
<!-- Generator: Adobe Illustrator 19.2.1, SVG Export Plug-In . SVG Version: 6.00 Build 0)  -->
<svg version="1.1" id="undraw_insert_block_efyb" xmlns="http://www.w3.org/2000/svg" xmlns:xlink="http://www.w3.org/1999/xlink"
	 x="0px" y="0px" viewBox="0 0 264.8 211.8" style="enable-background:new 0 0 264.8 211.8;" xml:space="preserve">
<style type="text/css">
	.st0{fill:#F0F0F0;}
	.st1{fill:#2F2E41;}
	.st2{fill:#A0616A;}
	.st3{fill:#575A89;}
	.st4{opacity:0.1;enable-background:new    ;}
	.st5{fill:#F2F2F2;}
	.st6{fill:none;stroke:#3F3D56;stroke-width:0.638;stroke-miterlimit:10;}
	.st7{fill:#3F3D56;stroke:#3F3D56;stroke-width:0.638;stroke-miterlimit:10;}
	.st8{fill:#3F3D56;}
	.st9{fill:#E6E8EC;}
	.st10{fill:#FFFFFF;}
	.st11{opacity:0.3;fill:#CCCCCC;enable-background:new    ;}
	.st12{opacity:0.3;fill:none;stroke:#FFA000;stroke-width:0.638;stroke-miterlimit:10;enable-background:new    ;}
	.st13{fill:#FFA000;}
</style>
<path id="Path" class="st0" d="M70.9,161.3l19.8-31.1L46.3,102l-22.9,36l36.7,23.3H70.9z"/>
<path id="Path-2" class="st1" d="M219.2,45.5c-0.3,0.1-0.6,0-0.7-0.3c-0.6-0.9,0.5-2.1,0.3-3.1c-0.2-0.8-1.1-1.3-1.3-2.2
	c-0.2-0.8,0.4-1.7,0-2.4c-0.4-0.5-1.1-0.8-1.7-0.6c-0.6,0.1-1.3,0.4-1.9,0.4c-0.9-0.1-1.7-0.2-2.5-0.5c-0.8-0.3-1.8-0.1-2.4,0.6
	c-0.6,0.9,0,2.2-0.2,3.3c-0.2,0.9-0.9,1.6-0.9,2.5c0,0.3,0.8,0.1,0.8,0.4c0,0.3,0.3,0,0,0c-0.3-0.1-0.5-0.3-0.5-0.6
	c0-0.3-0.5-0.3-0.5-0.6c0-0.6-1.1-0.2-1.3-0.8c-0.4-1.4-0.3-2.8,0.2-4.1c0.3-0.5,0.5-1.1,0.7-1.7c0-0.8,0.1-1.6,0.2-2.5
	c0.5-1,1.5-1.7,2.7-1.7c1.1-0.1,2.2,0.1,3.3-0.1c1-0.3,2-0.4,2.9-0.5c1.2,0.2,2.3,0.8,3.1,1.7c0.8,0.9,1.6,1.8,2.5,2.6
	c0.3,0.2,0.6,0.4,0.8,0.7c0.4,0.6,0.6,1.4,0.4,2.2c-0.1,0.7-0.4,1.5-0.5,2.2c-0.1,0.7-0.1,1.4-0.1,2.1c0,0.7-0.2,1.4-0.6,2
	c-0.3,0.5-0.9,0.8-1.5,0.8c-0.2,0-0.4-0.2-0.6-0.1C219.5,45.2,219.4,45.4,219.2,45.5z"/>
<path id="Path-3" class="st2" d="M227.8,97l-0.7,4.5l-1.5-2l0.8-3.1L227.8,97z"/>
<path id="Path-4" class="st3" d="M226.8,62.7l1.2,3.1c0,0,1.2,15.6,1.2,16.8s-0.8,16.1-1.2,16.7c0,0-1.4-2-3.2-1.7s-1.1-5.3-1.1-5.3
	L222,78.4l0.3-7L226.8,62.7z"/>
<path id="Path-5" class="st4" d="M226.8,62.7l1.2,3.1c0,0,1.2,15.6,1.2,16.8s-0.8,16.1-1.2,16.7c0,0-1.4-2-3.2-1.7s-1.1-5.3-1.1-5.3
	L222,78.4l0.3-7L226.8,62.7z"/>
<path id="Path-6" class="st2" d="M219.6,45.8c0,0-3.5,8.9-1.5,10.6c2,1.7-11.2-2.9-11.2-2.9l0.3-1.2c0,0,4.3-1.7,2.2-6.6
	C207.3,40.9,219.6,45.8,219.6,45.8z"/>
<path id="Path-7" class="st4" d="M219.6,45.8c0,0-3.5,8.9-1.5,10.6c2,1.7-11.2-2.9-11.2-2.9l0.3-1.2c0,0,4.3-1.7,2.2-6.6
	C207.3,40.9,219.6,45.8,219.6,45.8z"/>
<path id="Path-8" class="st3" d="M225.1,164.4c0.8-0.2,1.7,0,2.3,0.6c1.3,1.3,2.6,2.5,4,3.7c0,0,6.1-0.6,7,2.4
	c0.8,3.1-9.6,3.1-12.2,2.3c-2.5-0.7-3.1,0-3.1,0s-7.8,0.6-7.8-0.6c0-1.3,0.7-5.6,0.7-5.6L225.1,164.4z"/>
<path id="Path-9" class="st3" d="M200.2,171.5l1.4,4.2c0,0,4.1,5.7,1.8,6.9s-10.6,2.3-10.6-0.7V176c0,0,0.8-4.1,1.7-4.5
	S200.2,171.5,200.2,171.5z"/>
<path id="Path-10" class="st1" d="M223.6,95.5c0,0,4.5,3.9,4.4,4.4c-0.1,0.5-2.2,34.5-2.2,34.5l-1.2,22c0,0,1.5,5.2,0.7,6.3
	c-0.7,1.2,1.1,1.5,1.1,1.5s-7.6,6.9-10.8,3.9l-3-38.4l-8.2,27.9c0,0-1.4,14.8-3,14.8c-1.6,0-8,0.3-7.9-0.5c0.1-0.8-0.3-7.3,0.4-11.1
	s5.7-33.9,5.7-33.9s0.4-25.8-0.7-28.2s0.6-5,0.6-5l7.4-2.9l8.9,1.1L223.6,95.5z"/>
<ellipse id="Oval" class="st2" cx="214.6" cy="42" rx="7.4" ry="7.4"/>
<path id="Path-11" class="st3" d="M196.6,57.9c0.7-2.1,2.5-3.7,4.7-4.2c2.1-0.5,4.2-1.2,6.2-2.1c0,0,7.5,3.6,9,3.6s1.5-1,1.5-1
	s3.8,4,5.8,4.4s5,5.4,3.9,8.1c-0.7,1.8-1.8,3.4-3.1,4.8c0,0,0.4,14.8-1,17.5c0,0,3.4,6.4,0.2,6.9c-3.2,0.4-15.4-1.1-17.5,0.4
	c-2.1,1.5-6-0.3-6.6,1.7c-0.2,1-0.8,1.9-1.7,2.4c0,0-1.8-2.9-0.7-4.5C198.5,94.3,196.6,57.9,196.6,57.9z"/>
<path id="Path-12" class="st2" d="M204.5,97.7l1.7,1.1c0,0-1.8,6.2-2.5,6.4c-0.7,0.2-2.5-5.3-2.5-5.3L204.5,97.7z"/>
<path id="Path-13" class="st1" d="M220.5,44.8c-0.3,0.1-0.6,0-0.7-0.3c-0.6-0.9,0.5-2.1,0.3-3.1c-0.2-0.8-1.1-1.3-1.3-2.2
	c-0.2-0.8,0.4-1.7,0-2.4c-0.4-0.5-1.1-0.8-1.7-0.6c-0.6,0.1-1.3,0.4-1.9,0.4c-0.9-0.1-1.7-0.2-2.5-0.5c-0.8-0.3-1.8-0.1-2.4,0.6
	c-0.6,0.9,0,2.2-0.2,3.3c-0.2,0.9-2.2,1.5-2.4,0.9c-0.4-1.4-0.3-2.8,0.2-4.1c0.3-0.5,0.5-1.1,0.7-1.7c0-0.8,0.1-1.6,0.2-2.5
	c0.5-1,1.5-1.7,2.7-1.7c1.1-0.1,2.2,0.1,3.3-0.1c1-0.3,2-0.4,2.9-0.5c1.2,0.2,2.3,0.8,3.1,1.7c0.8,0.9,1.6,1.8,2.5,2.6
	c0.3,0.2,0.6,0.4,0.8,0.7c0.4,0.6,0.6,1.4,0.4,2.2c-0.1,0.7-0.4,1.5-0.5,2.2c-0.1,0.7-0.1,1.4-0.1,2.1c0,0.7-0.2,1.4-0.6,2
	c-0.3,0.5-0.9,0.8-1.5,0.8c-0.2,0-0.4-0.2-0.6-0.1C220.8,44.4,220.7,44.7,220.5,44.8z"/>
<path id="Path-14" class="st4" d="M200.8,59.8l-3.4-1.8c0,0-8.4,19.9-6.4,25.4c2,5.5,9.7,16.8,9.7,16.8s6.1-1.3,5.5-2.5
	c-0.6-1.3-4.8-9.4-5.1-10.5s-2.4-7.9-1.5-8.7s2.8-17.9,2.8-17.9L200.8,59.8z"/>
<path id="Path-15" class="st3" d="M200.8,56.8l-4.2,1.2c0,0-8.4,19.9-6.4,25.4c2,5.5,9.7,16.8,9.7,16.8s6.1-1.3,5.5-2.5
	s-4.8-9.4-5.1-10.5c-0.3-1.1-2.4-7.9-1.5-8.7s5.5-19,5.5-19L200.8,56.8z"/>
<rect id="Rectangle" x="164.4" y="40.9" transform="matrix(0.5789 -0.8154 0.8154 0.5789 32.6441 161.5305)" class="st0" width="16.6" height="16.6"/>
<ellipse id="Oval-2" class="st5" cx="65" cy="207.9" rx="58.2" ry="3.8"/>
<ellipse id="Oval-3" class="st5" cx="206.6" cy="192.2" rx="58.2" ry="3.8"/>
<path id="Path-16" class="st6" d="M6.8,184.5l199,0"/>
<ellipse id="Oval-4" class="st6" cx="183.2" cy="71.5" rx="3.5" ry="3.5"/>
<rect id="Rectangle-2" x="41.9" y="21.2" class="st6" width="7.7" height="7.6"/>
<rect id="Rectangle-3" x="51.8" y="127.8" class="st6" width="7.7" height="7.6"/>
<path id="Path-17" class="st7" d="M10.3,185.1v-23.7"/>
<ellipse id="Oval-5" class="st8" cx="10.3" cy="161.4" rx="3.4" ry="3.3"/>
<path id="Path-18" class="st8" d="M10.3,176c0,0-0.5-10.3-10.3-9.1"/>
<path id="Rectangle-4" class="st8" d="M161.8,41.9h1.3c0.4,0,0.7,0.3,0.7,0.7v20.9c0,0.4-0.3,0.7-0.7,0.7h-1.3
	c-0.4,0-0.7-0.3-0.7-0.7V42.6C161.1,42.2,161.4,41.9,161.8,41.9z"/>
<path id="Rectangle-5" class="st8" d="M71.2,24.3h0.6c0.3,0,0.5,0.2,0.5,0.5v6.4c0,0.3-0.2,0.5-0.5,0.5h-0.6c-0.3,0-0.5-0.2-0.5-0.5
	v-6.4C70.8,24.5,71,24.3,71.2,24.3z"/>
<path id="Rectangle-6" class="st8" d="M71.2,37.8h0.6c0.3,0,0.5,0.2,0.5,0.5v11.7c0,0.3-0.2,0.5-0.5,0.5h-0.6
	c-0.3,0-0.5-0.2-0.5-0.5V38.3C70.7,38.1,70.9,37.8,71.2,37.8z"/>
<path id="Rectangle-7" class="st8" d="M71.2,55.1h0.6c0.3,0,0.5,0.2,0.5,0.5v11.9c0,0.3-0.2,0.5-0.5,0.5h-0.6
	c-0.3,0-0.5-0.2-0.5-0.5V55.6C70.7,55.3,71,55.1,71.2,55.1z"/>
<path id="Rectangle-8" class="st8" d="M83,0h68.2c6.3,0,11.4,5.1,11.4,11.4v161.7c0,6.3-5.1,11.4-11.4,11.4H83
	c-6.3,0-11.4-5.1-11.4-11.4V11.4C71.6,5.1,76.7,0,83,0z"/>
<path id="Rectangle-9" class="st9" d="M109.1,5.5h11.1c0.4,0,0.8,0.4,0.8,0.8v1c0,0.4-0.4,0.8-0.8,0.8h-11.1c-0.4,0-0.8-0.4-0.8-0.8
	v-1C108.3,5.9,108.7,5.5,109.1,5.5z"/>
<ellipse id="Oval-6" class="st9" cx="124.4" cy="6.8" rx="1.5" ry="1.5"/>
<path id="Path-19" class="st10" d="M156.9,12v160.5c0,4-3.2,7.2-7.2,7.2l0,0H84.5c-4,0-7.2-3.2-7.2-7.2c0,0,0,0,0,0V12
	c0-4,3.2-7.2,7.2-7.2c0,0,0,0,0,0h9.8v1.3c0,3.3,2.7,5.9,5.9,5.9h33.2c3.3,0,5.9-2.7,5.9-5.9c0,0,0,0,0,0V4.8h10.4
	C153.7,4.8,156.9,8,156.9,12C156.9,12,156.9,12,156.9,12z"/>
<rect id="Rectangle-10" x="77.2" y="31.7" class="st11" width="79.8" height="54.7"/>
<rect id="Rectangle-11" x="77.2" y="104.3" class="st11" width="79.8" height="54.7"/>
<path id="Path-20" class="st12" d="M77.2,31.7L157,86.4"/>
<path id="Path-21" class="st12" d="M157,31.7L77.2,86.4"/>
<path id="Path-22" class="st12" d="M77.2,104.3L157,159"/>
<path id="Path-23" class="st12" d="M157,104.3L77.2,159"/>
<rect id="Rectangle-12" x="169.7" y="137.4" class="st13" width="79.8" height="54.7"/>
<path id="Path-24" class="st8" d="M249.5,192.2l-16.9-33l-5.7,15.6l-20.3-29.7l-13.4,18.4l-6.5-7.9l-16.9,20.9v15.6H249.5z"/>
<ellipse id="Oval-7" class="st8" cx="239.8" cy="150.1" rx="5.8" ry="5.8"/>
<rect id="Rectangle-13" x="23.4" y="152.7" class="st13" width="79.8" height="54.7"/>
<rect id="Rectangle-14" x="29.9" y="164.8" class="st8" width="66.9" height="3.2"/>
<rect id="Rectangle-15" x="29.9" y="171.6" class="st8" width="66.9" height="3.2"/>
<rect id="Rectangle-16" x="29.9" y="178.5" class="st8" width="66.9" height="3.2"/>
<rect id="Rectangle-17" x="29.9" y="185.3" class="st8" width="66.9" height="3.2"/>
<rect id="Rectangle-18" x="29.9" y="192.2" class="st8" width="66.9" height="3.2"/>
</svg>
