<?xml version="1.0" encoding="utf-8"?>
<!-- Generator: Adobe Illustrator 19.2.1, SVG Export Plug-In . SVG Version: 6.00 Build 0)  -->
<svg version="1.1" id="Layer_1" xmlns="http://www.w3.org/2000/svg" xmlns:xlink="http://www.w3.org/1999/xlink" x="0px" y="0px"
	 viewBox="0 0 262 230" style="enable-background:new 0 0 262 230;" xml:space="preserve">
<style type="text/css">
	.st0{fill:#3F3D56;}
	.st1{fill:#A0616A;}
	.st2{fill:#D0CDE1;}
	.st3{fill:#2F2E41;}
	.st4{opacity:0.1;enable-background:new    ;}
	.st5{fill:#FFA000;}
	.st6{fill:#E6E6E6;}
	.st7{fill:#FFFFFF;}
</style>
<g id="undraw_selection_92i4" transform="translate(0 0)">
	<path id="Path" class="st0" d="M171,230c-8.8-1.5-17.3-2.8-25.4-3.8l3.2-6.2c-1.1-0.4-5.9,3.2-5.9,3.2l4.2-18.1
		c-5.5,0.7-8.2,19.1-8.2,19.1l-6.1-6.2l3,7c-21.4-2.6-42.9-3.9-64.5-4.1l2.8-5.3c-1.1-0.4-5.8,3.2-5.8,3.2l4.2-18.1
		c-5.5,0.7-8.2,19.1-8.2,19.1l-6.1-6.2l3.1,7.4c-12.4,0.2-24.8,1-37.1,2.5c2.8-8.3,12.2-16.2,12.2-16.2c-7.2,2.1-11,5.7-13,9.1
		c-0.2-17.2,2.7-34.2,8.4-50.4c0,0-14.9,32.5-13,54.3l0.2,3.9c-6.4,0.8-12.8,2.1-19,3.7L171,230z"/>
	<path id="Shape" class="st0" d="M107.6,187L107.6,187v-0.6h0.1c1.2,0,2.4,0,3.7-0.1l0,0.6C110.1,187,108.8,187,107.6,187z
		 M103.8,186.9L103.8,186.9c-1.2,0-2.5-0.1-3.8-0.2l0-0.6c1.2,0.1,2.5,0.2,3.7,0.2L103.8,186.9L103.8,186.9z M115.1,186.7
		L115.1,186.7l0-0.6c1.2-0.1,2.5-0.2,3.7-0.4l0.1,0.6C117.6,186.5,116.3,186.6,115.1,186.7L115.1,186.7z M96.3,186.3L96.3,186.3
		c-1.2-0.1-2.5-0.3-3.7-0.5l0.1-0.6c1.2,0.2,2.5,0.4,3.7,0.5L96.3,186.3L96.3,186.3z M122.5,185.8L122.5,185.8l-0.1-0.6
		c1.2-0.2,2.4-0.4,3.7-0.7l0.1,0.6C125,185.4,123.8,185.6,122.5,185.8L122.5,185.8z M88.8,185.1L88.8,185.1
		c-1.2-0.2-2.4-0.5-3.7-0.8l0.1-0.6c1.2,0.3,2.4,0.6,3.6,0.8L88.8,185.1L88.8,185.1z M129.9,184.3L129.9,184.3l-0.1-0.6
		c1.2-0.3,2.4-0.6,3.6-1l0.2,0.6C132.3,183.7,131.1,184,129.9,184.3L129.9,184.3z M81.5,183.3L81.5,183.3c-1.2-0.4-2.4-0.7-3.6-1.1
		l0.2-0.6c1.2,0.4,2.4,0.8,3.6,1.1L81.5,183.3L81.5,183.3z M137.1,182.2L137.1,182.2l-0.2-0.6c1.2-0.4,2.4-0.8,3.5-1.3l0.2,0.6
		C139.5,181.4,138.3,181.8,137.1,182.2L137.1,182.2z M74.4,181L74.4,181c-1.2-0.4-2.3-0.9-3.5-1.4l0.2-0.6c1.1,0.5,2.3,1,3.5,1.4
		L74.4,181L74.4,181z M144.2,179.5L144.2,179.5l-0.2-0.6c1.1-0.5,2.3-1,3.4-1.5l0.3,0.6C146.5,178.5,145.3,179.1,144.2,179.5
		L144.2,179.5z M67.4,178L67.4,178c-1.1-0.5-2.3-1.1-3.4-1.7l0.3-0.6c1.1,0.6,2.2,1.1,3.4,1.7L67.4,178L67.4,178z M151,176.3
		L151,176.3l-0.3-0.6c1.1-0.6,2.2-1.2,3.3-1.8l0.3,0.5C153.2,175.1,152.1,175.7,151,176.3L151,176.3z M60.8,174.5L60.8,174.5
		c-1.1-0.6-2.2-1.3-3.2-2l0.3-0.5c1,0.7,2.1,1.3,3.2,1.9L60.8,174.5L60.8,174.5z M157.5,172.5L157.5,172.5l-0.3-0.5
		c1-0.7,2.1-1.3,3.1-2.1l0.4,0.5C159.6,171.2,158.5,171.9,157.5,172.5L157.5,172.5z M54.4,170.5L54.4,170.5c-1-0.7-2.1-1.5-3.1-2.2
		l0.4-0.5c1,0.7,2,1.5,3,2.2L54.4,170.5L54.4,170.5z M163.7,168.3L163.7,168.3l-0.4-0.5c1-0.7,2-1.5,2.9-2.3l0.4,0.5
		C165.7,166.7,164.7,167.5,163.7,168.3L163.7,168.3z M48.4,165.9L48.4,165.9c-1-0.8-1.9-1.6-2.9-2.4l0.4-0.5
		c0.9,0.8,1.9,1.6,2.8,2.4L48.4,165.9L48.4,165.9z M169.5,163.5L169.5,163.5l-0.4-0.5c0.9-0.8,1.9-1.7,2.7-2.5l0.4,0.4
		C171.4,161.8,170.4,162.7,169.5,163.5L169.5,163.5z M42.7,160.9L42.7,160.9c-0.9-0.9-1.8-1.8-2.7-2.7l0.4-0.4
		c0.9,0.9,1.7,1.8,2.6,2.6L42.7,160.9L42.7,160.9z M174.9,158.3L174.9,158.3l-0.4-0.4c0.8-0.9,1.7-1.8,2.5-2.7l0.5,0.4
		C176.6,156.5,175.8,157.4,174.9,158.3L174.9,158.3z M37.5,155.5L37.5,155.5c-0.8-0.9-1.6-1.9-2.4-2.9l0.5-0.4
		c0.8,0.9,1.6,1.9,2.4,2.8L37.5,155.5L37.5,155.5z M179.9,152.7L179.9,152.7l-0.5-0.4c0.8-1,1.6-1.9,2.3-2.9l0.5,0.4
		C181.5,150.7,180.7,151.7,179.9,152.7L179.9,152.7z M32.8,149.7L32.8,149.7c-0.7-1-1.5-2-2.2-3l0.5-0.4c0.7,1,1.4,2,2.2,3
		C33.3,149.3,32.8,149.7,32.8,149.7z M184.4,146.6L184.4,146.6l-0.5-0.4c0.7-1,1.4-2.1,2.1-3.1l0.5,0.3
		C185.8,144.6,185.1,145.6,184.4,146.6L184.4,146.6z M28.5,143.5L28.5,143.5c-0.7-1.1-1.3-2.1-1.9-3.2l0.5-0.3
		c0.6,1.1,1.3,2.1,1.9,3.2L28.5,143.5L28.5,143.5z M188.5,140.3L188.5,140.3l-0.5-0.3c0.6-1.1,1.2-2.2,1.8-3.3l0.6,0.3
		C189.7,138.1,189.1,139.2,188.5,140.3L188.5,140.3z M24.7,137L24.7,137c-0.6-1.1-1.2-2.3-1.7-3.4l0.6-0.3c0.5,1.1,1.1,2.2,1.7,3.3
		L24.7,137L24.7,137z M192,133.6L192,133.6l-0.6-0.3c0.5-1.1,1.1-2.3,1.5-3.4l0.6,0.2C193,131.3,192.5,132.5,192,133.6L192,133.6z
		 M21.5,130.2L21.5,130.2c-0.5-1.1-1-2.3-1.4-3.5l0.6-0.2c0.4,1.2,0.9,2.3,1.4,3.5L21.5,130.2L21.5,130.2z M194.9,126.7L194.9,126.7
		l-0.6-0.2c0.4-1.2,0.9-2.4,1.3-3.5l0.6,0.2C195.8,124.3,195.4,125.5,194.9,126.7L194.9,126.7z M18.8,123.2L18.8,123.2
		c-0.4-1.2-0.8-2.4-1.1-3.6l0.6-0.2c0.3,1.2,0.7,2.4,1.1,3.6L18.8,123.2L18.8,123.2z M197.3,119.5L197.3,119.5l-0.6-0.2
		c0.3-1.2,0.7-2.4,1-3.6l0.6,0.1C198,117.1,197.7,118.3,197.3,119.5L197.3,119.5z M16.7,116L16.7,116c-0.3-1.2-0.6-2.4-0.8-3.7
		l0.6-0.1c0.2,1.2,0.5,2.4,0.8,3.6L16.7,116L16.7,116z M199.1,112.2L199.1,112.2l-0.6-0.1c0.2-1.2,0.5-2.4,0.7-3.7l0.6,0.1
		C199.6,109.7,199.4,111,199.1,112.2L199.1,112.2z M15.2,108.6L15.2,108.6c-0.2-1.2-0.4-2.5-0.5-3.7l0.6-0.1
		c0.1,1.2,0.3,2.4,0.5,3.7L15.2,108.6L15.2,108.6z M200.3,104.8L200.3,104.8l-0.6-0.1c0.1-1.2,0.3-2.5,0.4-3.7l0.6,0
		C200.6,102.3,200.5,103.5,200.3,104.8L200.3,104.8z M14.3,101.1L14.3,101.1c-0.1-1.2-0.2-2.5-0.2-3.8l0.6,0
		c0.1,1.2,0.1,2.5,0.2,3.7L14.3,101.1L14.3,101.1z M200.9,97.3L200.9,97.3l-0.6,0c0-1.2,0.1-2.5,0.1-3.7v-0.2h0.6v0.2
		C201,94.7,201,96,200.9,97.3L200.9,97.3z M14.6,93.6H14v-0.1c0-1.2,0-2.5,0.1-3.7l0.6,0C14.6,91.1,14.6,92.3,14.6,93.6L14.6,93.6
		L14.6,93.6z M200.3,89.6L200.3,89.6c-0.1-1.2-0.1-2.5-0.2-3.7l0.6-0.1c0.1,1.3,0.2,2.5,0.2,3.8L200.3,89.6L200.3,89.6z M14.9,86.1
		L14.9,86.1l-0.6,0c0.1-1.2,0.2-2.5,0.4-3.7l0.6,0.1C15.1,83.6,15,84.9,14.9,86.1L14.9,86.1z M199.7,82.1L199.7,82.1
		c-0.2-1.2-0.3-2.5-0.5-3.7l0.6-0.1c0.2,1.3,0.4,2.5,0.5,3.7L199.7,82.1L199.7,82.1z M15.8,78.7L15.8,78.7l-0.6-0.1
		c0.2-1.2,0.4-2.5,0.7-3.7l0.6,0.1C16.2,76.2,16,77.5,15.8,78.7L15.8,78.7z M198.5,74.7L198.5,74.7c-0.2-1.2-0.5-2.4-0.8-3.6
		l0.6-0.2c0.3,1.2,0.6,2.5,0.8,3.7L198.5,74.7L198.5,74.7z M17.3,71.4L17.3,71.4l-0.6-0.1c0.3-1.2,0.6-2.4,1-3.6l0.6,0.2
		C17.9,68.9,17.6,70.2,17.3,71.4L17.3,71.4z M196.7,67.5L196.7,67.5c-0.3-1.2-0.7-2.4-1.1-3.6l0.6-0.2c0.4,1.2,0.8,2.4,1.1,3.6
		L196.7,67.5L196.7,67.5z M19.3,64.2L19.3,64.2L18.8,64c0.4-1.2,0.8-2.4,1.3-3.6l0.6,0.2C20.2,61.8,19.7,63,19.3,64.2L19.3,64.2z
		 M194.3,60.4L194.3,60.4c-0.4-1.2-0.9-2.3-1.4-3.5l0.6-0.2c0.5,1.2,1,2.3,1.4,3.5L194.3,60.4L194.3,60.4z M22,57.2L22,57.2
		l-0.6-0.2c0.5-1.2,1-2.3,1.5-3.4l0.6,0.3C23,54.9,22.5,56,22,57.2L22,57.2z M191.4,53.5L191.4,53.5c-0.5-1.1-1.1-2.3-1.7-3.3
		l0.6-0.3c0.6,1.1,1.1,2.2,1.7,3.4L191.4,53.5L191.4,53.5z M25.2,50.4L25.2,50.4l-0.6-0.3c0.6-1.1,1.2-2.2,1.8-3.3l0.5,0.3
		C26.4,48.2,25.8,49.3,25.2,50.4L25.2,50.4z M187.9,46.9L187.9,46.9c-0.6-1.1-1.3-2.2-1.9-3.2l0.5-0.3c0.7,1.1,1.3,2.1,2,3.2
		L187.9,46.9L187.9,46.9z M28.9,43.9L28.9,43.9l-0.5-0.3c0.7-1.1,1.4-2.1,2.1-3.1l0.5,0.4C30.3,41.8,29.6,42.9,28.9,43.9L28.9,43.9z
		 M183.9,40.6L183.9,40.6c-0.7-1-1.5-2-2.2-3l0.5-0.4c0.8,1,1.5,2,2.2,3L183.9,40.6L183.9,40.6z M33.2,37.8L33.2,37.8l-0.5-0.4
		c0.7-1,1.5-2,2.3-3l0.5,0.4C34.7,35.8,34,36.7,33.2,37.8L33.2,37.8z M179.4,34.7L179.4,34.7c-0.8-1-1.6-1.9-2.4-2.8l0.5-0.4
		c0.8,0.9,1.7,1.9,2.4,2.9L179.4,34.7L179.4,34.7z M37.9,32L37.9,32l-0.5-0.4c0.8-0.9,1.7-1.9,2.6-2.8l0.5,0.4
		C39.6,30.1,38.8,31,37.9,32L37.9,32z M174.4,29.1L174.4,29.1c-0.9-0.9-1.8-1.8-2.6-2.6l0.4-0.5c0.9,0.9,1.8,1.8,2.7,2.7L174.4,29.1
		L174.4,29.1z M43.1,26.6L43.1,26.6l-0.4-0.4c0.9-0.9,1.8-1.7,2.8-2.6l0.4,0.5C44.9,24.8,44,25.7,43.1,26.6L43.1,26.6z M169,23.9
		L169,23.9c-0.9-0.8-1.9-1.6-2.9-2.4l0.4-0.5c1,0.8,2,1.6,2.9,2.4L169,23.9z M48.7,21.6L48.7,21.6l-0.4-0.5c1-0.8,2-1.6,3-2.3
		l0.4,0.5C50.7,20,49.7,20.8,48.7,21.6L48.7,21.6z M163.2,19.2L163.2,19.2c-1-0.7-2-1.5-3-2.2l0.4-0.5c1,0.7,2.1,1.4,3.1,2.2
		L163.2,19.2L163.2,19.2z M54.7,17.1L54.7,17.1l-0.4-0.5c1-0.7,2.1-1.4,3.1-2.1l0.3,0.5C56.7,15.7,55.7,16.4,54.7,17.1L54.7,17.1z
		 M157,14.9L157,14.9c-1.1-0.7-2.1-1.3-3.2-1.9l0.3-0.5c1.1,0.6,2.2,1.3,3.2,1.9L157,14.9L157,14.9z M61,13.1L61,13.1l-0.3-0.5
		c1.1-0.6,2.2-1.2,3.3-1.8l0.3,0.6C63.1,11.9,62.1,12.5,61,13.1L61,13.1z M150.5,11.2L150.5,11.2c-1.1-0.6-2.2-1.1-3.4-1.7l0.3-0.6
		c1.1,0.5,2.3,1.1,3.4,1.7L150.5,11.2L150.5,11.2z M67.6,9.6L67.6,9.6l-0.3-0.6c1.1-0.5,2.3-1.1,3.4-1.5L71,8.1
		C69.8,8.6,68.7,9.1,67.6,9.6L67.6,9.6z M143.8,8L143.8,8c-1.2-0.5-2.3-1-3.5-1.4l0.2-0.6c1.2,0.4,2.4,0.9,3.5,1.4L143.8,8L143.8,8z
		 M74.4,6.7L74.4,6.7l-0.2-0.6c1.2-0.4,2.4-0.9,3.5-1.3l0.2,0.6C76.8,5.8,75.6,6.2,74.4,6.7L74.4,6.7z M136.8,5.3L136.8,5.3
		c-1.2-0.4-2.4-0.8-3.6-1.1l0.2-0.6c1.2,0.3,2.4,0.7,3.6,1.1L136.8,5.3L136.8,5.3z M81.5,4.3L81.5,4.3l-0.2-0.6
		c1.2-0.3,2.4-0.7,3.6-1l0.1,0.6C83.9,3.6,82.7,4,81.5,4.3L81.5,4.3z M129.6,3.3L129.6,3.3c-1.2-0.3-2.4-0.6-3.6-0.8l0.1-0.6
		c1.2,0.2,2.5,0.5,3.7,0.8L129.6,3.3L129.6,3.3z M88.8,2.5L88.8,2.5l-0.1-0.6c1.2-0.3,2.5-0.5,3.7-0.7l0.1,0.6
		C91.2,2,90,2.3,88.8,2.5z M122.2,1.8L122.2,1.8c-1.2-0.2-2.5-0.4-3.7-0.5l0.1-0.6c1.2,0.1,2.5,0.3,3.7,0.5L122.2,1.8L122.2,1.8z
		 M96.2,1.3L96.2,1.3l-0.1-0.6c1.3-0.2,2.5-0.3,3.7-0.4l0.1,0.6C98.6,1,97.4,1.2,96.2,1.3z M114.8,0.9L114.8,0.9
		c-1.2-0.1-2.5-0.2-3.7-0.2l0-0.6c1.3,0,2.5,0.1,3.8,0.2L114.8,0.9L114.8,0.9z M103.6,0.7L103.6,0.7l0-0.6c1.2-0.1,2.5-0.1,3.8-0.1
		v0.6C106.1,0.6,104.9,0.7,103.6,0.7L103.6,0.7z"/>
	<path id="Path-2" class="st1" d="M78.2,129c0,0-2.4,11-0.3,11s6.2-5.1,6.2-5.1v-2.9L78.2,129z"/>
	<path id="Path-3" class="st2" d="M84,119l-7,10h5.1L84,119z"/>
	<rect id="Rectangle" x="79" y="208" class="st1" width="9" height="7"/>
	<path id="Path-4" class="st1" d="M107,207l1.8,8l9.2-2.1l-2.2-6.9L107,207z"/>
	<path id="Path-5" class="st3" d="M80.3,132c0,0-2.9,1.4-3.2,7.9s1.1,23.4,1.1,23.4c-0.8,4.8-0.8,9.7,0,14.4
		c1.4,6.9-1.4,31.7,0.4,31.7s11.2,1.1,11.5,0s0.7-17.3,0.7-17.3s2.9-8.3,0-13.3c0,0,6.5,5.4,6.5,6.9c0,1.4,6.8,23.8,10.1,24.2
		c3.2,0.4,12.2-0.4,10.4-3.6s-6.1-18-6.1-18s-3.2-10.8-9-15.5l2.9-23.1c0,0,6.1-15.5,2.5-17.7S80.3,132,80.3,132z"/>
	<circle id="Oval" class="st1" cx="90.5" cy="63.5" r="9.5"/>
	<path id="Path-6" class="st1" d="M86,68.5c0,0,3.6,11.9,2.5,13.3c-1.1,1.4,11.5-7.9,11.5-7.9s-4.7-3.2-2.9-7.9L86,68.5z"/>
	<path id="Path-7" class="st2" d="M102,74c0,0-4.4,1.4-6.6,4c-2.2,2.5-7.3,2.9-7.3,2.9s-4.5,2.5-6.2,6.8c-1.8,4.6-0.8,11.1,0,12.6
		c1.5,2.9,1.5,10.1,1.5,10.1l-1.8,16.5c0,0-6.6,6.1-1.5,6.8c5.1,0.7,14.3-0.4,19.8,0s11.7,1.1,9.9-2.5s-4-6.1-1.8-13.3
		c1.7-5.6,1.6-26.7,1.5-35.6c0-2.5-1.4-4.8-3.5-6L102,74z"/>
	<path id="Path-8" class="st1" d="M86.9,129c-0.8,1.8-1.4,3.7-1.8,5.7c-1.3,16.5,7.9,0,7.9,0v-2.8L86.9,129z"/>
	<path id="Path-9" class="st3" d="M113,212.3c0,0-5.5-4.1-5.5-1.9s-6.3,11.1-6.3,11.1s-10.3,7.4-1.8,7.4s12.2-1.5,12.2-1.5l8.9-5.9
		c0,0,2.2-2.6,1.5-5.6c-0.8-2.5-1.9-4.8-3.3-7C118.5,209,115.6,213.1,113,212.3z"/>
	<path id="Path-10" class="st3" d="M81,213.4c0,0-0.7-3.7-3.3-1.9c-2.5,1.9-9.4,7.4-9.4,7.4s-12.7,3-4.7,6.7
		c8,3.7,26.1-1.5,26.1-1.5s0.7-11.9,0-11.5C89,213,81.4,214.1,81,213.4z"/>
	<path id="Path-11" class="st4" d="M95.9,85l1.1,21.9L86.7,128l-1.7-0.7l10.6-19.7L95.9,85z"/>
	<path id="Path-12" class="st2" d="M104.3,77.5L107,77c0,0,8,6,5.5,18s-13.6,30.1-13.6,30.1s-2.5,3.3-3.2,4c-0.7,0.7-2.1,0-1.4,1.1
		c0.7,1.1-1.1,1.8-1.1,1.8s-7.9,0-7.2-2.9c0.7-2.9,12.9-23.6,12.9-23.6l-1.8-19.2C97.1,86.3,95.7,76.8,104.3,77.5z"/>
	<path id="Path-13" class="st4" d="M108,111.5V109l-12,20L108,111.5z"/>
	<path id="Path-14" class="st3" d="M84.1,54.4l-1.6-0.6c0,0,3.3-3.5,7.9-3.2l-1.3-1.4c0,0,3.2-1.2,6.1,2c1.7,1.7,3.2,3.7,4.4,5.9
		h1.7l-0.7,1.5L103,60l-2.5-0.3c0.2,1.3,0.2,2.6-0.2,3.9l0.1,1.2c0,0-3-4.4-3-5v1.5c0,0-1.6-1.4-1.6-2.3l-0.9,1.1l-0.4-1.7l-5.3,1.7
		l0.9-1.4l-3.3,0.5l1.3-1.7c0,0-3.7,2-3.9,3.6c-0.1,1.7-2,3.8-2,3.8l-0.9-1.5C81.2,63.5,79.9,56.7,84.1,54.4z"/>
	<rect id="Rectangle-2" x="128" y="51" class="st5" width="134" height="27"/>
	<rect id="Rectangle-3" x="128" y="82" class="st6" width="134" height="27"/>
	<circle id="Oval-2" class="st7" cx="142" cy="64" r="8"/>
	<rect id="Rectangle-4" x="161" y="61" class="st7" width="78" height="2"/>
	<rect id="Rectangle-5" x="161" y="65" class="st7" width="78" height="2"/>
	<circle id="Oval-3" class="st7" cx="142" cy="95" r="8"/>
	<rect id="Rectangle-6" x="161" y="92" class="st7" width="78" height="2"/>
	<rect id="Rectangle-7" x="161" y="97" class="st7" width="78" height="2"/>
	<rect id="Rectangle-8" x="161" y="92" class="st7" width="78" height="2"/>
	<rect id="Rectangle-9" x="161" y="97" class="st7" width="78" height="2"/>
	<rect id="Rectangle-10" x="128" y="112" class="st6" width="134" height="27"/>
	<circle id="Oval-4" class="st7" cx="142" cy="126" r="8"/>
	<rect id="Rectangle-11" x="161" y="123" class="st7" width="78" height="2"/>
	<rect id="Rectangle-12" x="161" y="127" class="st7" width="78" height="2"/>
	<rect id="Rectangle-13" x="161" y="123" class="st7" width="78" height="2"/>
	<rect id="Rectangle-14" x="161" y="127" class="st7" width="78" height="2"/>
	<path id="Path-15" class="st5" d="M140.9,67l-2.9-3.9l0.7-0.5l2.4,3.2l9.4-7.7l0.5,0.7L140.9,67z"/>
</g>
</svg>
