<?xml version="1.0" encoding="utf-8"?>
<!-- Generator: Adobe Illustrator 19.2.1, SVG Export Plug-In . SVG Version: 6.00 Build 0)  -->
<svg version="1.1" xmlns="http://www.w3.org/2000/svg" xmlns:xlink="http://www.w3.org/1999/xlink" x="0px" y="0px"
	 viewBox="0 0 200 200" style="enable-background:new 0 0 200 200;" xml:space="preserve">
<style type="text/css">
	.st0{fill:#F9A01B;}
	.st1{fill:#F9F9FA;}
</style>
<g id="Layer_1">
	<path class="st0" d="M102.3,0.7C62,0.7,29.5,33.2,29.5,73.5c0,56.5,72.9,126.5,72.9,126.5s72.9-70.2,72.9-126.5
		C175.2,33.2,142.6,0.7,102.3,0.7L102.3,0.7z"/>
</g>
<g id="Layer_2">
	<g id="XMLID_273_">
		<g id="XMLID_274_">
			<path id="XMLID_275_" class="st1" d="M91,54.6V77h21V54.6c10,3.8,16.4,12.4,17.4,22.4h21C149,53,129,32.9,104,31.7v-0.7
				c0-1.4-1.1-2.5-2.5-2.5S99,29.6,99,30.9v0.7C75,32.9,55.1,53,53.7,77h21C75.8,67,83,58.4,91,54.6z"/>
		</g>
		<g id="XMLID_276_">
			<path id="XMLID_277_" class="st1" d="M156.5,80H47.6c-1.4,0-2.6,1.1-2.6,2.5s1.1,2.5,2.6,2.5h5.8l3.3,5h90.7l3.3-5h5.8
				c1.4,0,2.6-1.1,2.6-2.5S157.9,80,156.5,80z"/>
		</g>
	</g>
</g>
</svg>
