<svg xmlns="http://www.w3.org/2000/svg" width="39.934" height="39.918" viewBox="0 0 39.934 39.918">
  <defs>
    <style>
      .cls-1 {
        fill: #fff;
      }
    </style>
  </defs>
  <g id="analysis" transform="translate(0.002 -0.007)">
    <path id="Shape" class="cls-1" d="M13.971,27.941A13.971,13.971,0,0,1,4.092,4.092,13.971,13.971,0,1,1,23.849,23.849,13.879,13.879,0,0,1,13.971,27.941ZM1.4,12.641a12.624,12.624,0,0,0,12.56,13.971h.019A12.629,12.629,0,0,0,25.024,7.852L23.573,9.3a2.617,2.617,0,0,1,.377,1.343,2.664,2.664,0,0,1-2.661,2.661,2.63,2.63,0,0,1-1.343-.377L15.59,17.285a2.661,2.661,0,1,1-4.568,0L8,14.259a2.617,2.617,0,0,1-1.343.377,2.662,2.662,0,0,1-2.567-2Zm11.9,4.657a1.331,1.331,0,1,0,1.33,1.331A1.332,1.332,0,0,0,13.306,17.3Zm0-1.33a2.577,2.577,0,0,1,1.343.377l4.357-4.356a2.623,2.623,0,0,1-.377-1.344,2.664,2.664,0,0,1,2.66-2.661,2.634,2.634,0,0,1,1.342.38L24.294,6.7a12.624,12.624,0,0,0-22.675,4.61H4.086a2.654,2.654,0,1,1,4.851,2.009l3.026,3.026A2.578,2.578,0,0,1,13.306,15.967ZM6.653,10.644a1.331,1.331,0,1,0,1.33,1.331A1.332,1.332,0,0,0,6.653,10.644Zm14.636-1.33a1.331,1.331,0,1,0,1.331,1.33A1.332,1.332,0,0,0,21.289,9.314Z" transform="translate(2.676 2.67)"/>
    <path id="Shape-2" data-name="Shape" class="cls-1" d="M36.444,39.918A3.465,3.465,0,0,1,33.978,38.9l-5.356-5.356-.941-.941-2.008-2.008a16.579,16.579,0,0,1-9.029,2.673,16.779,16.779,0,0,1-7.26-1.661A16.639,16.639,0,0,1,.143,14.464,16.633,16.633,0,0,1,16.62,0a16.789,16.789,0,0,1,7.247,1.653,16.459,16.459,0,0,1,5.959,4.853L31,5.337a2.631,2.631,0,0,1-.377-1.343,2.656,2.656,0,0,1,5.228-.666h4.086V4.659H35.846a2.663,2.663,0,0,1-2.567,2,2.633,2.633,0,0,1-1.343-.377l-1.33,1.33a16.6,16.6,0,0,1,0,18.053l2.008,2.008.94.94,5.355,5.356a3.487,3.487,0,0,1-2.466,5.953ZM32.614,29.55h0L29.563,32.6l5.355,5.356.035.034a2.157,2.157,0,1,0,3.016-3.085L32.614,29.55Zm-16-28.266a15.327,15.327,0,0,0,.026,30.653,15.22,15.22,0,0,0,8.9-2.857c.319-.228.6-.441.855-.653.04-.033.079-.068.118-.1s.08-.071.12-.1c.24-.205.472-.418.689-.631.086-.083.178-.174.288-.288.221-.227.433-.459.631-.689l.073-.084c.047-.053.091-.1.133-.154.21-.254.424-.534.654-.856A15.326,15.326,0,0,0,16.61,1.283ZM29.831,26.768c-.04.052-.083.1-.125.153s-.067.08-.1.121c-.073.092-.153.189-.246.3-.108.128-.236.278-.373.43l-.119.126-.081.086c-.259.276-.525.543-.792.793l-.093.088-.12.112c-.131.118-.272.24-.43.373-.1.086-.208.174-.3.246-.039.031-.078.064-.116.1s-.1.088-.158.129l1.841,1.841,3.051-3.051Zm3.448-24.1a1.331,1.331,0,1,0,1.33,1.331A1.333,1.333,0,0,0,33.279,2.663Z" transform="translate(0 0.007)"/>
  </g>
</svg>
