<svg id="clock" xmlns="http://www.w3.org/2000/svg" width="32" height="32" viewBox="0 0 32 32">
  <defs>
    <style>
      .cls-1 {
        fill: #fff;
      }
    </style>
  </defs>
  <circle id="Oval" class="cls-1" cx="1.067" cy="1.067" r="1.067" transform="translate(14.933 14.869)"/>
  <path id="Shape" class="cls-1" d="M16,32A16,16,0,1,1,32,16,16.018,16.018,0,0,1,16,32Zm0-5.4a.534.534,0,0,0-.534.534v.533a.533.533,0,1,0,1.067,0v-.533A.534.534,0,0,0,16,26.6Zm7.919-3.28a.53.53,0,0,0-.377.157.536.536,0,0,0,0,.754l.377.377a.533.533,0,1,0,.754-.754l-.377-.377A.53.53,0,0,0,23.919,23.322Zm-15.839,0a.53.53,0,0,0-.377.157l-.377.377a.536.536,0,0,0,0,.754.532.532,0,0,0,.754,0l.377-.377a.534.534,0,0,0-.377-.911Zm2.053-7.92a.534.534,0,0,0,0,1.067h3.81a2.129,2.129,0,1,0,2.59-2.591V8.469a.533.533,0,1,0-1.067,0v5.409A2.128,2.128,0,0,0,13.943,15.4Zm17.067,0a.534.534,0,0,0,0,1.067h.534a.534.534,0,0,0,0-1.067Zm-22.933,0a.534.534,0,0,0,0,1.067H4.8a.534.534,0,0,0,0-1.067ZM24.3,7.1a.53.53,0,0,0-.377.157l-.377.377a.536.536,0,0,0,0,.754.532.532,0,0,0,.754,0l.377-.377A.534.534,0,0,0,24.3,7.1ZM7.7,7.1a.534.534,0,0,0-.377.911l.377.377a.533.533,0,1,0,.754-.754L8.08,7.261A.528.528,0,0,0,7.7,7.1ZM16,3.668a.534.534,0,0,0-.534.534v.534a.533.533,0,0,0,1.067,0V4.2A.534.534,0,0,0,16,3.668Z"/>
</svg>
