<svg xmlns="http://www.w3.org/2000/svg" width="80" height="79" viewBox="0 0 80 79">
  <defs>
    <style>
      .cls-1 {
        opacity: 0.313;
      }
    </style>
  </defs>
  <g id="hotel" class="cls-1">
    <path id="Shape" d="M62.667,79H17.333A1.338,1.338,0,0,1,16,77.661v-54.9H2.667V76.322a1.333,1.333,0,1,1-2.667,0v-54.9a1.338,1.338,0,0,1,1.333-1.339H16V1.339A1.338,1.338,0,0,1,17.333,0H62.667A1.338,1.338,0,0,1,64,1.339V12.051H78.666A1.338,1.338,0,0,1,80,13.39V76.322a1.333,1.333,0,1,1-2.667,0V14.728H64V77.661A1.338,1.338,0,0,1,62.667,79ZM32,61.593H48a1.338,1.338,0,0,1,1.334,1.339V76.322h12V2.678H18.667V76.322h12V62.932A1.338,1.338,0,0,1,32,61.593Zm9.333,2.678h0V76.322h5.333V64.271Zm-8,0h0V76.322h5.333V64.271Z"/>
    <path id="Shape-2" data-name="Shape" d="M9.333,10.712h-8A1.338,1.338,0,0,1,0,9.373V1.339A1.338,1.338,0,0,1,1.333,0h8a1.338,1.338,0,0,1,1.334,1.339V9.373A1.338,1.338,0,0,1,9.333,10.712ZM2.667,2.678V8.034H8V2.678Z" transform="translate(21.333 5.356)"/>
    <path id="Shape-3" data-name="Shape" d="M9.333,10.712h-8A1.338,1.338,0,0,1,0,9.373V1.339A1.338,1.338,0,0,1,1.333,0h8a1.338,1.338,0,0,1,1.334,1.339V9.373A1.338,1.338,0,0,1,9.333,10.712ZM2.667,2.678V8.034H8V2.678Z" transform="translate(34.667 5.356)"/>
    <path id="Shape-4" data-name="Shape" d="M9.333,10.712h-8A1.338,1.338,0,0,1,0,9.373V1.339A1.338,1.338,0,0,1,1.333,0h8a1.338,1.338,0,0,1,1.334,1.339V9.373A1.338,1.338,0,0,1,9.333,10.712ZM2.667,2.678V8.034H8V2.678Z" transform="translate(48 5.356)"/>
    <path id="Shape-5" data-name="Shape" d="M9.333,10.712h-8A1.338,1.338,0,0,1,0,9.373V1.339A1.338,1.338,0,0,1,1.333,0h8a1.338,1.338,0,0,1,1.334,1.339V9.373A1.338,1.338,0,0,1,9.333,10.712ZM2.667,2.678V8.034H8V2.678Z" transform="translate(21.333 18.746)"/>
    <path id="Shape-6" data-name="Shape" d="M9.333,10.712h-8A1.338,1.338,0,0,1,0,9.373V1.339A1.338,1.338,0,0,1,1.333,0h8a1.338,1.338,0,0,1,1.334,1.339V9.373A1.338,1.338,0,0,1,9.333,10.712ZM2.667,2.678V8.034H8V2.678Z" transform="translate(34.667 18.746)"/>
    <path id="Shape-7" data-name="Shape" d="M9.333,10.712h-8A1.338,1.338,0,0,1,0,9.373V1.339A1.338,1.338,0,0,1,1.333,0h8a1.338,1.338,0,0,1,1.334,1.339V9.373A1.338,1.338,0,0,1,9.333,10.712ZM2.667,2.678V8.034H8V2.678Z" transform="translate(48 18.746)"/>
    <path id="Shape-8" data-name="Shape" d="M9.333,10.712h-8A1.338,1.338,0,0,1,0,9.373V1.339A1.338,1.338,0,0,1,1.333,0h8a1.338,1.338,0,0,1,1.334,1.339V9.373A1.338,1.338,0,0,1,9.333,10.712ZM2.667,2.678V8.034H8V2.678Z" transform="translate(21.333 32.136)"/>
    <path id="Shape-9" data-name="Shape" d="M9.333,10.712h-8A1.338,1.338,0,0,1,0,9.373V1.339A1.338,1.338,0,0,1,1.333,0h8a1.338,1.338,0,0,1,1.334,1.339V9.373A1.338,1.338,0,0,1,9.333,10.712ZM2.667,2.678V8.034H8V2.678Z" transform="translate(34.667 32.136)"/>
    <path id="Shape-10" data-name="Shape" d="M9.333,10.712h-8A1.338,1.338,0,0,1,0,9.373V1.339A1.338,1.338,0,0,1,1.333,0h8a1.338,1.338,0,0,1,1.334,1.339V9.373A1.338,1.338,0,0,1,9.333,10.712ZM2.667,2.678V8.034H8V2.678Z" transform="translate(48 32.136)"/>
    <path id="Shape-11" data-name="Shape" d="M9.333,10.712h-8A1.338,1.338,0,0,1,0,9.373V1.339A1.338,1.338,0,0,1,1.333,0h8a1.338,1.338,0,0,1,1.334,1.339V9.373A1.338,1.338,0,0,1,9.333,10.712ZM2.667,2.678V8.034H8V2.678Z" transform="translate(21.333 45.525)"/>
    <path id="Shape-12" data-name="Shape" d="M9.333,10.712h-8A1.338,1.338,0,0,1,0,9.373V1.339A1.338,1.338,0,0,1,1.333,0h8a1.338,1.338,0,0,1,1.334,1.339V9.373A1.338,1.338,0,0,1,9.333,10.712ZM2.667,2.678V8.034H8V2.678Z" transform="translate(34.667 45.525)"/>
    <path id="Shape-13" data-name="Shape" d="M9.333,10.712h-8A1.338,1.338,0,0,1,0,9.373V1.339A1.338,1.338,0,0,1,1.333,0h8a1.338,1.338,0,0,1,1.334,1.339V9.373A1.338,1.338,0,0,1,9.333,10.712ZM2.667,2.678V8.034H8V2.678Z" transform="translate(48 45.525)"/>
    <path id="Path" d="M2.667,0H1.333A1.336,1.336,0,0,0,0,1.339V2.678A1.336,1.336,0,0,0,1.333,4.017H2.667A1.336,1.336,0,0,0,4,2.678V1.339A1.336,1.336,0,0,0,2.667,0Z" transform="translate(5.333 25.441)"/>
    <path id="Path-2" data-name="Path" d="M2.667,0H1.333A1.336,1.336,0,0,0,0,1.339V2.678A1.336,1.336,0,0,0,1.333,4.017H2.667A1.336,1.336,0,0,0,4,2.678V1.339A1.336,1.336,0,0,0,2.667,0Z" transform="translate(10.667 25.441)"/>
    <path id="Path-3" data-name="Path" d="M2.667,0H1.333A1.336,1.336,0,0,0,0,1.339V2.678A1.336,1.336,0,0,0,1.333,4.017H2.667A1.336,1.336,0,0,0,4,2.678V1.339A1.336,1.336,0,0,0,2.667,0Z" transform="translate(5.333 30.797)"/>
    <path id="Path-4" data-name="Path" d="M2.667,0H1.333A1.336,1.336,0,0,0,0,1.339V2.678A1.336,1.336,0,0,0,1.333,4.017H2.667A1.336,1.336,0,0,0,4,2.678V1.339A1.336,1.336,0,0,0,2.667,0Z" transform="translate(10.667 30.797)"/>
    <path id="Path-5" data-name="Path" d="M2.667,0H1.333A1.336,1.336,0,0,0,0,1.339V2.678A1.336,1.336,0,0,0,1.333,4.017H2.667A1.336,1.336,0,0,0,4,2.678V1.339A1.336,1.336,0,0,0,2.667,0Z" transform="translate(5.333 36.153)"/>
    <path id="Path-6" data-name="Path" d="M2.667,0H1.333A1.336,1.336,0,0,0,0,1.339V2.678A1.336,1.336,0,0,0,1.333,4.017H2.667A1.336,1.336,0,0,0,4,2.678V1.339A1.336,1.336,0,0,0,2.667,0Z" transform="translate(10.667 36.153)"/>
    <path id="Path-7" data-name="Path" d="M2.667,0H1.333A1.336,1.336,0,0,0,0,1.339V2.678A1.336,1.336,0,0,0,1.333,4.017H2.667A1.336,1.336,0,0,0,4,2.678V1.339A1.336,1.336,0,0,0,2.667,0Z" transform="translate(5.333 41.508)"/>
    <path id="Path-8" data-name="Path" d="M2.667,0H1.333A1.336,1.336,0,0,0,0,1.339V2.678A1.336,1.336,0,0,0,1.333,4.017H2.667A1.336,1.336,0,0,0,4,2.678V1.339A1.336,1.336,0,0,0,2.667,0Z" transform="translate(10.667 41.508)"/>
    <path id="Path-9" data-name="Path" d="M2.667,0H1.333A1.336,1.336,0,0,0,0,1.339V2.678A1.336,1.336,0,0,0,1.333,4.017H2.667A1.336,1.336,0,0,0,4,2.678V1.339A1.336,1.336,0,0,0,2.667,0Z" transform="translate(5.333 46.864)"/>
    <path id="Path-10" data-name="Path" d="M2.667,0H1.333A1.336,1.336,0,0,0,0,1.339V2.678A1.336,1.336,0,0,0,1.333,4.017H2.667A1.336,1.336,0,0,0,4,2.678V1.339A1.336,1.336,0,0,0,2.667,0Z" transform="translate(10.667 46.864)"/>
    <path id="Path-11" data-name="Path" d="M2.667,0H1.333A1.336,1.336,0,0,0,0,1.339V2.678A1.336,1.336,0,0,0,1.333,4.017H2.667A1.336,1.336,0,0,0,4,2.678V1.339A1.336,1.336,0,0,0,2.667,0Z" transform="translate(5.333 52.22)"/>
    <path id="Path-12" data-name="Path" d="M2.667,0H1.333A1.336,1.336,0,0,0,0,1.339V2.678A1.336,1.336,0,0,0,1.333,4.017H2.667A1.336,1.336,0,0,0,4,2.678V1.339A1.336,1.336,0,0,0,2.667,0Z" transform="translate(10.667 52.22)"/>
    <path id="Path-13" data-name="Path" d="M2.667,0H1.333A1.336,1.336,0,0,0,0,1.339V2.678A1.336,1.336,0,0,0,1.333,4.017H2.667A1.336,1.336,0,0,0,4,2.678V1.339A1.336,1.336,0,0,0,2.667,0Z" transform="translate(5.333 57.576)"/>
    <path id="Path-14" data-name="Path" d="M2.667,0H1.333A1.336,1.336,0,0,0,0,1.339V2.678A1.336,1.336,0,0,0,1.333,4.017H2.667A1.336,1.336,0,0,0,4,2.678V1.339A1.336,1.336,0,0,0,2.667,0Z" transform="translate(10.667 57.576)"/>
    <path id="Path-15" data-name="Path" d="M2.667,0H1.333A1.336,1.336,0,0,0,0,1.339V2.678A1.336,1.336,0,0,0,1.333,4.017H2.667A1.336,1.336,0,0,0,4,2.678V1.339A1.336,1.336,0,0,0,2.667,0Z" transform="translate(5.333 62.932)"/>
    <path id="Path-16" data-name="Path" d="M2.667,0H1.333A1.336,1.336,0,0,0,0,1.339V2.678A1.336,1.336,0,0,0,1.333,4.017H2.667A1.336,1.336,0,0,0,4,2.678V1.339A1.336,1.336,0,0,0,2.667,0Z" transform="translate(10.667 62.932)"/>
    <path id="Path-17" data-name="Path" d="M2.667,0H1.333A1.336,1.336,0,0,0,0,1.339V2.678A1.336,1.336,0,0,0,1.333,4.017H2.667A1.336,1.336,0,0,0,4,2.678V1.339A1.336,1.336,0,0,0,2.667,0Z" transform="translate(5.333 68.288)"/>
    <path id="Path-18" data-name="Path" d="M2.667,0H1.333A1.336,1.336,0,0,0,0,1.339V2.678A1.336,1.336,0,0,0,1.333,4.017H2.667A1.336,1.336,0,0,0,4,2.678V1.339A1.336,1.336,0,0,0,2.667,0Z" transform="translate(10.667 68.288)"/>
    <path id="Shape-14" data-name="Shape" d="M6.666,8.034H1.333A1.338,1.338,0,0,1,0,6.7V1.339A1.338,1.338,0,0,1,1.333,0H6.666A1.338,1.338,0,0,1,8,1.339V6.7A1.338,1.338,0,0,1,6.666,8.034Zm-4-5.356V5.356H5.333V2.678Z" transform="translate(66.667 17.407)"/>
    <path id="Shape-15" data-name="Shape" d="M6.666,8.034H1.333A1.338,1.338,0,0,1,0,6.7V1.339A1.338,1.338,0,0,1,1.333,0H6.666A1.338,1.338,0,0,1,8,1.339V6.7A1.338,1.338,0,0,1,6.666,8.034Zm-4-5.356V5.356H5.333V2.678Z" transform="translate(66.667 28.119)"/>
    <path id="Shape-16" data-name="Shape" d="M6.666,8.034H1.333A1.338,1.338,0,0,1,0,6.7V1.339A1.338,1.338,0,0,1,1.333,0H6.666A1.338,1.338,0,0,1,8,1.339V6.7A1.338,1.338,0,0,1,6.666,8.034Zm-4-5.356V5.356H5.333V2.678Z" transform="translate(66.667 38.831)"/>
    <path id="Shape-17" data-name="Shape" d="M6.666,8.034H1.333A1.338,1.338,0,0,1,0,6.7V1.339A1.338,1.338,0,0,1,1.333,0H6.666A1.338,1.338,0,0,1,8,1.339V6.7A1.338,1.338,0,0,1,6.666,8.034Zm-4-5.356V5.356H5.333V2.678Z" transform="translate(66.667 49.542)"/>
    <path id="Shape-18" data-name="Shape" d="M6.666,8.034H1.333A1.338,1.338,0,0,1,0,6.7V1.339A1.338,1.338,0,0,1,1.333,0H6.666A1.338,1.338,0,0,1,8,1.339V6.7A1.338,1.338,0,0,1,6.666,8.034Zm-4-5.356V5.356H5.333V2.678Z" transform="translate(66.667 60.254)"/>
  </g>
</svg>
