<svg xmlns="http://www.w3.org/2000/svg" width="31.975" height="23.117" viewBox="0 0 31.975 23.117">
  <defs>
    <style>
      .cls-1 {
        fill: #fff;
      }
    </style>
  </defs>
  <g id="icon" transform="translate(0 -0.042)">
    <path id="Shape" class="cls-1" d="M10.563,23.117a1.474,1.474,0,0,1-1.151-.449c-.583-.658-.312-1.248-.05-1.819.054-.119.106-.23.15-.343l-.151.048A3.979,3.979,0,0,1,8.2,20.8a1.18,1.18,0,0,1-.97-.433,1.378,1.378,0,0,1-.086-1.58c.053-.136.1-.264.141-.395-.111.025-.23.061-.356.1a3.075,3.075,0,0,1-.866.174,1.093,1.093,0,0,1-.9-.449,1.345,1.345,0,0,1-.1-1.569,3.743,3.743,0,0,0,.15-.409c-.115.026-.235.064-.362.1a2.8,2.8,0,0,1-.832.172,1.192,1.192,0,0,1-.932-.45c-.672-.771-.237-2.14.59-2.935a2.08,2.08,0,0,1,1.435-.588,1.677,1.677,0,0,1,1.631,2.236,2.163,2.163,0,0,1,.484-.056,1.668,1.668,0,0,1,1.222.488,1.732,1.732,0,0,1,.368,1.722,2.184,2.184,0,0,1,.486-.056,1.662,1.662,0,0,1,1.22.487,1.773,1.773,0,0,1,.321,1.906,2.1,2.1,0,0,1,.629-.1,1.693,1.693,0,0,1,1.228.5,1.716,1.716,0,0,1,.476,1.239,2.062,2.062,0,0,1-.647,1.435A3.038,3.038,0,0,1,10.563,23.117Zm5.8-.493a1.393,1.393,0,0,1-.993-.41c-.275-.278-.725-.778-.739-.8l0,0a3.221,3.221,0,0,0-.845-2.792,3.143,3.143,0,0,0-1.366-.819,3.15,3.15,0,0,0-.809-1.483,3.112,3.112,0,0,0-1.309-.8,3.056,3.056,0,0,0-.765-1.354,3.107,3.107,0,0,0-1.309-.8,3.035,3.035,0,0,0-.763-1.356,3.272,3.272,0,0,0-2.349-.944,3.636,3.636,0,0,0-2.49.978,3.642,3.642,0,0,0-.9,1.415c-.806-.329-1.718-.595-1.727-.6V1.788L3.187,2.9a3.663,3.663,0,0,0,1.377.279A2.884,2.884,0,0,0,6,2.824C6.04,2.8,10.109.146,12.045.146A3.716,3.716,0,0,1,14.9,1.278c-.023.013-2.943,1.566-4.208,2.442A3.178,3.178,0,0,0,9.175,6.426a3.215,3.215,0,0,0,3.2,3.2h.006A4.684,4.684,0,0,0,14.252,9c.787-.37,1.911-.892,2.794-1.28a1.917,1.917,0,0,1,.773-.168A2.136,2.136,0,0,1,19.2,8.1l1.547,1.552c.513.515.513.515,2.194,2.2l2.381,2.381.012.007.012.007a1.4,1.4,0,0,1-.994,2.4,1.391,1.391,0,0,1-.992-.409,16.5,16.5,0,0,0-2.461-2.2.04.04,0,0,0-.03.01c-.148.15,1.378,1.8,1.952,2.421.135.146.2.216.2.221a1.39,1.39,0,0,1-.069,1.881,1.373,1.373,0,0,1-.978.4,1.42,1.42,0,0,1-.951-.366l-.1-.087a17.36,17.36,0,0,0-3.138-2.592.037.037,0,0,0-.027.009.039.039,0,0,0-.01.03,16.526,16.526,0,0,0,2.29,2.355c.034.035.117.115.16.156l.02.019a1.4,1.4,0,0,1-.994,2.4,1.392,1.392,0,0,1-.992-.41l-.021-.022A20.291,20.291,0,0,0,15.565,18a.027.027,0,0,0-.02.007c-.155.155,1.733,2.135,1.814,2.22a1.412,1.412,0,0,1,0,1.989A1.4,1.4,0,0,1,16.366,22.623Zm11.961-9.469a2.2,2.2,0,0,1-1.581-.593C25.278,11.154,20,5.9,19.943,5.85a1.844,1.844,0,0,0-1.216-.438,2.505,2.505,0,0,0-1.169.316c-1.415.746-3.359,1.758-4.185,2.159a2.117,2.117,0,0,1-1,.265,1.888,1.888,0,0,1-1.357-.59,1.776,1.776,0,0,1-.534-1.184,1.949,1.949,0,0,1,1.2-1.716c1.939-1.176,5.981-3.441,7.591-4.3A2.508,2.508,0,0,1,20.467,0a3.169,3.169,0,0,1,1.948.954c1.695,1.425,3.233,2.75,3.248,2.763a1.533,1.533,0,0,0,.919.288,1.816,1.816,0,0,0,.375-.04c1.891-.4,4.889-1.07,5.016-1.1l0,9.679-.12.024c-1.337.26-2.138.407-2.379.438-.058.007-.133.022-.22.038A4.832,4.832,0,0,1,28.327,13.154Z" transform="translate(0 0.042)"/>
  </g>
</svg>
