<svg xmlns="http://www.w3.org/2000/svg" width="39.978" height="38.646" viewBox="0 0 39.978 38.646">
  <defs>
    <style>
      .cls-1 {
        fill: #fff;
      }
    </style>
  </defs>
  <g id="profit" transform="translate(0 -0.011)">
    <path id="Shape" class="cls-1" d="M9.995,17.324H2a2,2,0,0,1-2-2V2A2,2,0,0,1,2,0h8a2,2,0,0,1,2,2V15.325A2,2,0,0,1,9.995,17.324ZM2,1.333A.667.667,0,0,0,1.333,2V15.325A.667.667,0,0,0,2,15.991h8a.667.667,0,0,0,.667-.666V2a.667.667,0,0,0-.667-.666Z" transform="translate(0 21.333)"/>
    <path id="Shape-2" data-name="Shape" class="cls-1" d="M9.995,23.987H2a2,2,0,0,1-2-2V2A2,2,0,0,1,2,0h8a2,2,0,0,1,2,2V21.988A2,2,0,0,1,9.995,23.987ZM2,1.333A.667.667,0,0,0,1.333,2V21.988A.667.667,0,0,0,2,22.655h8a.668.668,0,0,0,.667-.667V2a.667.667,0,0,0-.667-.666Z" transform="translate(27.985 14.67)"/>
    <path id="Shape-3" data-name="Shape" class="cls-1" d="M9.995,20.656H2a2,2,0,0,1-2-2V2A2,2,0,0,1,2,0h8a2,2,0,0,1,2,2V18.657A2,2,0,0,1,9.995,20.656ZM2,1.333A.667.667,0,0,0,1.333,2V18.657A.667.667,0,0,0,2,19.323h8a.667.667,0,0,0,.667-.666V2a.667.667,0,0,0-.667-.666Z" transform="translate(13.993 18.001)"/>
    <path id="Path" class="cls-1" d="M23.524,13.8a.666.666,0,0,0,.942,0L35.989,2.275V3.332a.666.666,0,1,0,1.333,0V.666a.666.666,0,0,0-.047-.233c-.009-.022-.02-.044-.031-.067a.662.662,0,0,0-.093-.138.582.582,0,0,0-.223-.169c-.006,0-.011-.008-.017-.01A.662.662,0,0,0,36.68,0c-.01,0-.017,0-.025,0H33.99a.666.666,0,0,0,0,1.333h1.057L24,12.384,18.137,6.525a.666.666,0,0,0-.942,0l-6.858,6.858L7.142,10.19a.666.666,0,0,0-.942,0l-6,6a.666.666,0,1,0,.942.942L6.671,11.6,9.865,14.8a.666.666,0,0,0,.942,0l6.858-6.858Z" transform="translate(1.324 0.011)"/>
  </g>
</svg>
