<svg xmlns="http://www.w3.org/2000/svg" width="38.907" height="41.379" viewBox="0 0 38.907 41.379">
  <defs>
    <style>
      .cls-1 {
        fill: #fff;
      }
    </style>
  </defs>
  <g id="stopwatch" transform="translate(-0.547)">
    <path id="Shape" class="cls-1" d="M2.456,11.034A2.457,2.457,0,0,1,1.012,6.59L9.94.13a.691.691,0,0,1,.964.964L4.446,10.021a2.455,2.455,0,0,1-1.8,1.006C2.579,11.032,2.516,11.034,2.456,11.034ZM7.268,3.766,1.822,7.7a1.078,1.078,0,0,0,.644,1.949l.075,0a1.076,1.076,0,0,0,.788-.442Z" transform="translate(18.478 15.173)"/>
    <path id="Shape-2" data-name="Shape" class="cls-1" d="M4.829,41.379H4.781l-.065,0A18.666,18.666,0,0,1,.537,40.9a.691.691,0,0,1,.15-1.363.679.679,0,0,1,.158.019,17.381,17.381,0,0,0,3.294.426V38.621a.689.689,0,0,1,1.379,0v1.357a17.037,17.037,0,0,0,7.212-1.962l-.68-1.177a.69.69,0,0,1,.6-1.035.692.692,0,0,1,.6.346l.678,1.174a17.468,17.468,0,0,0,5.36-5.359l-1.174-.678a.69.69,0,1,1,.689-1.2l1.177.68a17.017,17.017,0,0,0,1.966-7.323H20.578a.69.69,0,0,1,0-1.38H21.94a17.017,17.017,0,0,0-1.966-7.323l-1.177.68a.69.69,0,0,1-.69-1.2l1.175-.678a17.488,17.488,0,0,0-5.36-5.359l-.678,1.175a.693.693,0,0,1-.6.345.683.683,0,0,1-.344-.093.691.691,0,0,1-.253-.942l.68-1.177A17.036,17.036,0,0,0,5.518,5.538V6.9a.69.69,0,0,1-1.38,0V5.533c-.217.01-.432.023-.637.04l-.74.057a17.541,17.541,0,0,0-1.917.329A.688.688,0,0,1,.018,5.44a.689.689,0,0,1,.517-.826,19.009,19.009,0,0,1,2.224-.369v-.8H1.724A1.724,1.724,0,0,1,1.724,0H7.932a1.724,1.724,0,0,1,0,3.448H6.9V4.27a18.417,18.417,0,0,1,7.085,2.347A.084.084,0,0,0,14,6.624a.084.084,0,0,1,.022.008.1.1,0,0,1,.019.016.1.1,0,0,0,.017.015,18.8,18.8,0,0,1,3.316,2.46l1.481-1.481-.976-.976L20.81,3.74l2.925,2.925L20.81,9.591l-.976-.975L18.353,10.1a18.76,18.76,0,0,1,2.459,3.317.1.1,0,0,0,.015.017.1.1,0,0,1,.016.019.1.1,0,0,1,.007.022.114.114,0,0,0,.007.022,18.55,18.55,0,0,1,0,18.532.091.091,0,0,0-.007.021.083.083,0,0,1-.008.023.2.2,0,0,1-.023.031.24.24,0,0,0-.018.023,18.773,18.773,0,0,1-6.74,6.732.1.1,0,0,0-.016.015.088.088,0,0,1-.018.015.221.221,0,0,1-.042.018l-.023.009a18.588,18.588,0,0,1-9.117,2.464l-.008,0ZM20.809,5.691l-.976.975.976.976.975-.976ZM4.829,4.138c.229,0,.454,0,.689.014V2.069H7.932a.345.345,0,1,0,0-.689H1.724a.345.345,0,0,0,0,.689H4.138V4.153l.132,0,.107,0,.145,0c.064,0,.13,0,.195,0h.113Z" transform="translate(15.719)"/>
    <path id="Path" class="cls-1" d="M4.138,0H.69a.69.69,0,0,0,0,1.379H4.138A.69.69,0,1,0,4.138,0Z" transform="translate(10.202 9.655)"/>
    <path id="Path-2" data-name="Path" class="cls-1" d="M7.586,0H.69a.69.69,0,0,0,0,1.379h6.9A.69.69,0,0,0,7.586,0Z" transform="translate(6.754 14.483)"/>
    <path id="Path-3" data-name="Path" class="cls-1" d="M11.034,0H.69a.69.69,0,0,0,0,1.379H11.034a.69.69,0,1,0,0-1.379Z" transform="translate(3.306 19.31)"/>
    <path id="Path-4" data-name="Path" class="cls-1" d="M13.793,0H.69a.69.69,0,0,0,0,1.379h13.1a.69.69,0,1,0,0-1.379Z" transform="translate(0.547 24.138)"/>
    <path id="Path-5" data-name="Path" class="cls-1" d="M9.655,0H.69a.69.69,0,0,0,0,1.379H9.655A.69.69,0,1,0,9.655,0Z" transform="translate(4.685 28.966)"/>
    <path id="Path-6" data-name="Path" class="cls-1" d="M5.517,0H.69a.69.69,0,0,0,0,1.379H5.517A.69.69,0,1,0,5.517,0Z" transform="translate(8.823 33.793)"/>
  </g>
</svg>
