<?xml version="1.0" encoding="utf-8"?>
<!-- Generator: Adobe Illustrator 19.2.1, SVG Export Plug-In . SVG Version: 6.00 Build 0)  -->
<svg version="1.1" id="Layer_1" xmlns="http://www.w3.org/2000/svg" xmlns:xlink="http://www.w3.org/1999/xlink" x="0px" y="0px"
	 viewBox="0 0 20.8 27.9" style="enable-background:new 0 0 20.8 27.9;" xml:space="preserve">
<style type="text/css">
	.st0{fill:#999696;}
	.st1{fill:#010101;}
	.st2{fill:#656262;}
</style>
<g>
	<path class="st0" d="M6.8,17.2c-0.6,0-1-0.4-1-1c0-0.6,0.4-1,1-1h7c0.6,0,1,0.4,1,1c0,0.6-0.4,1-1,1H6.8 M6.8,13.2
		c-0.6,0-1-0.4-1-1s0.4-1,1-1h3c0.6,0,1,0.4,1,1s-0.4,1-1,1H6.8 M16.8,4.2h-2v0.5c0,0.8-0.7,1.5-1.5,1.5h-5c-0.8,0-1.5-0.7-1.5-1.5
		V4.2h-2c-1.1,0-2,0.9-2,2v16c0,1.1,0.9,2,2,2h12c1.1,0,2-0.9,2-2v-16C18.8,5.1,17.9,4.2,16.8,4.2"/>
	<path class="st1" d="M9.8,3.2c0-0.6,0.4-1,1-1s1,0.4,1,1h1.5c0.3,0,0.5,0.2,0.5,0.5v1c0,0.3-0.2,0.5-0.5,0.5h-5
		C8,5.2,7.8,4.9,7.8,4.7v-1c0-0.3,0.2-0.5,0.5-0.5H9.8z"/>
	<path class="st2" d="M9.8,11.2h-3c-0.6,0-1,0.4-1,1s0.4,1,1,1h3c0.6,0,1-0.4,1-1C10.8,11.6,10.4,11.2,9.8,11.2"/>
	<path class="st2" d="M13.8,15.2h-7c-0.6,0-1,0.4-1,1c0,0.6,0.4,1,1,1h7c0.6,0,1-0.4,1-1C14.8,15.6,14.4,15.2,13.8,15.2"/>
</g>
</svg>
