<svg id="Layer_1" data-name="Layer 1" xmlns="http://www.w3.org/2000/svg" viewBox="0 0 327.73 228.7"><defs><style>.cls-1{fill:#efeeee;}.cls-1,.cls-2{stroke:#b7b9bb;}.cls-1,.cls-2,.cls-4{stroke-miterlimit:10;stroke-width:5px;}.cls-2{fill:#fefefe;}.cls-3{fill:#b7b9bb;}.cls-4{fill:#b7e2c8;stroke:#4ebf8b;}.cls-5{fill:#4ebf8b;}</style></defs><title>emailverified</title><rect class="cls-1" x="2.5" y="2.5" width="264" height="189.33" rx="12" ry="12"/><polygon class="cls-2" points="15.89 5.16 17.41 6.36 135.49 99.49 254.25 5.16 15.89 5.16"/><path class="cls-3" d="M152.72,148.14L66.63,222.72a3.54,3.54,0,0,0-.56,4.45h0a2.5,2.5,0,0,0,3.83.65L156,153.24a3.54,3.54,0,0,0,.56-4.45h0A2.5,2.5,0,0,0,152.72,148.14Z" transform="translate(-60.5 -39.43)"/><path class="cls-3" d="M320.72,226.66l-86.09-74.58a3.54,3.54,0,0,1-.56-4.45h0a2.5,2.5,0,0,1,3.83-.65L324,221.56a3.54,3.54,0,0,1,.56,4.45h0A2.5,2.5,0,0,1,320.72,226.66Z" transform="translate(-60.5 -39.43)"/><circle class="cls-4" cx="267.06" cy="168.04" r="58.17"/><path class="cls-5" d="M290.94,214c-4-4-4-9,0-13,3-3,9-3,12,0l15,14,34-34c4-4,9-4,13,0,3,3,3,9,0,12l-41,41h0c-4,4-9,4-13,0Z" transform="translate(-60.5 -39.43)"/></svg>