<?xml version="1.0" encoding="utf-8"?>
<!-- Generator: Adobe Illustrator 19.2.1, SVG Export Plug-In . SVG Version: 6.00 Build 0)  -->
<svg version="1.1" id="Layer_1" xmlns="http://www.w3.org/2000/svg" xmlns:xlink="http://www.w3.org/1999/xlink" x="0px" y="0px"
	 viewBox="0 0 55.2 96.1" style="enable-background:new 0 0 55.2 96.1;" xml:space="preserve">
<path d="M55.2,39.6c0-4.3-3.5-7.8-7.8-7.8H34.1V15.7c0-2.3-1.3-4.5-3.4-5.7L15.9,1.9c-1-0.5-2-0.8-3.1-0.8c-2.4,0-4.5,1.3-5.7,3.3
	c-0.8,1.5-1,3.2-0.5,4.9s1.6,3,3.1,3.9l11.5,6.3v12.3H7.8c-4.3,0-7.8,3.5-7.8,7.8c0,3.1,1.8,5.8,4.5,7L9.2,89c0.4,4,3.8,7.1,7.9,7.1
	h21c4,0,7.4-3,7.9-7l4.7-42.5C53.3,45.3,55.2,42.7,55.2,39.6z M11.7,9.4c-1.1-0.6-1.4-1.9-0.9-2.9c0.4-0.7,1.1-1.1,1.9-1.1
	c0.3,0,0.7,0.1,1,0.3l14.9,8.2c0.7,0.4,1.1,1.1,1.1,1.9v16.1h-4.3V17L11.7,9.4z M7.8,36.1h39.7c1.9,0,3.5,1.6,3.5,3.5
	s-1.6,3.5-3.5,3.5H7.8c-1.9,0-3.5-1.6-3.5-3.5S5.9,36.1,7.8,36.1z M41.8,88.5c-0.2,1.8-1.8,3.3-3.7,3.3h-21c-1.9,0-3.4-1.4-3.6-3.3
	l-0.8-6.7h29.8L41.8,88.5z M43,77.6H12.2l-1.8-16.7h34.4L43,77.6z M45.3,56.6H9.9l-1-9.3h37.4L45.3,56.6z"/>
</svg>
