<?xml version="1.0" encoding="utf-8"?>
<!-- Generator: Adobe Illustrator 19.2.1, SVG Export Plug-In . SVG Version: 6.00 Build 0)  -->
<svg version="1.1" id="Layer_1" xmlns="http://www.w3.org/2000/svg" xmlns:xlink="http://www.w3.org/1999/xlink" x="0px" y="0px"
	 viewBox="0 0 24 24" style="enable-background:new 0 0 24 24;" xml:space="preserve">
<style type="text/css">
	.st0{fill:none;}
	.st1{opacity:0.3;fill:#FE5354;enable-background:new    ;}
	.st2{fill:#FE5354;}
</style>
<title>Stockholm-icons / Shopping / Wallet</title>
<desc>Created with Sketch.</desc>
<g id="Stockholm-icons-_x2F_-Shopping-_x2F_-Wallet">
	<rect id="bound" class="st0" width="24" height="24"/>
	<circle id="Oval-47" class="st1" cx="20.5" cy="12.5" r="1.5"/>
	<path id="Rectangle-162" class="st1" d="M3.4,5.2L18.8,1c0.5-0.1,1.1,0.2,1.2,0.7l1.3,4.8c0.1,0.5-0.2,1.1-0.7,1.2L5.2,12
		c-0.5,0.1-1.1-0.2-1.2-0.7L2.7,6.4C2.5,5.9,2.8,5.3,3.4,5.2z"/>
	<path id="Combined-Shape" class="st2" d="M22,9.3C21.5,9.1,21,9,20.5,9c-1.9,0-3.5,1.6-3.5,3.5s1.6,3.5,3.5,3.5
		c0.5,0,1-0.1,1.5-0.3V18c0,1.1-0.9,2-2,2H4c-1.1,0-2-0.9-2-2V6c0-1.1,0.9-2,2-2h16c1.1,0,2,0.9,2,2V9.3z"/>
</g>
</svg>
