<?xml version="1.0" encoding="utf-8"?>
<!-- Generator: Adobe Illustrator 19.2.1, SVG Export Plug-In . SVG Version: 6.00 Build 0)  -->
<svg version="1.1" id="Layer_1" xmlns="http://www.w3.org/2000/svg" xmlns:xlink="http://www.w3.org/1999/xlink" x="0px" y="0px"
	 viewBox="0 0 24 24" style="enable-background:new 0 0 24 24;" xml:space="preserve">
<style type="text/css">
	.st0{fill:none;}
	.st1{fill:#0ABB87;}
	.st2{opacity:0.3;fill:#0ABB87;enable-background:new    ;}
</style>
<title>Stockholm-icons / Cooking / Knife&amp;fork#2</title>
<desc>Created with Sketch.</desc>
<g id="Stockholm-icons-_x2F_-Cooking-_x2F_-Knife_x26_fork_x23_2">
	<rect id="bound" class="st0" width="24" height="24"/>
	<path id="Path-65" class="st1" d="M4,3.1l7.1,7.1L8.2,13L4,8.7C2.4,7.2,2.4,4.6,4,3.1z"/>
	<path id="Combined-Shape" class="st1" d="M17.8,3.9l-2.9,3.5c-0.2,0.2-0.2,0.5,0,0.7c0.2,0.2,0.5,0.2,0.7,0l3.5-2.9L19.9,6L17,9.5
		c-0.2,0.2-0.2,0.5,0,0.7s0.5,0.2,0.7,0l3.5-2.9L22,8.1l-3.2,3.2c-1.4,1.4-3.6,1.4-4.9,0s-1.4-3.6,0-4.9L17,3.2L17.8,3.9z"/>
	<path id="Rectangle" class="st2" d="M11.1,13.9c0.4,0.4,0.4,1,0,1.4l-5,5.5c-0.5,0.6-1.4,0.6-2,0.1c0,0,0,0-0.1,0
		c-0.6-0.6-0.6-1.5,0-2c0,0,0,0,0.1,0l5.5-5C10,13.5,10.7,13.5,11.1,13.9z"/>
	<path id="Rectangle-Copy" class="st2" d="M13.1,13.9c0.4-0.4,1-0.4,1.4,0l5.5,5c0,0,0,0,0.1,0c0.6,0.6,0.6,1.5,0,2c0,0,0,0-0.1,0
		c-0.6,0.5-1.5,0.5-2-0.1l-5-5.5C12.7,15,12.7,14.3,13.1,13.9z"/>
</g>
</svg>
