<?xml version="1.0" encoding="utf-8"?>
<!-- Generator: Adobe Illustrator 19.2.1, SVG Export Plug-In . SVG Version: 6.00 Build 0)  -->
<svg version="1.1" id="Layer_1" xmlns="http://www.w3.org/2000/svg" xmlns:xlink="http://www.w3.org/1999/xlink" x="0px" y="0px"
	 viewBox="0 0 24 24" style="enable-background:new 0 0 24 24;" xml:space="preserve">
<style type="text/css">
	.st0{fill:#FFA000;}
	.st1{opacity:0.3;fill:#FFA000;enable-background:new    ;}
</style>
<title>Stockholm-icons / General / Notifications#1</title>
<desc>Created with Sketch.</desc>
<g id="Stockholm-icons-_x2F_-General-_x2F_-Notifications_x23_1">
	<path id="Combined-Shape" class="st0" d="M17,12h1.5c0.8,0,1.5,0.7,1.5,1.5S19.3,15,18.5,15h-13C4.7,15,4,14.3,4,13.5
		S4.7,12,5.5,12H7l0.6-5C7.8,4.7,9.7,3,12,3s4.2,1.7,4.4,4L17,12z"/>
	<path id="Rectangle-23" class="st1" d="M12,16L12,16c1.1,0,2,0.9,2,2l0,0c0,1.1-0.9,2-2,2l0,0c-1.1,0-2-0.9-2-2l0,0
		C10,16.9,10.9,16,12,16z"/>
</g>
</svg>
