<?xml version="1.0" encoding="utf-8"?>
<!-- Generator: Adobe Illustrator 19.2.1, SVG Export Plug-In . SVG Version: 6.00 Build 0)  -->
<svg version="1.1" id="Layer_1" xmlns="http://www.w3.org/2000/svg" xmlns:xlink="http://www.w3.org/1999/xlink" x="0px" y="0px"
	 viewBox="0 0 24 24" style="enable-background:new 0 0 24 24;" xml:space="preserve">
<style type="text/css">
	.st0{fill:none;}
	.st1{opacity:0.3;fill:#00C1D4;enable-background:new    ;}
	.st2{fill:#00C1D4;}
</style>
<title>Stockholm-icons / Shopping / Credit-card</title>
<desc>Created with Sketch.</desc>
<g id="Stockholm-icons-_x2F_-Shopping-_x2F_-Credit-card">
	<rect id="bound" class="st0" width="24" height="24"/>
	<path id="Combined-Shape" class="st1" d="M4,5h16c1.1,0,2,0.9,2,2v10c0,1.1-0.9,2-2,2H4c-1.1,0-2-0.9-2-2V7C2,5.9,2.9,5,4,5z"/>
	<rect id="Rectangle-59" x="2" y="8" class="st2" width="20" height="3"/>
	<path id="Rectangle-59-Copy" class="st1" d="M17,14h2c0.6,0,1,0.4,1,1l0,0c0,0.6-0.4,1-1,1h-2c-0.6,0-1-0.4-1-1l0,0
		C16,14.4,16.4,14,17,14z"/>
</g>
</svg>
